<mxfile host="app.diagrams.net" modified="2024-07-15T11:21:38.485Z" agent="Mozilla/5.0 (Windows NT 10.0; Win64; x64) AppleWebKit/537.36 (KHTML, like Gecko) Chrome/126.0.0.0 Safari/537.36" etag="yENeAoGHlmFzafXEfTht" version="24.6.5" type="device">
  <diagram name="ページ1" id="RbTH3yKBhCIRVd_anpUV">
    <mxGraphModel dx="2011" dy="1146" grid="1" gridSize="10" guides="1" tooltips="1" connect="1" arrows="1" fold="1" page="1" pageScale="1" pageWidth="827" pageHeight="1169" math="0" shadow="0">
      <root>
        <mxCell id="0" />
        <mxCell id="1" parent="0" />
        <mxCell id="gjO3GS4DM45FSOQ93VVw-1" value="" style="shape=image;verticalLabelPosition=bottom;labelBackgroundColor=default;verticalAlign=top;aspect=fixed;imageAspect=0;image=data:image/png,iVBORw0KGgoAAAANSUhEUgAABDoAAASCCAYAAABTtIyhAAAAAXNSR0IArs4c6QAAAARnQU1BAACxjwv8YQUAAAAJcEhZcwAADsMAAA7DAcdvqGQAAP+lSURBVHhe7N0JYBTlwcbxZwkQCJAAcsqhAiKnBjwCHgFU8AK1BrGGYrlaQVSsKB8iFCkUKIqVVgpaDisVFYkH4AVVMVUhVSHKpQjxCMiRKBIgsECy37yzsxDCJtkcm2Pz/+mwc+3sbrLZmffZ9xAAAAAAAECocNn/jtvksW8BAAAAAAAqqhmdXCeDjnNe6mvPAgAAAAAAVDTf/3qlHXRUcZYBAAAAAAAqPIIOAAAAAAAQMgg6AAAAAABAyCDoAAAAAAAAIYOgAwAAAAAAhIxKOepKlSpVFB4erjDr1szLGXwGAPzxeDzKysrSiRMndOzYMWctAAAAgPLEN+pKiQUdJjiIqFlT1apXV9WwMIVZU6DsAoQ1HbcKEJlHjsjtdjtbSlbt2rXt52ieKwAUhfm8OmJ9Th06fFjHjx931gaRxyOP9VHtsm5NKGv9a69zmXlnnf1B7tvPzAMAAACVUIkML2sutE140LRpUzVq2NCeD69evVAhh2H2N/cz9zfHMcerY82b45eEWrVq6WzrmPXq1iXkAFAs5vPKfFY1adxYZ9Wv760VFgR2oGH4wgvn89D86/tsNLcnPyVzzltO3h8AAACoZIp8hW4u9hs3amSHB6YGR0kyx6trHbexVZAwzUuKIyoyUvXr1St0+AIABYmIiLA/B0vy88UXUOQMLYrCd38CDwAAAFQ2RUoRqlWrpkbWxb25DaZqVavaYYe5LYqoqChFRkY6SwBQ8qqaz6kSCjtMKFHcgCM3+3imiQsAAABQSRQ66KjicqlhgwYlXosjL6bw0MB6vMI2Y6lRo4Yi69RxlgAgeOzPqbPOcpaKIUiBBDEHAAAAKpNCBx1nNWhQ6s1AzDempi18oMzzK8z+AFBc1atXV92oKGepcHxBREn1S5Sb77gEHgAAAKgMChV01KxZUzXKqDNP89hmCoTplyNYHQQCQF7q1KljB7OFYmpxlFLTEhN3EHYAAAAg1AWcBpgmK0X9trKkBPL4JuAwo6wAQFkwI7IEzAQc1mdrsGpy+GOHHfTZAQAAgBAWcNARXqNG4b+pLGHm8U3fG/kxoyAUR3iNmmpzQTtd0eNqXd3nRnu6ssc1atuug/XYgdUoAVB5RQRY88xWigFHTqUZrAAAAAClzXu1O26T55yX+tqzeTFDtJaHmhKHDh3S/l9+cZbO1KhhQ4UXonmN+WbTXPSHVQlTx+iuat/pQjVs0Mhe5/vW89hxtzzZHh08eFBbN32hjcnrlZ2ddfK+AJDT3n37dOzYMWfJP/PpUlafHnx2AQAAIBR9/+uV0oxOroBrdAR7KNlAmQ7/8lOY5+m72A8Pr6Grr+9r19yoU7uOUnZ8o7Uffah333xd71jTvj177UKLOXb3q3qp9w39FF69xmlhCAD4BPI5VJyYoWHDhurQoYN9WxSEHAAAAAhl3qvdAGp0nN20aamPtuJPVlaWfty921k6U4vmzZ25/PlCDvOaru5zk900JS1trzZ8uk7fbPvK7GDvV7tOpG66pb9qRkTo+PHj3nW1I/Xtjm16792V9vPh21EAOR04cEAZBw86S2cq7mdG//791T8uTssSErRs2TJnbeHx2QUAABBcMZddpoEDB6pRo0bOmrx9s327Jk6c6CxVHO+8/bb+8pe/6IM1a5w1eTOtLxYtXKh462cSDL4aHQEHHc2bNSsXF8Tmwnznrl3O0pkCDTp8Luxyia7qda3S9+3Ve6vesm9NxlGtWlV1uqirzm3VRlF16yk7O9u5hzdsiYyqq08S39eXGz5z1gbmb3/7W57fwm7cuFHTpk1zlgI3fvx4NWnSRPfff7+zJvguvPBC9e3bV61atTrZpOnHH3/UihUrtMZ6g5vXuWfPniK9nkDdeeed6t69u9/XHYyfs3m8m2++2b5FxdWpUyf7vfvUU0/p6NGjzlov0wfQAw88oJUrV2rTpk3O2sLLyMjQAWvKS3GbrZRY0GFNxBwAAADB0bZtW7vc8ec//zmg7hVMKGLKMBMqWNjRo0cPzf3HPzTq3nv1wQcfOGvPZH4GCxcs0AmrPP3b3/7WWVuyCt10pSghR/v27Z05/wra7k9Jhi2m49EOnS/S8WPH9HnSWjvkqFIlzHoM2QHH5Vf1UmTdunawYR7XN5mRXTIPH7LvW9gOSk2h3BSUzZSWlmYXun3LwQwFSpIJOe655x47XFm7dq2eeeYZvfjii/rpp5/UtGlTZ6/iMYHC/PnznaXCC4WfM4KjT58+uuiii/R///d/p3VubObNOrPN7BNM5SVcIOQAAAAInnr16unEiRPasGGD1q1bV/CUlKQ255/v3Lvi+PDDDzXSKh8+/fe/26GHP76aHKY8/fvf/95ZGzwBBx2FdfXVV+uPf/yjBg0a5Kw5nVlvtl911VXOmtLXouW5OqtBQ+3a+YPdL4f5oXs83pobTc42NViksLCqdnt7U5Mkp+ysLNWpE6kW55zrrKk8hg8frsOHD9thwoIFC+waHMuXL7cDBBN4lARTS4RhghEMf7c+gL/44gu1a9fuZNjhCznMOrPN7AMAAAAgMCbsuGfUKP1jzpwzwg5fyGEMGTpUbrfbng+moAUdpqmHCQduvPHGM8IOs2zWm+05m4SUtsZNz1YVVxXt3rXr5CgqvkAj9fvv9FnSWn3x+f+0+8edqhJWxa7ZYQIOo4rdX4lLjZucbS+XlGHDhmnevHl2YPCvf/1L06dPt2tQ5PTYY4/Z28w+Zru/DlpNcxZTI8LsY27Ncl5mzZplN/Xw6dmzp30/c5ubqWlhqlOZJioFMc/LPD/faxkzZoyzxcts870O8xzNsQ3zXH3zZpuZSlpej23k/h2YZX/uvfdee5+c90X5Z/raMe95X9gxbtw4e/KFHGabrz8eAAAAAIHxF3aURchhBC3oMN/yP/vss/a8CTV+/etf2/Pm1iwbZvvHH39sz5cF80M3NTgOHjygqlWr2rU3wqxbE2J8/+0OJX2SqPWfrtMXn39qj7ISUauW3SlpzZo1lXn4sF3vu3r4qarvxWUK1LGxsfr000/tJhaLFi2yqzuZGhQ+JuQwTUbMNrNPenq6zjvvPGerl9mnZcuWdi0Ls897772nCy64IM+ww4QWUVFR9r7GbbfdZjf1ML/D3Ez/BqajRX/bcjPPa/v27fZxzWu65JJLTgsFzHC9vtexc+fOk9tMzRDz3A2zzfe8SlJej23CnWuvvfbk7+Cdd95R3bp17W05mf0vvfRS+/3re66oOHxhx9dff23/bZipvIYcpubbSy++eNpk+ucwzG3ubWZ/AAAAoCz4wg7TZ8d1ffrYfXKYCgOlGXIYQQs6DFMYXuikN7fccot9AW5uDbM+kMJyMLlcVXTMKtRc2u0K3R4/WAN+M0R3DByiXw0YqD433aKW57W29zM1Oj587119n7JDO3/4Xv9b+5E2b0xWtaolO+SuKTibgpdpDmKYn89LL71k16AwBWtTs8MUyMybx/ezMwUzE3b45NzHVwA3tQ5Mwd2s98cc68svv7Q79jSF+4iIiHz7sTBD7QbCdE7qey1PP/203dzl/Bxtzsxj+F6HuS3Npip5PbavjxHz8zLMz878jHMyv4s4q4Bp9jGvCwAAAEDRfPftt4WeUL7ZYYfps8MqK9WuXVvDf/e7Ug05jKAGHcbq1av1/PPP2/O+zkfNsllf1txHj8iT7fH2wxEebtfwqG5NtWvXUctzWunq3jeoWYuW9r5fb92kVW+9oXdWvKYv1n+qmjUjFFY1zPqFnT5qQ3GYWhXf5vrD9RXGTUG8Y8eO9rwpfOdkOgH1yW8ff01cfExh3my/5ppr7BogJcHUmsgpMzPT/hn7mKYf5nFNs5m7777bWVs68nps83MzAY1pZmNqwPhrvmNqJJlAipCj4jL97pjfsQn/zO/STKYTUrPObCtPzOfln6ZMOW36MDHR3mZuf33nnadNf/rTn+xtAAAAFcG5551X6AnlmynzmdYKP6Sm2l90d+vWzdlSeoIedBhvv/32ybDD3Jrl8mDvnh+tf739cpi+N0yVGt9kRlUxBf/WbdvZ+5qOSg1rbzsYObtZM7t/kb27zTFCg6mpUVCtir1799o1THL3G1JYJkQwzWC2bNmi//znP0FpnpKXgh7bFHZNkxXTRGjIkCFn9NFhfk6maRAqJl/IYYKNr776SjNmzLAnM18ew47vvvvOfq/mnMxIQgAAAEB54+uTIywszP6C2IzG4q+D0mArlaDDMOGG6TuivIQchulw1NQ6MMPF5mSWq1UPV9Wq1VTTGT7WhCG+sOO8Vm10dvOW+ik9Tak/fGevKwmmaUfu/jZ8NQp2795tbzdy1zLIWeg2+xm5C+9nnXXWyfv7Ywp3hulzIr83oWmKYgr6xQ0mTIjwww8/2Mfz9SVSWgJ5bFOzw4wqY2p3mMJvTr5hb02Hpqh47rvvvpMhx1/+8hcdPXrUnsy8L+ww+wTT6WM4lZ3y8jwAAABQ8flCDsPXJ4e/DkpLQ6kFHYapHl6eHD16RFs2fqGIWrVPjhJjkqfDhw9pzXvvaMVrS7X+06RTtTms7Q0aNdbFMd1VrXp1+76m+UtJWbt2rV2V3leDwAQapvNW83MzTVhModx8k2vWmW2mVoWpnWA6UvUx+5n9zZvI18GmKcib/j/M8f3xHcvUbjDNMczx8uq41DC1Hc4++2y76Yc5trmvuTX3CTSwMB0+mvDF3Nc8vukfJCdf05tAj1cY+T22eTxf6GO2m1o9uQMi05+J6TvF/AwIOyqeVatW2R2P+kIOH1/YYbaZfQAAAAAExl/I4ZMz7Lg8V7kvWAIOOkxzjvKgpJ6HbxjZzV+uV8o3X6tOnSh5srPt2hxuq8Dzfcp2pX7/rdL27Tm57/kXtNfVfW5Ug4aNtW3rFuu+G+z1vu3FZWoYmA4uTcHbFPRNswlT88DUhPExtQlMwdv0K+ErkKekpNi3Pmb/PXv22B1mmuOYfjcSExNPdgyamxllxdRc8HVe6hulxYQA/phjJiQk2PPXX3+9HnnkEfu2Tp062rx5s72+IObNbvokMff9zW9+Y4csuZmRX0xYY4Z4LUn5PbapEWPakZnXaH6+pvaKL3TJyQRK5mdgwg7f7wEVw6ZNm+ymKjlDDh+zzmwz+wRVCX1mFFt5eR4AAAAhyHxd/uOuXd6FAJhwYN++fc5SxZFfyOHjCzueeeaZUgk7vFUVxm3ynPNSX3s2L40bNcq3M8vSYgqee/P55bdo3tyZK5gJKExtDTN0bM/e1+u8Nm11JPOw/YtJ2b5NP6ebx3Epql59NW7SVGc3a24PJ/vN11uV+N671n5HTx4Dpc/UvjChkGliApQnGRkZOmBNwWL6yTHTL7/8YoeUAAAAKJ9eXLLE/jLVfEFaEFOz/oknntC6pCRnTcVgvpiuZj33QIaQNV/C/232bHXs1MlZU7K+//VKaUYnp4QeQNBRv169Uh3+My+mNsPP+/c7S2cqTNBh+IKKKlXC1Dm6q9p3ulCRUXW9oY7zZafZbvZLS9+nrZu+1Obk9crKziLkKGMEHSivAgo6rM8P6wPEWShdfHYBAACUnkBHHdlvlXPLW3cPFU2hg46aNWuqwVlnOUtlJ/2nn3TkSN79YhQ26MitRo2aanHueWrUuKldBccwNTfMCC2p339fon1yoHgIOlBeBbtGBwAAAIAzFTroMN/+NW3SxO6ss6yY/jl+dEYVyUtxgw4AKC4TcpiwoyBlVbOCGh0AAAAIRb6gI+DOSM2FccbBg85S2SjoG9Lcw8QCQFkINEQoq7CBkAMAAAChrFDJwKFDhwrsXCRYTHOV3MN85kbQAaA8qFrImm+lNfYJY6wAAACgMih0MmD6yDhx4oSzVDpMk5Wffv7ZWcpbWTarAQCfwoaupn6FCSFMzblg8B2XehwAAACoDAoddGRnZ9thh7ktDeZx0tLTAyoAVK9WzZkDgLJTlKG4TQgRjCYl9mcnTVUAAABQiRSprcfx48ftTkHzG/2kJGRmZtqPYx4vEGZkGAAoa6ZGh2/UpsIywURJ1O6w7+8cg5gDAAAAlUmRO7UwF9GmZoepbRFoEBEo0zRmX1qa3Vwl0Iv94hQsAKCkRRQxeDW1Ouxgopi1MHzHoONRAAAAVDZFDjp8jh49qj1799rBhN1Z6bFjdp8ahWH2N/cz9zfH2b1nT6E7PY2sU8eZA4CyFxERUax+g3LGE3bc64S+5l9fAGxuT0bBOecNAg4AAABUUt4r4XGbPOe81NeerYiqVq2qpk2aOEsAUD6YkaJ+3r/fWQIAAAAQTN//eqU0o5Or2DU6ypqplt3grLOcJQAoP2rVqmXX7AAAAABQeip80NGwQQNVY7QVAOXUWfXr038QAAAAUIoqdNBx1llnUYAAUO6ZWmc1+KwCAAAASkWFDDrMCCuNGzUq8qgGAFCazGdWw4YN6TQZAAAAKAUVLuioFRFhhxzVq1d31gBAxRAVFaVGDRvaHSgDAAAACI4KEXSYPjhq165tj6xSv359CgkAKizT3M58lpnQg8AWAAAAKHnlMuioWbOmIiMj7U78zm7aVE0aN1a9unUJOACEDNOMxdROa3b22XYfHlHWZ5757AMAAABQPC7733GbPOe81Neeza1GjRoKr17drlVhvn0MCwtztgAAAAAAAATf8RMndOzYMR23Jrc1mfncvv/1SmlGJ1eeNTpM7YlGjRrZw7ea2hXmm0ZCDgAAAAAAUNqqVa1q99lZt25du2Z0vXr15HJ5627k5jfoqF2rln1HU5MDAAAAAACgPDG5henmonq1as6aU84IOmpZO5tkxAyHCAAAAAAAUB6ZliiNGzc+oz/P09IMs9F0+gkAAAAAAFARmIFMcjot6DAb82rjAgAAAAAAUN6YgVNM36I+J4OO8PBweyMAAAAAAEBFUqd2bWcuR9BByAEAAAAAACqinP2MetupjNvk6br6t4qoWdNeBMqDrKwsHT9+XCdOnFB2dra9bCYAAAAA/oWFhdkFPnNr+mCsVq2aPY+Kw+PxFLpLiaLcJxR9dOU8aUYn16mmK9ToQDlggo2DBw/qp59+0v79+3Xo0CEdPXpUx44dI+QAAAAACuD7stBcQ5traXNNba6tzTW2WY/yryiBBSHH6U4GHaR8KEvmA/nAgQP25Ha77UQSAAAAQPGZa2tzjW2utTMyMvgCsZwxv5+SLv8E45gVyalGLEAZME1SfEkzCTMAAAAQXKamtK/mtLkWR9nxBRGmNkZJ18jwHa+yhh0EHSgz5oPVJMqmWh0AAACA0mOuwU1zFsKOshPs5ibBCFAqCoIOlAlTXe6XX36xOxoFAAAAUPpMjWrTnIWmLKWrLGpZVLaaHQQdKHXmA9WEHIGkxyaBND1F16xZU7Vq1VKdOnVOThEREQoPDz9tGKHSVpnbvQEAAFRmoXIdyBeQpcu8b8qiloV5zMpUdiHoQKkyf1ymPWBBf2Smc1wTZtSvX19RUVF2yGHCDhNs+CYTdPj2qVu3rr09mPw958paFQwAAKCyy30dWJELkb5rdJqxBFdFfo9UNN6/znGbPFd+NMKeBYLJVI3Lr9NRc8IwAUaNGjWKFCKYJNp8SJNIAwAAoLSZgmxF/iLM1KQ2XzIiOAJ7f5gwxLtPnVrV1L55dbWoKzWvH6YGtax14S4dOubRkSo1tfNgFe34PkMbv/pFB7Kq2fexHsQUqrzzldBHV86TZnRyfgIEHSgFvrG882L+6M0Ha9WqVZ01RWM+QA4fPlxinZxW9BMWAAAAEKjatWvbXzqiLHhDjtoRVXV9jxa6+eqWqp99QBm79urIsSydOJGl7GyPGp3TWI3atJSqHlPKzvpacbibvln9hr5Z+19lnjDlllNhiT+hXL7xBR00XUGp8IUPeTFNVUzzk+KGHIb5ozUf0KZmiHnc4iDkAAAAQGVirtmLew1dUlq1aqUHHnhAkydP1q233loiZYWyEMjP01vkcKndeZH655+v0ujhnXVe05ryuKoqwy0dO54lnXCrXr1wNWh+lnXQ4/pxd229VvPXcnfupvb3Tdddg/vqvLqmZrvL+i/vxzTlm/LyOw4Wgg6UiszMzHz/mCIjI+2woySZoKM4/XYQcgAAAKCoSrog2bZtW2cuuMzzNtfuZc3UKhk6dKiaNWtmX9dfccUV6tmzp7O1dDVo0MAOXcxtYQVSpjChhHm7dD2/tv7yhy5q3ihCP+49S8lZ1+pYtbNVL1yqquo6cVa0DjS/Wd9U6altBzvp3bAblRnVRJ79GfrlWJb2X3qXhvc7X52bWY9r1+iovGGH9ydO0xUEkekvw/TknBfTXMW0ByyIGV2lcePGdseku3bt0pEjR5wteTN/vOaxizJkViAfSgAAAEBeSup68qKLLtKvfvUrPfbYY86a4DMd/pfW6IYmzGjfvv1pj2fKCJdddpmz5LVv3z598cUXzpLXTz/9pC+//DLffgCLq2nTpvYXqKb8sXv3bmdtYAp+D5iwwaXmDarqL3e3UcvWzZWRWUf/qXKTNnuaqM7uL9Th2Bb93OIKpUe11tGwGtbeVXT88AGdqFZd1cKsY1dxyZV1Qu4qEer81WK13PEvzXj3uHbvt45twow8Hj/Y5R1TY3/AgAFq1KiR/vOf/2jdunXOluApsz46THWja6+91n6hFaXDSPPLP+ecc/Tdd985a8ovEwScf/75atiwoc466yzt379f33//vTZt2nSyz4qBAwfaNSjmzp1rLwebqf6WVyhh0lkz5cd86PXp00fR0dGntRfcuXOn/cfy1ltv5Rt6mJDD/BwKw/zRGwQdAAAAKKqSKkg+9NBD6tixo6ZOnaodO3Y4a4PLFOzNF4zBdsEFF2j48OHOUtGYctqcOXOcpZIX1KDD2l6tmkt/GnS2ots3UvXw2trsitHc3R2V8csBRdasoWbt2qh6ZA15jrnlUrZcVvnGVSVMVWvUlLKzlO12S2FV5bHK2tnfblKv5JnanX5Uf1uzT8ezssss6Lj++ut1zTXX2PMmiPrjH/8Y9AzAF3R42wpcec9jLX9Yac8Gkwk5Bg8erEsvvVTVq1fXtm3bnC3lW+vWrdWyZUt7KFOTIpZH5mdr2q3dcccdateunVq0aGFXrWrevLk6deqkq666ym4aYj4EbrzxRp199tlavXq1c+/gyms4WfNHZQKXvP64zIfJ/fffr/j4ePt15G6TZ+7boUMH+4/HfOD8+OOPzpbT+ZLhwqa8rttm6bW/j9Slh17Wqq+claXooQWrNfmWxlq8/BN7+VdPvKa/j7xUh15epTJ4OijAZQ/O0dTftNPut9Zql7MOAACguAVJU8i+88477Xnzpd9nn31mzwebGWq2OM3AA9WlSxe1adNGmzdvtmtrpKSkFGoytUHq1atnf5EeLKYcaGqg+0Z4LKx83wPWtuu71lbfmLOUaRVXakTU08oDnfX1geoKzzqqek3OUv36Eco+ekTVTO0P6//qNWsrzJo5+PWX2vPhf5T2eZIO/LBTaQeOK/1YhCJ2fa02VTOUfiRLP2bkHywEM+gwzX1MWdow76cPPvgg6EMY/9Cyr/TRPyaXWh8dprA5ZMgQO7H74YcftGrVKmdL+WfCgYyMDLuGROfOnZ215YcJMEwK2r17d3vZfED885//1F/+8hf99a9/1TvvvGOnj71799bvf//7gJqJlBRTmyKvN7OpyZHXH5b5EDdV80woZo7x4Ycfavz48faHvJlMYLZgwQI7eDIdj44ZM0a9evVy7n2m8PBwv2ELSkCr3rpv2lN6dtEiLTLTnGl68MYLlPu0GNlzmKY95exjTU9Nvktdcu8U0LEi1XPYND3l22fRU5p8V5czHi+nC0Y8rkXPTlD/4J+rAQAASpT5VtznkksusQv1pcFcwxel+Xdh+b6UNDXQTRmxsJPpT6Sk+/orKYHUmKhbq4r6dKkt9/FsVZVH+93h+vZolKocO6ITVjFq374D2rhhh44ezLRrdNSoWVOHd2zWtlcWaceKpTrx7WbVyNit7K/XyZW8WocyjuhYi1ZqeYFHt8RGKjIi7yJ/MEMOw5ThNmzYYAdSzz33XKm26CiVoMO8eYcNG2Z3oGNCjmeffVZuU72mgjB/4Kbdlwk7TFu18hZ29OvXz07Kvv32Wz355JP697//bdeWSU9Pt2s5vPfee3riiSfsN5hJ1UwiWVry+j2bP/r8hq0aOXKkXYvGtLl79NFHNW/ePPv1+ZjjmtT2wQcf1LvvvmuvM2GPeX3+mA8/U4sIgev50Fy99vI0/cpZ9qtmb/3fmHh1bXBcX73yN8342xJ9lB6lzreP0bg7mzg7Wbtd8aD+9NsrFXXgIy352wzNX7VDatlL9/9pmE7+xgI6Vk1d8eCf9Nsro3TgoyX624z58h7qfv1pmP/fvdRJfdo1UOaOj7TMtHC64E5NeOpx3Xd6k08AAIASZwqSxfmyzXyhd/nll9vzpim2KVf5mgKUhopUZiuPAgkSLmhWXc3OCreHjw1Ttg5Vqaefd++T57hb1SLr2TU4atQMt94LNex1P7zxglJeWajIrz7Vpenf6P7hv9GfHn1YF13USfp5l1xf/1dfp1dXpquu2lrHPv/scOeRSp95/yxZssTuMqG0W3MEPeio6CGHT3kNO0wTFNMDsemvwvxsc7cZM9XNTAhi9lu7dm2p12rIK7UzoUNef/im1o/peOjYsWOaMWOG3ceIz+23365//OMfdsc2hvm9mHTw448/tt9rpv+RvJhaHYEKdrpZEdRr0kS1CwqHesWodYQJJv6oJ9/aoK83rNaCSXO1/kA1tezcx6ll0US339RZUQfWa+6kBVq94Wt9/OJUzVj1g4436KrbfZ1nB3KsJrfrps5ROrB+riYtWK0NX3+sF6fO0KofjqtB19vltx/unjepXdQBffXmGu9yVFM1jYpQ6dVrAgAAlVlxrivNKCOm+bbpiN8UGI2rr776jCbdwVKa38Cb8lVhrtcrgkDKXp3OraGwqlXsDkbN3tmemjr4wYsK2/S+lL5LOnJINY4f0k+ffqTvXlqofZ+tVcwlXTXo+qt10Y7PlbV5vd1x64Xt2mr/rh9U7chPStvzsxK3hSmiapguaZ1/lebSLh+WlqAGHaEScviUx7AjNjbWvjXNU/x9EJmAY8SIEfZkQoDSLsDn9YeTX/Uy0/Go8cYbb9gBTm6mJoh5b+X0r3/9y35vmT47TH8e/pRmk53K5biOZ+bsDDbdbl8oX58oTW5S56bW2o2vaJN3jW3P619ptyLUsusVzhoj/2M1uamzmlrrNr5y2pH0+le7pYiWOu1Qtprqf2VrRexer9PuAgAAUA6YwMI0RzG1NOLi4uwayqZJ9pQpU/T3v//dXmeYvvXWr19vjyZovsg0X/w9/vjjdtPuUaNG6Te/+Y1uuukmXXnllXafFSWlNArBBw8etMtZ5jreNLMvaohTWk16CiOQste5DatZl7rZys46oZq1amvz5xvUqXVLtYmqqrDP31LEF+/oyJrXlL4uUTp2QtVq1NTl0R21OvlLpWW7dOTrTd6uArKO65j9s/SoVrUsrd1VS8+ui1KYK+9a9EaofsEbtKDDFERNnxwm5DAdtphmBqYAamoXFDSVFVNLoKDJNPswNQxMx5Ym7DAdfZYl03GPeS7ffPONs+Z0P//8s/3B6G8qDeZDy5/cQUVOXbt2tW8TE60/5lxeeeUVezxt87pyMh+Qpv2X4bt/biXTdu8S3fHYAr325qmf45uvLdC0kT3V2NnDp/VN4zX35ddO/czffE0LxnvrHFz4q8fsbW/6tq1+TYufGGkdPQA9R+tvL7958rivLRivm3I9+CV3PKYFr53ax37saSPV87T9LtHIaTlfy5t6be5D6vmrJ/SatXzPRbWl2hfpHnvba3riV1KTOyfr2UXPasKNTjL81iptPBChzrf/n268wFpXs4muGHa/Yhoc0MZVr8uOLLo2VZQytfurPfZdTjqyQwcypYiolt7lAI7VtWmUlLlbZx7qgPUIEfId6qQmt6ur9ZGyY/0r2qPL9OCcRVo0srO1p/U4I719fMx50NuGpckVwzTh8Tmn+gdZNEfTHux9qmmNpWaXu+x9vNutac7jui+v4dxrdtGwac9a+z2l+67IP0kHAACVk/mi0hTsf/3rX6tv3752TW1TvjDlJtNsxTB97Zma2aYw+/7779vrzBd4ZuABM9qiLyjp37+//SXogQMH7H1KQl7X8iXJvDYzmoxpZm+arpvXUxQm9DGDGORXzihtgQRFDSKr6kS2R7VqVtGBDI+Svtin3913n65q20wu92FVt8owYS6PqtWsJdPzYfXwcH3zzBP69J23VNUqm3qqe78E3rJpizxhVc0vTVWOH7P2D9f2zHp6/8dTzcn9CWaYZcrPJryaMGGCunXr5qwtHUEbdeWuu+6yUznDNFMwvemaN20gkyl0lYWYmBg1adKkwMkM4eorNJsONc2HUFpamr1c2m644QZ7+FZ/oYBhhpQ1Q1D5m0qDeW7+mFoZ/tJaM4TVbbfdZncq9NJLLzlrTzEf4GbaunXrGcc2vxtzYjDNd5KTk521pzPHDVj7Pvr1pfW1/1PfqCuX6KEFkzWgc239vO0/eunZl/X2tiNqcm5nXXTpFbqk8TYt/8Q78kvjXz2hv93XTfWP/KB1bzyvxW9sUkbts9W4eqqWv/eVLr9rmC7VDn286hW9/MY6/Vizrbp2vVQXtfhCr/13r32My2+5S22sfXyjrrTv82tdWr+2WsdaJfcv3tCixet0oOG5atOmgy5tf0xL3t5s73fJQws0eUBn1f55m/7z0rN6+e1tOtLkXHW+6FJdcUljbbOOZ57lr56Yo7u61tSexOf19JK3te1IE53bsqa+W/C8Vm39TPsbdlX7mjv06uPP6tX//lfrNqTq8Hm91Kt1HR3Y8o4SvzE1iHbpf59kql2fXurR6ybdetO16tqyhnatmqHpb/1kPx9dco1ua11Nuz56R/87LaDYpXNjblXrBpnOSCUFH+uSa25T62q79NE7/9PphzpXMbe2VoPM3Xpr7akxTzoNGaI+DXZr7d/e15YTP+vbrzbqs30N1LVjhHa8MkvzV3ykjz77RvsPnVCHW29XV32jte+8qlfeTNIP1Vrr0q6Xq11Ukt774pBJeTRx7LVq7v5Kr85fpBVJP0gtO6up+y2t2SQ1636T9fvZr8/s19JKd078g3o1z9TG+Y9o9sc5a6kAAACcYmowb9myxf6yzten3Jo1a/TMM89oxYoVev3110/W3Db9HJj+6cx2c7170UUXnbyPKQ+YIVZLuga9Ke8Em2mybloAmKDHlLNM7ZVAmdElfaPDmBFqTFmgpEfKLM6oKwXVmLgxupZqhLm090g9zVl1WEdPhCv6/Jba8forch88pF/qNVaVrGx5rKK7y5Mtd5UqarHzK53jPqgLr7hK5w74rbbv3afFzy1WWNVqCju3k2rqmDwnjql6FY9cVatr707rujUPwazRYZpZXXzxxXbZz4RypnPSCj/qyrp1604mgKZw6Rv+J5CprJiqYIFOvqFKzWss7FjKJcl8KBSmk02T9pmmIfmNUFKS8vrDyStp9bXLy6s9oEm327dv7/c1+0KMYLXtazx6mK5rWV17PpikQfc/oZetE8yal5/Q/YMm6eM91dWy1126w97zDj06/CLV/vlT/eP+kXpswZvWyehlzR4/TMPGv2bv8dr4Qbpj5Hg9YW97UwvGL9AXP1tl6dbeZjt5ql1fP68aoWGPLdCb1jGfuP/P+tQq8Vdvcam309DGozXsupaqvucDTRp0v5542XqO9n6DNOnjParespfu8j5Jta5XW/r5C82d9rJ9snz5ifs16KHH9cneL/WJtbznmNnrmPaY17nmE325V9rz4iT9fsjvNfUtp+Be8wo9+Kd4tdMP+mD+DM0wnYN+dUBN+0zU5Dtz1oU4oHRvhZu8BXqsA+kq6FBel6lPu6hTnZDqiPakfK2v071/u8fTrfmvv1bKHu9r+d/fx+vhqfP04uoN1voNWj3vX1qfbp0wWzt/Ky2bqkG149qx6km9tcG6r92HyEOa8bp38ymt1Pv/7leflpna+K8/6klCDgAAUADzJeSkSZNONts2fXOYPutMk/ncBUPzRabx29/+1v7C1ZRHTP8dprZpsAuRwWReqxEZGWnfFpWpRVCRNIzupV11rtCCz+srde8RHT6wX5/On6tP//uxGtSqqSxT4cL6vWYdPWwVko6ralh1ba7bUl07d9K34ZFalrhWT858SllHDsvT6DxVaR0tz7Ejqlo1TC5r3yzrPvkJZo0O04GujwmISqOGkE/Qgg5TgDDDf5oXYxIcE3yY3lYDmcqKGZY1kMl0BmSSRvNBYoZByt2MojSZUUlMyhroH7SpDmaGmY2OjnbWBFdeQUdeb3LTBMUwH3CF7VPDVN8zSrK6Xk59W5t2Edv1ybTcY5d/prlb7bRBl95kLf7qUrWobu35yWy96a2c4Udr3TR6mv5m/Y28/NqbevPNR3VpfWdTvn7Qjtk5D/qlvth7SKpdzzqipW9r2c/yk2nWszrdZ3O3ao+qq4X9JK0T6n7rfvUv1cN/e0i/utBp07J3r/J8yn70vD9enaPS9dGsSXr+YxMcfKwX//JHvW6PhBKfYzjXCEXkVWvu+HGZj9+Aj2W93/M+VI4P8p691DoiRyekBYrUZTeO0P9NnqbH5zyrZ58dpxjvW8rrh91KP15N7W6drGG9O1l7G0d0JFeO0e7B+xXfTvpqyd/05BrvCRsAAKAgpkxhmnD4mmP/6le/spti5GZql//xj3+0b80XfWbUxWDViC/N/ht8/R8Wp6a8+bLU1PyuSD766pBeTTqkKtWqqlbYCaX/ckD7vtqsi9u1VpUmzXTsp71y1aqtuhddrGpnNZDr0AGl1W6kJ36ppuc2bNeK5e/o6P50eSIbqsolN8oV1VT7j3p0MGWLso4c0vEjhajRXsJMsyTT76J5T5t+ZUqjzxefoDZgMv1GmLDDvCDT7uzCCy90tlRcpjBtahQYGzdutGt3lCXfMD2mWlAgfAFHaQ3vk1e/GHmlzaag6kuyO3bsaN8Gyvfatm/fbt+WtHq1qkuHDp/eZMKx95hd/UEyFU1a11NtHdLhH/KKDH6laS/P0wN9L1JjHdaOTz/Wquf/rI/9HTi3Q/uVb6OjerWsp2A9tv8nKe+z9NaGee2hP2u+qeXR/jrdM+vfenPxExp5eiceBeiizk0jpPSv9OZpFbGO6K0du6VqLdXuZMUhP/1nWPdvEGXd2DU0CnGsiCg7zDlNlwbyHspX16OwnZBepvuemq2Rt3dWg2oHtCPpI73+rxn6KGdlrT0vasbcN/XVgQa6Mn6MZi96SpPvuswJPBzV2unKztYzMY+7uuxqpwEAgIrJNDv529/+drIZtgkzcjO1l321HqZNm2Y3ewmWkunjLn+NGjVSv3797Obpxmef5f66LjDmfrNnz1Z6erqzpmJIeOtrZR07ruP79+nI/p/kcVXVT3Ubq97ZzfRp2kGFNT9HLQbdrUb94tQi/neqf9kVOvZLmrIyD6lGFY9q1aqhE807qsq1QxQW1UierBPynHOhftn5nfZv+Uxp35Rtj/wfffSRXeOotMvNQe+pJWfYYRLJihx2lLeQw/jkk0/scKB79+4FjgJjfvam3Zup7maGYy0NeaXAeTVNMf773//at6avjkBTZNO3i6mtYjprMrVu/Dnt2/4iOGxSgtq1/NYmaGw3pTmmY6Z2lndH1cqr2sHIPrq0/jFtf3Wo7hh2v8ZbJ6jZL5dQraD8HrtxdTviOGY/SeMzvfzYMP2q9wg9/tLH2lP7It328GMaGXDWUU35V7qxtpv0Yf1upStCDdrl6pCzZjs76EjfbdpgBnas9butE1dEA515KBN0pJt8weu0TkgDcGMfdY46rq+WPKSHx/9F855/Xm99fMA87GmObFimv4wfpXseMc1qjqtpr5GaOCJHh8THv9IrZtjcpr10/4M9Tw9BAAAAAuTrc+Krr+yO4uxBEC699FJ7PjU11b7mNXz7BUtp1OgwX1aaTlRN03ZTRilqjYyXX35Ze/YEdOVXrmSk7VH6ti+07+svlZV1wu5sdLunmp7Z/L0y28WqVq+BOnLwiLIyjyssqo6a3HKr6t5xn1xX/lrZMbfJc/VQVb9mkKpGNVD2iePKzs5SWP3myq5dV27reIePl15zkfIk6EGH4Qs7jIoadpTHkMMwbdlMQmZqSJhhpXr06HFG8mo6/TQfjHfeeae9X2kmankND2X6Fsmr6tKqVavsJiymwxozJG5OpglUQkLCyTZ8hkm67777bnt++fLl9rH9yWt9oF79ytQUaaPLx+fuCfoSjWzfRPp5h9aYVhKvfiV7z8vH+x9FxdQM0TEd3pOjxsclt6l1XsFIYeTz2JeMbK8m+lk77CeZ0w6tWvCYhn38g1S9iVpf7qwu0Eb9sPu49cfRTjfl7I7DepQ72zW1bndrxwfWzdcf6YcDUtPO8aeNYNIqvqtaKl07PvraWgrsWF9/9IMOqKk6x592JMV3bSml75B9KEun27uqaaa17O2cw7+cIUZUNWvxuI4fyLF/q5vULmfTlRyO7DHNal7RV5nWU256esB44MUZmvXBD4ro/Fv96cErFNzLDwAAEGpMgf+8886z502occcdd2jGjBm65557NHnyZLvWs+kmwLjgggvs22Ap6lCvRWGu403Hq5XNoYwDOpC2V2FVrTJcWFVVvfAae/SUai07Kvzs85WxZ5+2f/+LUr74Wjtee13/+8NIpf77H3K16aKwtpcprEFzKeuYHXJ4qljHyM6yjlNNrtpn6ViWR8c8pdf8yB/zHvJ1MVCavCXiIIy6kptpc2aGZTW9CZuaB6Yn3L17C9MbQNkpryGHj/lZml6KTa/L5nmanodbtWqls88+2x5q6tZbb7XDJdOG74UXXijVdmvmg9rXYVJupkNRf9XhTG2PH3/8UZdffrk9PHGLFi3sWhpmva9Xal9v0qYX33HjxtmjtZhOnP75z3/6bRZjQhXTAU6h2oXlGnXlcNJeNe4Zq+joXupz6dmqfqS6Gsb014PjhqhrkyP6YtFEzf3qsNlRexv3VGx0tHr1uVRnVz+i6g1j1P/eBzWsZ5iWJ0Wp7xXnqVnri9TwyDE1iB2sccPbK+pYTeuYp0ZZ8T/qyn59+vIqebN9L3u99fg7Fi/XJ3k99oPjNKRrEx35YpEmzv1KZryahxa8pmHdmqhmVk017HiNfn/tpWpWfZc+efpNfWbt0KTnbYo9r5latM7SsYtu1y0N1ijlksl6cky8Ljr+HyV+c0Rbfm6mKy9vq3aXX6l2ZujyRjG66beD1KNlDR3Y+LL+tjpVJ2S9P+t1VQ/r7z6mawMdP5Bp14QY2qu53BuXaNYbZp8TgR1r3w+q17WH9RkSo64NjutAZlP1GjlUvZq7tXHJLL2RamoK9dSQ38Yo4oc39Y+Pv7OWc6l9kXpdeZ6aN21gfS41VZ9etbVhYwP1urylmp7XWlnpP6t251s1cmhnRRyvoRqZO/SGGVblsvv0+AO91FSZOlotSu363KzL29XXoa9e1+rP9uUYdeW/+vKLJP3c+kpd3vlyXdk6XR+uNa8RAACgYK1btz45cIAZudJc3/uumaOiouxrZHNr+rMzX+QlJSXZ24LBdHaa1yACJcW8XjOZ5jqmDFBYvlFXgjlyZ3FGXTHyrRljbfO4qqhWzRqqYpVjal14lY53uUnVzu0oV3hNndj7g8LeWSj3y7N1/D8J6lK1pi7ynFB67Xo6UreRXMePWve33h/W78llFXVc2ScUUbuWqn7/ufbt3qXssLyrTZuyUTBr7Zga92PGjLG/jDe1kjZv9o4SGUy+UVdKLegwfGGHKZCbN3JFaT9l/nBM2GE6Hi1vIYeP6ZTUdPJi2uvVq1fPHlrp3HPPtefNH6MZoulf//pXqY8Q4ws68goY8hohxTxP85rMh7sJOswHmBk+1nwImmGLzTCyt9xyi91Jk/nQMSHHzJkzT1bjy818KOUVuPhj/9G3vy7X8LI/6pOkH1W7RWvrhHOxuvWKVWzXNqp57Ft9/Mxjmrg81b6v8eMnSfqxttmvraK79VJsbFe1rH1EqUkrtWrZezrS4hJd1OECdeoWq25tq+u7t5/U1nrXnhZsFCnosJa9j91Cra2T4sXOY7epeUzffvyMHpu4XL5n2aLbbbr00ovULdZ6Hd06Kcq8jvmP6a8bvMP2frcpS+0v76oLOlxqP8e9772mz+rkGl5232f66Kvjatm2ozp27qqunVuruenj4qN/aca8dXagYhzalKRt1Vqrc8euirnySnVtHab961/V3NlrdLK7qYCOdUibkrapWuvO6tg1Rlde2VWtw/Zr/atzNXuNc6Ted+i3Xatpy7/m6X/+Rhb7abMym3ZVx3YdFRPTUdV2f6D33v1Ae6OsY3Zsq64xVyqmdTX98PpcfdWgh1pbvwM76LB+nzEx1vO69HLrca3X0NJ6DV+8qmf/sU6mMdDpw8ueUOraT3Sg9eWKMWFHy3R9+D/CDgAAKpuiFCS7det2sq86c51rruWXLl1qT82aNbPLJb5O+03g8dZbb9nzJc1cx5svE4PNF3SYQnCoBR2+331+7wHzHsmypqrVqqtus+bq0baOVVaI1gGr6BJWxSWXPMp+6XHVOfiTuve4TU2bnKsIa+3RWrW1t2kbVc3Kso/vyc5S1TCPjlaNVJ/IFHm2rtY36dY28yD5PH4wgw4zepD5At4wX8KbIZCDPfKKL+jwvqpxmzxXfjTCni0N5o2YV4G0vDJVbswbu6Iw6asJOUyvxYUp4AeD+TDw9xzMH7V5jvlViTPV9kyTHBNu+GOOa3ryXblyZZ6/H/M4ZiSWwvz+inJSQnlQU/0nzNZNER/pkfHPB9Y/BwAAQJAU5ZryD3/4g10b2xQI16xZo9dee02HD/u+PvLW8jDNWXwdlZoRWEwTl5JmymylEXSYb/v79u1r11IvSm0JU2vAXOdPnDjRWVPyzJfIvjJsYb84Lug94Ntuau2cf3l3DW7h0S+N2unjs6/TtpS9qhlZR+7PVuns5c/oyov7KNtzXFdd1FSvhbfQqqgLVUdZ9hC04bUjVKNmLUW7N+iSn5bp8WU7tGt/tnmAPIOOYJd5TD+Spt9Fwww1O336dPsxg+mjK+dJMzo5r6qUgw5ULuZDOucYyjmZZNQk0QVp3ry53ezJ1O4wiaoZ4tf0/WJqsfiaseTFNNkxU2EE+48eQdLkLk2bfqUy3xytqfn1zwEAAFAOmetPMwynqQX/3HPP5dm5pikUX3fddXZAYPqve++995wtJcd8IemvmXlJM2HKiBEj7NrbRWV+BqYvv2AJZtBhc8KIpk0baljHs1S/6nEduTBW25v3UtJul345IdV8f7Fu2rlNvW+8TDUjpIcOtdO++uco/PgR1axRVS3CM9U9K1nnHf5ET674QV98dyzfkMMojTKPqaFkWh3873//K5XWEQQdKFWmc9G8AomIiAh7CgbTbtHU5ijKHzBhBwAAAIqqKNeSdevWtWs0my/zAmG+MDQd+Bd1SNa8mObl5stFeJmyivl5mDJNYb9ANQrzXmhcq6oGdmuuuh0uU3rtZnIf2aPPszvrW08jnfvVWv22UaY+9DTWh3Xbq9aRvVKVMFWpXV/nH1qnjmmr9fq6n/TtPrfd5MV6VOeoZwrVsg5BB0pVfrU6DJPkmpS0JJlOSc1jmj9iAAAAoDRV5IKk6Tgy2J2QVjaBvB98+4RXcynq4uuk8y9Xz6prdaFrs7afOFffVzlHGQezrHJTFUW4f9LXdborrP45OpL2gzK/fF8/f/6Bwuxfmyn/hF6IEQiCDpS6vPrq8DHJsQk8SuJD1dTkMIlrcUOOinyCAgAAQNmoyNeQpdU3B/JyKqSoUquuaja/QLGN9+iiJodU3SomVa9RXccPZ+qtE720zd1MJ3Z8qiPfbVa229uPS2WtyeFD0IFSZ/6oCuoU1IQcpg1XUcfsNo/h65OjpP6ACTsAAABQGZhrcNMchmvf4CnLsoV5bKMyBB3UR0KpMX9QJsTIr1MjX3MTUxvj+PHjztqCmfuZcMPc13QSVJJ/vL5j+T4YAAAAAH8q8vWi+cKRkCP0VZbfL0EHSpX5ADUd+eT3B2a2mY5LTe0PX3CR10nD1A4xTWJ+/vlnO+gwgQcAAABQWnJep1bUQqR53oQcpcP8jMsqEKtMv1+CDpQ6UyXO9CgdSPMU04mpGTf8p59+Unp6+hmTGaIov34/ShIf/AAAAMitol8jmtrWpTWULLx87xlqjAcPQQfKhPkgNalx9erVnTUAAAAASpO5FjdfQDLCSmgyQUplDVN4R6PMmCTT9NlRu3ZtaksAAAAApcRce5trcHMtznV42QlmzQ7fMSvr75egA2WuRo0a9ljdZnhZqm8BAAAAwWGutc01t7n2NtfgKB+CEUaYY1bmEIugA+WC+SM0nZSaqnOmCl1l/qMEAAAASpK5tvY1UyloYAAgFBB0oFypVq2aXYXurLPOsj+ETeJsOi017Qb5QAYAAADyZ66ZTX945hraXEuba2pzbW2usc21NiqmnDXfqQVfMG/Jcdwmz5UfjbBnAQAAAAAAKpqPrpwnzejkokYHAAAAAAAIGQQdAAAAAAAgZBB0AAAAAACAkEHQAQAAAAAAQgZBBwAAAAAACBkEHQAAAAAAIGQQdAAAAAAAgJDhsv8dt8lz7YYH7VkAAAAAAICK5j9dnpRmdHKdDDo80zvaswAAAAAAAMGWkZHhzJWMqOmpdtBB0xUAAAAAABAyCDoAAAAAAEDIIOgAAAAAAAAhg6ADAAAAAACEDIIOAAAAAAAQMgg6AAAAAABAyCDoAAAAAAAAIYOgAwAAAAAAhAyCDgAAAAAAUG799re/deYCQ9ABAAAAAADKJV/IUZiwg6ADAAAAAACUO7nDjUDDDoIOAAAAAABQruQVagQSdhB0AAAAAACAcqOgMKOg7S7733GbPJ7pHe1ZAAAAAACAYMvIyHDmSkbU9FRpRicXNToAAAAAAEDIIOgAAAAAAAAhg6ADAAAAAACEDIIOAAAAAAAQMgg6AAAAAABAyCDoAAAAAAAAIYOgAwAAAAAAhAyCDgAAAAAAEDIIOgAAAAAAQMgg6AAAAAAAACGDoAMAAAAAAIQMgg4AAAAAABAyCDoAAAAAAEDIIOgAAAAAAAAhg6ADAAAAAACEDIKO8mzrIvW/ZbQmLVmp9Snpcmc561GObNWcW/pq4MOztfTjnXI7awEAAAAAZcNl/ztuk8czvaM9i/IjLWGEYh5J9C40G60VH9yt8v5bMs+57/NpatM2Rl279NHv4qMV6Wwrv5I1rW285jtLka3aq0WEs3CSW6mbUpRhZmOnKGl+nBqatYlTFT18iR1wtLFuV4yNVrjZBwAAAACQr4wMu4RVYqKmp0ozOrmo0VFuHdTaRCfksLToH1vuQw7znNd/nKi0rVu19o3ntHx/eAUIOc6UkbJVmzflnpyQIyd3sp6e5g05pBhd18Vtvf4krfU3bTto7wUAAAAACC5qdJRX+1dqZMxYvessBqTVYC17day65qyNsCdBQ2Mnao2zWCgRsZrx5jwNaOYsF8SdqEmdR2ixvdBcY95YpVHt7YVyLkeNjhse1gsDOthr0xJn6oFFW6253hq/KN4bNNVopq4XN1e43Fo/M07956eYtQUbvkQpY6OdBQAAAAAANToqmdS3lxQu5DBSntM7XzrzJSEzUZ98GXhNhIzVCU7IYezUrFs6qFXb/KYumpRYznq1ePtxDRwyxJ68IYexWtOcdQP/nCjrT0epCaM1MNCQAwAAAABQaqjRUR65kzXt+njN3+Vd7HrL3ere3Dt/hhO7tOaZldpsL8RoxgeLTq+BkZGsxYs+1D5nsSAZW9/U4vd3OkuxmpE4TwOaOIv52qnFA/poUrKzGKhyUdMhR42OPJ7P+pkd1N/sEDtBC69O1MjHEr1NVvzVogEAAAAAFChYNToIOsqh0zshtQrS71gF6bx6uExZon7XT/UGHRF3a1nyaHW1NxTN5mf6qN8sJ+joNEGrXo1XG+9S/jY9ox63zbZrOygiWgOGxNiddZ7poDa/vkRrnBCn58xELby1gXehzPhvupLT5qVDNO1tayZ2ij6c3lDzB43Q4j2FbNoDAAAAADiJoKOy2L9aD/QareWZ3sWe0xO1MC7vICDj7bGKHr3SuxA/T1sfiy3GqB8pWnxbX03a5F1qMSZBH94dSCcb6Vo6PFbjnGym62OrtCw+ryooyZoVHa859usrL/14nD7qSr58YdKuJK1VtJqnJWvnYWdbHsLPjVbXZozFAgAAAAA50UdHpeDWmtljT4YcajVaYwqo7bA52Qk5LD07dyje0KYp67TUCTlMCDHgisASCHfiPE3yDRDTbLDGx+UVclh27dB63+tTrDq2cmbLC9N0ZdsWe0qaHuusHKxlzroUX42ZZjHq3uyg1j7t9N2Rz/T0OkZcAQAAAIDSQtBRjqS9Plojl/g652ylUTMGq2OYs+hPVrI+eNmZV3v16lK8JiCbVz/n9PVhaRannp2c+fxkJmnWJN8Qq+G6eezIvJvZWDK+NDUhHFdHq2N5q+iQMEH9bouzp6Gzk3wrNc5ZZ6Y+sbO13tkCAAAAAChfCDrKi+8T9H++Di4tbUZN1b3R4VLWVs0ZEK9JCVuVkeVs9NmapHd9tSM6xal7cWpHuJO0dK6vE1Kp6+9u8g6nmq+DenfCiJOdpoZfPUFj+tTxLvjl1vqkUzVQusZGn9GPR5r1mtZ+nKztew4qY38JT3tStP5j6/jb8qlhsT9Fmzdt9U57fL+Ng9ruW2dN20+ub6AB852aHvlM+TU9AgAAAACULProKA92JWjoTRO1xgktwq+eolVz4tQizK31M+PU3zeMab0YjZk+UYN6tFJkmBkJpIu1zVvozr9fjIKd1gFqRF/N/WCmrqvnXcxLqnWfPtZ97GcQEUDHnO5ETeo8whmCNlqTVy/RoHPsBcfpfX0ETX4jvaSt1ri7552q2VJUHUZo4dTeeXTICgAAAACgj46QdVDrX0/Q2pP9cgzWC0+akMOad+9SmlVUjvRukfYnadaIvoq5babWpKzWGyebuUTrliuKHnKY5if/fPpUutBm5JCCQ47XR6ufL+RQuHo+NrXA0UcyVic4IYcluq96nhZylBNZGdqXo/ZGkac9JfsHCwAAAAAIDEFHmaujrqOWKOmNKRpwRbwWLh6rrhHOpvBWum7sIiUnLtHkAe1PdjTq3vqchl4/Wot9NUD6DtEtRQ4N3Fr/zyknm5+Y2hxjrMfK30Ht3LrzVDOb4Ys0t6AhYrNS9Mbzq50F6bq7+qmFM59TjarOTFmJiDwVLOXomDSwaYmGO3cFAAAAAJQNmq5UIGnrntEDo2dr7X5nha25xry6SqMC6TjUD/fnM9Xvzue03Vk2naAOfzFB4y8uuJfQtHWz9cCLzTXDVwMlH+7EqYoe7nRaGhGvF5ImqHt564jUlmOo2ei+GnVFAdVUTrNLa+es9HZUGjtFSfPjaLoCAAAAAHkIVtMVgo6KZv9qPRAzWsudxfC+s5X0ZO9TtRAKI9Mq1N9mFeqdLkBOCqS/jcJwJ2vWLfGa4zxO14krtWxQeRtX1idH0FEcBB0AAAAAkC/66IAt9f0EvevMm0Bi8pgihhxZO7X0wSGnQo6IaHX31eLITNS4YTO13tdvSLG4tX72hJMhh6nNcW9ceQ05cqHpCgAAAABUONToqEDsDkDHrpY38wpXz+krtDCuCJ2QmpBjVD+Ne9/Xy0a4bp6dqKe6rdMDvUZr+cnRX2YqcV7fYtVKyPh4pvoNeU6p9pLzODfkNwRtWaPpCgAAAACUBpquVGpubV8yVv0f84UcpgPQJVoxNvpkB6UBy0zR4gfjNClHyJEzMHGvm6k+d50KJoocplhy9/9RrGY2peW0IXCLgaADAAAAAPJF05XKKmunlj8Spz45Qo7IG2ZqwZgihBzfr9S42/qeFnJ0HbNEc3MEGeHdRmvGEN+yW2semaqlvhFZCiEtcerpnZyaYXOnlvOQw9if5oQ8lnqt1LFT+0JMrcr/6wMAAACAEEfQUY6lffyMBl7eRw8knOottM2geVr9ZN8CRzk5TdZBbU6YqH63jNXSk4eqo+umr9Cyu08NW+sVru6jp2j4yRYbiRo3KUGpWc5iQazHWj9/iHoPX5Ij5Mg1bG5FsT9FmzdtLcSUcjKMOinQnxsAAAAAoEQQdJQ3WW6lfr5EkwbEKGZIzqFkW2nA9JVaMTFWDQsRcmRsTdC422LV75EEbfZ1LhoRrTFL/3NaTY7TRMTo3rF9TwUgiRM1KWGns5CPPUma9ZtY9Z+ZdLLAH97+br2wdIJ6VpQ2HE3itDBHB6MfmlDJ2STFakaisy1xino6a6XBWpbjPvbkNFtJTRih/g8v0vJN6d5dAQAAAABBRdBRbri1feVUDe3VTT3unKrFyQed9VLkFaP1QuJKzYhrVYjmKul69+EYRd8yUUu3+pqqmGM9rGWJSzQqOv8OQSNvGKvJsc6CZc20qVq+x1nIbf9WLX0sXtGxQzTn81OP1SZupla9OlrdK2B7DveuZC2eEKc+D67M0V/JBA1oYi8EyK0dGxK1/o3H9cBtM/VuyTY/AwAAAAD4QWek5UlmsqbdFn9qyNd6MRrz5OMadUUDZ0UhbX1GfW6Z7W1CUpRj5bi/CVvmzrxb3XPWzMhI1vzHpmjWyq1WkT6H4j7vUuVW2qYkfbBug1IPWy9pW6LWfrZV20/WpDG8fZm8kLOZT8ZqPXDJaC23F6ztAwaf/rOxjpu6bqXe/Tzd+7NpNlorPrhb/JUBAAAAgBejrlQWuxI0cthqdRo7VoN6tFJkYfri8CP19bGatitOfxoRU6gmL14H9e6Eh7X9hql5hBZurZ8Zp/4nk5k66j76b3qqSI9VhnIGQrlERsdr/OTRGtA+dw2YFM2/vq+mneo+JR/h6jlztRbeWhGCHwAAAAAoHQQdKJ+yUrR4+AR9fsUI3TsgVm0q5LAjbq15rJuGLqmuNp2aq2HrGPXq1kM9Y6PVpmE+jYX2JGnxvCVa+uUOpfrpiDSyVXu1aN1FA+JHaFCFqN0CAAAAAKWHoAMAAAAAAISMYAUddEYKAAAAAABCBjU6AAAAAABAqfPV6EhOTrZviyM6OpoaHQAAAAAAIPQQdAAAAAAAgJBB0AEAAAAAAEIGQQcAAAAAAAgZBB0AAAAAACBkEHQAAAAAAICQQdABAAAAAABCBkEHAAAAAAAIGQQdAAAAAAAgZBB0AAAAAACAkEHQAQAAAAAAQgZBBwAAAAAACBkEHQAAAAAAIGQQdAAAAAAAgJBB0AEAAAAAAEIGQQcAAAAAAAgZBB0AAAAAACBkEHQAAAAAAICQQdABAAAAAABCBkEHAAAAAAAIGQQdAAAAAAAgZLjsf8dt8nimd7RnUbrWJf3PmQMAAAAAlIVuMZc5cyhNGRkZ9m1ycrJ9WxzR0dGKmp4qzejkIugAAAAAAAClLlhBB01XAAAAAABAyCDoAAAAAAAAIYOgAwAAAAAAhAyCDgAAAAAAEDIIOgAAAAAAQMgg6AAAAAAAACGDoAMAAAAAAIQMgg4AAAAAABAyCDoAAAAAAEDIIOgAAAAAAAAhg6ADAAAAAACEDIIOAAAAAAAQMgg6AAAAAABAyCDoAAAAAAAAIYOgAwAAAAAAhAyCDgAAAAAAEDIIOgAAAAAAQMgg6AAAAAAAACGDoAMAAAAAAIQMl/3vuE0ez/SO9izK1v79+/XLL7/oyJEjysrKctYCAAAAAIojLCxMNWvWVN26dVWvXj1nLcpSRkaGfZucnGzfFkd0dLSipqdKMzq5CDrKiaNHj2rXrl3Kzs7WWWedZf8BmgkAAAAAUHzmy2Qzpaen26FHs2bNVKNGDWcrykKwgg6arpQDJuRISUmxg402bdqofv36hBwAAAAAUIJMGcuUtc4//3x73pTBTFkMoYegoxwwNTlM1amzzz5bLqeSDQAAAACg5Jkylyl7mSYspiyG0EPQUcZMnxymL44mTZo4awAAAAAAwda0aVOdOHHCLpMhtBB0lDHT8ajpk4OaHAAAAABQekwZzJTFTJkMoYWgo4yZznAiIiKcJQAAAABAaTFlMVMmQ2gh6ChjptkKHY8CAAAAQOkzQYcpkyG0EHQAAAAAAICQQdABAAAAAABCBkEHAAAAAAAIGQQdAAAAAAAgZBB0AAAAAACAkEHQAQAAAAAAQgZBBwAAAAAACBkEHQAAAAAAIGQQdAAAAAAAgJBB0AEAAAAAAEIGQQcAAAAAAAgZBB0AAAAAACBkEHQAAAAAAICQQdABAAAAAABCBkEHAAAAAAAIGQQdAAAAAAAgZBB0AAAAAACAkEHQAQAAAAAAQgZBBwAAAAAACBkEHQAAAAAAIGQQdFQS2xcPUZ9RCUp1lovPrTVT4jXu9RRrLpc9CRratoOGJqQ7KwAAAAAAKB0EHZXCTq1dkaTt4ZGKctYUj1vbF4/WyMUZimzRTOHO2uJL1vzb4jTu7VMByfqZHdRqeILSnGUAAAAAAPJD0FEZfJ+oN5Kt25WjFd22g1r5mYa+Hnjti9SE0eo3JUndp8/T+ItLLuYw9m3aqn2ZzgIAAAAAAIVE0FEJbF75nNY3u1svJCUpOdeUNCfe2iNcHc9t4N25AKlLR6jPI0nqPjFBc+OaO2sBAAAAACgfCDpC3Z4EzZq9Uz3vHaju9eooMtd0YM8Ga6fe6tTKu3uesg5q/TPx6jMhSd2nrtDCQa1KsMkKAAAAAAAlg6AjpB3UuzOnak2r0Rpzq78aGwe1Y8NWKTZGXSOdVf5kpmjxg9eq/6xkuXWn7h1ATQ4AAAAAQPlE0BHCUhMe1gMrm2nUjMFqsWqi+k9I0Pac/V+4N+iTlVLHHl3U0FmVW8bWJRrZq68mfd1HA2KdlQFaO3uCJi1J1Pa0M8ZlAQAAAAAgKAg6QpT785kaZvrSmD5PY6LDpXOj1WbjVPXpNURz1nk7Hs14f6UWq7muv8RPu5WsdK2dHa+YWx7Xzt4z9eGbUzSgrXdToBo1kzbPHqE+V3RR9ICxmv9+ijKynI3+ZDmBSJj3BgAAAACAwiLoCEkHtXldiiJHLTrZYWhk+zjNeHW1Ft6aoafv6q1+0xfpn4tWStGDdXN7e5eT0j5+RgMvj9XAJeEaszRRK6b2VYsihA+t+0/Vsk826MMXp2hA/XWaNaKvoi8fomkrt/oPPNJ2art106ZFAB2jpqzU4s+pKQIAAAAAOB1BR0iqo66j5mnZ6OjTOwwNa6CejyRo1ZN95V70uOYkS9fd1U8tnM0+B1LWSXctUtInizQ8uo6ztojCwtXi4jiNn5eopHfmaUyHLZr/YJxi7lxihxpF49aa5ydq0uyVSnXWAAAAAABgEHRUQi16x6lnM2um1Wjde8OZQUabQYv0wqgYNSzhJiSRrWI1alGSkuYN1nW3dlMbZ/1Je3ZqrWLUpomznAd38jxNWyINGt73jJAGAAAAAFC5EXRUOm6tnz1B83e10vA/D1bHMugPo+HVY/VU/Jn9gmTs3mU9u9ZqlF/LlcxkzRr3jFL7ztSYWAa4BQAAAACcjqCjUnFr8zNDNHB+itqMmqoxF5enoMCt9Ukrpdj26pjX08pK15pZEzTfPVgLp/ZWfiPiAgAAAAAqJ4KOysKEBNPj1X9WsloMX6IVufvvKGv7V+vlJdJ1t/bxP9Stef7TBmvoYmn4E6PVPcJZDwAAAABADgQdlcGeRE27rbeGLtqpno+t1Iqx5SzkMJ2Lzp6od/PoM0Q/J2nW8Ju8IceLCRpfrmqiAAAAAADKE4KOULYnWYsnxKl97AgtVl/NeOM/mhvfqtyFHKY5zcglzTRqRh59hmxaqaVbumnySkIOAAAAAED+CDpCWdYOffJZQ907b6WSXp2iAe2LOVRsMGSlacd34Row/zmNiT4zxIhsGq02N0zQitWzNagtIQcAAAAAIH8u+99xmzye6R3tWZSujRs3qnPnzs4SAAAAAKA0USYrOxkZGfZtcnKyfVsc0dHRipqeKs3o5KJGBwAAAAAACBkEHQAAAAAAIGQQdAAAAAAAgJBB0AEAAAAAAEIGQQcAAAAAAAgZBB0AAAAAACBkEHQAAAAAAICQQdABAAAAAABCBkEHAAAAAAAIGQQdAAAAAAAgZBB0AAAAAACAkEHQAQAAAAAAQgZBBwAAAAAACBkEHQAAAAAAIGQQdAAAAAAAgJDhsv8dt8njmd7RnkXp2rhxozp37uwsBcfBw5k6nHlU7mPHlZ2d7awFAAAAgPKpSpUqCq9eTbUiaqhOrQhnbXCURpkM/mVkZNi3ycnJ9m1xREdHK2p6qjSjk4ugo4wF84/q2PETSv/5F/tDwnw41KhRXWHWPAAAAACUZ1nZ2Tp69Jj9pa35srZB/bqqXq2qs7VkEXSUnWAFHZR6Q5QJOXbv+0m1a0WoScP6dhJKyAEAAACgIjBlF1OGMWUZU6YxZRtTxgECQck3RJmaHPWi6iiydnCreQEAAABAMJkyjSnbmDIOEAiCjhBkqneZ5iqEHAAAAABCgSnbmDKOKesABSHoCEGm49Fgd9gDAAAAAKXJlHFMWQcoCEFHCDKjq5iORwEAAAAgVJgyjinrAAUh6AhBpldiOh4FAAAAEEpMGceUdYCCUBoGAAAAAAAhg6ADAAAAAACEDIIOAAAAAAAQMgg6AAAAAABAyCDoAAAAAAAAIYOgAwAAAAAAhAyCDgAAAAAAEDIIOgAAAAAAQMgg6AAAAAAAACGDoANnWD+zg1q1LWgaoaV7nDucdFDLR5ttfTRnk7MqLxkpWjN/rAZeH3PacduPXqk0ZxcpXUuHW+uHJ+RY58hM1rTrrW3Xz9T6TGcdAAAAAKDSI+jAGdrcukgvLDo1PTWkvbW2t8bnWPfCohHqXs+7/0n7P9Tbb/fVgLg0Pf1aktzO6jPsWqmRvftq6NM71LBHvCY/aT3GY3dr1Kh49azu7JOfrJ1a+uAQzd8TqxkLxqprhLMeAAAAAFDpEXTgDJFtY9T9ihxT24bW2mbqmnPdFdFqEe7d3yf17SV6NzZGw/vGSYtXa63fpOOg3p01Vu+647UwMUFPPTJag/rG6Ob40RozeoLmPt5X5tHy5tb6WSM0bl17jfn3bA1o5qwGAAAAAMBC0IESslXL/5msnjf0UJtLYjVAS/Ty6oPOtpx26POV1s0l7dUx0rumMFITRmvgfGn4gkUa1SlX0gIAAAAAqPQIOlAyNiVq6a726tWlgRQeo17x0rvPr1Cqs/mU5moTa918tlWbC9m3Rsa6mRr2SJK6T5+n8RcTcgAAAAAAzkTQgRLg1trX5im1U5y6tzLL4eoa01dKXqk139s75NBAt4wcrDaZSzT0tolauslfrY8zHfh8pvrf9aKaT0zQ3LjmzloAAAAAAE5H0IHicyfrnQS3WlzXRW2cVZFX9NbNStb8lVudNaeEXzxWy5Y+rO77EzTuthhFD5iaf+CxY5HuGfacDgyap7mDWom6HAAAAACAvBB0oNgyVi/R4szmGhBrRmdxRHbT1TdIqf9cofVZzrocIqOH6IVPkrTiycHq+P0Sb+Axeom2+2vO0iJWPbuFKy1hkd7Y5awDAAAAAMAPgg4UU7reeX211CxOPds6q2x11D02Vsp8UW+sy2Og2bA66th3rDfwmB6nRm9PVb8HE5SaOxip3lq/e3KRhjdJ1LhhM7W+kH17AAAAAAAqD4IOFM/3q7Q00brdNVv92ndQq7anpphHzAa3Fi9drQx75zyYwCNuihZMjZX7/ama7y8YiYjW+AVT1HPPc+p/G2EHAAAAAMA/gg4Uy+aVz2m9ojVq9iK9sCj3NE9jzAgrb6/Wmv3e/fPT4ore6i63Uvfk0V9HszjNXTBYbVKe00B/NT8AAAAAAJUeQQeKLmur1izbKUX31YAbYtT9itxTrIYPiVe4Vuv5t639bMla/EyyMvyEFKkfr9Zaa+825zZw1pzJdGS6YHqs9P5EDZuVrDwaxQAAAAAAKimCDhSZe12Cnt4lXXdXP7Vw1uUW3i1O9zaT1v/zTW121qXOilf05X018rHZWrwySWsSFmnag3HqMyFRkTdM0e8udnbMQ4u42XpheCttnz9EA5/ZStgBAAAAADiJoANFdFBrEpbIrXjd0buOs86PsPa6+XfR0q4ErdlkVkTr3nfmafINrbXz/ec06cEhGjplkdbub60x81Yq8cm+amjfMT/h6jpmnmZcLa2fFa+RCb7aIgAAAACAys5l/ztuk8czvaM9i9K1ceNGde7c2VkqGd+m7tZ5LZo6SwAAAAAQGoJR1glGmQyBycjwDluRnJxs3xZHdHS0oqanSjM6uajRAQAAAAAAQgZBBwAAAAAACBkEHQAAAAAAIGQQdAAAAAAAgJBB0AEAAAAAAEIGQQcAAAAAAAgZBB0AAAAAACBkEHQAAAAAAICQQdARgqpUqaKs7GxnCQAAAAAqPlPGMWUdoCC8S0JQePVqOnr0mLMEAAAAABWfKeOYsg5QEIKOEFQrooYOHs50lgAAAACg4jNlHFPWAQpC0BGC6tSKUHZ2tjIOEXYAAAAAqPhM2caUcUxZBygIQUeIalC/rvYfOEjYAQAAAKBCM2UaU7YxZRwgEAQdIap6tapq2ugsHTqcqT1pP+tw5lE6KAUAAABQIZiyiynDmLKMKdOYso0p4wCBcNn/jtvk8UzvaM+idG3cuFGdO3d2loLDtGUzHxLuY8ft6l4AAAAAUJ6Z0VVMx6OmT45gN1cpjTIZ/MvIyLBvk5OT7dviiI6OVtT0VGlGJxdBRxnjjwoAAAAAyg5lsrITrKCDpisAAAAAACBkEHQAAAAAAICQQdABAAAAAABCBkEHAAAAAAAIGQQdAAAAAAAgZBB0AAAAAACAkEHQAQAAAAAAQgZBBwAAAAAACBkEHQAAAAAAIGQQdAAAAAAAgJBB0AEAAAAAAEIGQQcAAAAAAAgZBB0AAAAAACBkEHQAAAAAAICQQdABAAAAAABCBkEHAAAAAAAIGQQdAAAAAAAgZBB0AAAAAACAkEHQAQAAAAAAQgZBBwAAAAAACBkEHQAAAAAAIGQQdAAAAAAAgJBB0AEAAAAAAEIGQQcAAAAAAAgZBB0AAAAAACBkEHQAAAAAgM2jV2Zla/leZ9Gx991s9X/eowPO8pk8+nBBth79yOMsF9OWbD20wKMvDjvLue31aNjYbD3/nbNcJNZrnWa9ruUl9JyBcsRl/ztuk8czvaM9i9K1ceNGde7c2VkCAAAAEDymcO/RsFxBhqJdyhjiLRp98ZJV+D/o0sbfuVTDXuPR85M9+vp6l/4c493nDHs9+o113FvGVdHtTZ11lqOHPXJnSeG1rWPl/Io526MDh6zbMCmqlp9jOse7f3YVXeasOsWjVbM9GpMqNe7o0krreXufZx6OWI913JnP5Q3rOKs6uTTnGmdFbnk9v3xMf6fkgpOW9aSBef3MSxBlsrKTkZFh3yYnJ9u3xREdHa2o6dYfxoxOLu+7hqCjzPBHBQAAAJQjv3h07ySPLhtbRXc1s5a3ZOvKV6QXJlbRObnrw5sAoZpHHz7j0d8bubTsVy4d/TRbo75x6cl4aZW/UCWX//gLM/IJOr5/N1vXfigtm+zStr969ExDlxJ+61KU37r6Hi2faR1rl7NYWI1d+ma8S42dxYKMXOLRC0klW0PEBB1z44MbdlAmKzvBCjpougIAAACgcjiSRyHcWX80w6MDVgnpd8NcusWumeHR8relHte7dI7b2ma2u+1dLda2v2ZrilW4n/K9NPEWqzCe7dHSt6xNZ0lR3p00cVgVZcy2pvEu3Wwtm2Aj53JhfL86W30/lOY/VEUXVXPp9odcuv9nj66cka0vvOXFXKzHGOs83hmTSwsaSzff6PKzzZkKEXIYP/xU8s1g/vtNyR8ToY+gAwAAAEAl4NErf/UocnT2mdM4a9tej/4+0aMW1nTVAuv2D2abR7/5Qfr7Eut+1j5m26g1voK3SzcPdOm7T6V217h0kVWyOvCRR1OsLX/sHWANBOs+4c6s/fymOc9nmkfLrTXXOvN7sz12k5prP5Bm3VdFPep776Eq1nP4g0vLOkm/mZStR9/Nu5lKaYi/rORrXjxyfXBrcyA0ed81NF0pM1STAgAAAMqhfPvJyGGXR8P+6tH1d7uU/A+PLhhdRXedazZ4+wP5rm8VPXyhtZj7eGZ5gTTLT60J0/np+W9J/55cRTcf9ujReR4tr2vtax23f6KzU06NXdr4e2n5s9a+v0grJlVRj1pmg0ePj/aGL0Xlt2lNPkwfHdPfLplaGFe1kd68L/jfzVMmKzs0XQEAAACAYvrfIqfWRI7p8S+djUXRzKU5d0nPPO1RUozLCTmKw6MvvvLOPZ/okZpKt9zs0sYxVdQnztesxKWJ1vYF4081MTmngUv3Wcvf/MHlhBynnGw+k3Oy9rvPer6pf/WzzUxFaFpjDLzMZQcUxVVaIQdCE+8cAAAAAJXGZUPOLNTbNS4MM0KJ6YfDmYxfciwfOJxPTYVa0qwBLu9QtMUZstUtfWhNtzeWzt3g0f+Ou3TZpYE332jcNIB9sz16ZYlHe0xfInaJ0KMvVmZreUrxa2K0rC/NHVilWGGHOQYhB4qDdw8AAAAAWP73krcfDnt6WnY/Gf19y2aaLZ0xiMoRj/7+knTX76vY/XQ0vtSlcz/w2GGFMWWBU3MkZ78bOZZzO5rs0dftpHZyqV8XaeZbJnwwTVCc+9mTtznKMF+fHs7kr2bKRZdaU13ruN959Ogz1rEzPPrfvzx6pqlLc67zhiJHv/RozCfWTHiOkKSm1Md6LYXpjNTHF3aY28Iy99k0iWIqiod3EAAAAIBKI7+mK6fV9nCabpwcJcVZd6rg79Gzk7LVb5JHUw5L9/7VOtZD1vJsj76uJr2y1rtX4UZd8WjVR9LNF3oDh3bXuXRRokev7LYXTzVVcZqu5Hxu/4n27nM6l/r8por6tJRqWNNdTT12cDPqsHdI2hrWHke/zNbtz0t331dFNzezllM8+p95vEiX7vqNS+fYxyk8E1i8VYRaGXMHBl57BcgLQQcAAACASiPfpiuF4tIdI1z69wSX9j1RRd/caK3q6NKKyVW0YrC05wfpiHfHwO3y6PlDUo+W0lGzHO7S70e71M8e6jaHvdIXzmzAqrh0wc1V9OloKeY7j6YkenRgS7Z+87x01x+q6HbnMdxp1rZZ2fr7lpJpxvLmfYEHF2bfq9oQdKD4CDoAAAAAwJ2jLw5nMk7royPHeiOqqXR0p7T3hLPCcnS3Rx/WcGnZXXbrj0Kw7veW1KSHS+ekSV87axuf6615cZpsa7IOfmpo2jyY/XI67pG7gUt/vseloys9arFQ6nOrS432WI/9uUer3s3W899IF9aX3czl8S+LH3aY4GJufMHhBSEHShJBBwAAAIBKwqPnJ53ZdOX8f3u0d02OvjjM5K+PDmf6n/dgtuf/aS17R8i01cj29tlxRl8e/mR4tMeZ1c/SK1uk27vnXdg/2SfHDI+WH5GuyvEarvU3OufPHg3LsU/kQ97nf+V8j76vJXvY2Mff9Shxq0dfWtOecJcubO/SLfEuffMb6d1F1mvZVPywY2CMS4/ckPfrMtsIOVCSCDoAAAAAVBo1w3P2deFtchLTUGp83enNWfz20eFMJiCwZXgDjbY5e+xsZt3P7VFiIEnHEXuQFa/60sP3udTDbzUNlx4++fgu/bul1Mfa/7Jol/bleF5nNMFp4NKcGae2myl1sksbp1Wxm9hM62i99itdmvibKrov3nrsptbyxS5ddq5LjS+togXDXLqrQ8kEEI9c7z/sMKOzmG1ASSLoAAAAAICi+M6jN8516Vxn0culdi2lr35wFgPm0jmtCi7wf/+uR2N+kiaOdenuNI9G2aOy5K1GjvYzB5KyFTfZo2d97WJycktL/+3R7Qs82nvcu+qcTi5n+NmSMfAyU3PDWbCYeYaRRTDwrgIAAACA3HL3b3EGjz5MkmLaSVHOGp/L7qqiiZd65ws7vOxJaTmatdg8+vrdbA17R5p2XxVdVNOl2+9zKfpzj/r9wwwb6+zmj9ujVdbzuOQN6f6Hquj3Fzjrc7KO9/B465i/eHTln7L1yjfFb7KSm2/YWdNnh6ndQciBYOGdBQAAAKBSOdnXhTWd/5a0/EdnQ05pBQQRcinmRpcmxviphVHNubWcHF429+R3eNkcsp1mLdke7f0yW49O8qjvR9bxJp4aIcWEE/eNc+mhuh71n5StYUs8+vrn0wOKr1dm69JxHv3d7dJ/JnuHkM2Tdby7xri08krp+X94dO0Cjw44m0qKCTvsPjtoroIgIugAAAAAUGkcOX56Hx2pv5P+fL6zMSerpJSz6w1/ajRz6YK6zoIfsbe6dHNLZyG3htKcKa5T/X3ktPdUyPL9ao/6Jkjn9HVp4+Qq6lHf2eBTzaUe8VW08VHr9qBHv3nFGZrWccE1Lv370SpacY9L5+QIYPJmvabrTB8eLr0Q7zqjtgpQEXhjtHGbPJ7pHe1ZlK6NGzeqc+fOzhIAAAAAoDRRJis7GRneNlfJyf6GDSqc6OhoRU1PlWZ0clGjAwAAAAAAhAyCDgAAAAAAEDIIOgAAAAAAQMgg6AAAAAAAACGDoAMAAAAAAIQMgg4AAAAAABAyCDoAAAAAAEDIIOgAAAAAAAAhg6ADAAAAAACEDIIOAAAAAAAQMgg6AAAAAABAyCDoAAAAAAAAIYOgAwAAAAAAhAyCDgAAAAAAEDIIOgAAAAAAQMgg6AAAAAAAACGDoAMAAAAAAIQMgg4AAAAAABAyCDoAAAAAAEDIIOgAAAAAAAAhg6ADAAAAAACEDIIOAAAAAAAQMgg6AAAAAABAyCDoAAAAAAAAIYOgAwAAAAAAhAyX/e+4TR7P9I72LErXxo0b1blzZ2epZKxL+p8zBwAAAAChpVvMZc5cyQhGmQyBycjIsG+Tk5Pt2+KIjo5W1PRUaUYnF0FHGeOPCgAAAADKDmWyshOsoIOmKwAAAAAAIGQQdAAAAAAAgJBB0AEAAAAAAEIGQQcAAAAAAAgZBB0AAAAAACBkEHQAAAAAAICQQdABAAAAAABCBkEHAAAAAAAIGQQdAAAAAAAgZBB0AAAAAACAkEHQAQAAAAAAQgZBBwAAAAAACBkEHQAAAAAAIGQQdAAAAAAAgJBB0AEAAAAAAEIGQQcAAAAAAAgZBB0AAAAAACBkEHQAAAAAAICQQdABAAAAAABCBkEHAAAAAAAIGQQdAAAAAAAgZBB0AAAAAACAkEHQAQAAAAAAQgZBBwAAAAAACBkEHQAAAAAAIGQQdAAAAIS6rINaO3u05m91OyvKt+1LRmtaYrqzBABA4RB0oNzZvniI+oxKUKqzDABAeVUhzllZO7X8wbv1RtuHNbx9uLPS4s4VemS55c5y5nPYPKevYh5ZrTRnOTDpWv5wvMa9vdNZPt32xXFqdVfeP7c2d0zU5R/er5Gv+78/AAD5cdn/jtvk8UzvaM+idG3cuFGdO3d2lkrQngQNjZ2oNc5i3mL11MfzdHNDZ9Hn85lqdedzzkJ+BmvZtrHq6iwV304tHtBHk5rPVvKTvRXprM1TcV8nAKDscc7KpSTPWW6tnxmvp1vP1sK45s46r/UzO6j/fGfB0Wb0Eq0YFa2Tccgu6zn3mqq19WI0+dV5GtDMWV8Qd5ImxcxWmzeWaNA5zroc0hJGKGbbEKU8EuOs8SNrp5aOitM7vRPOeO4AUJKCViZDgTIyMuzb5ORk+7Y4oqOjFTU9VZrRyUXQUcaC9keV5bbeNMecBX/S9M6Evhq3ZbRWfHC3zvjtF3h/n+qKrJfj26Hi+n6J+veeqvXOoj89ZyZq4a0NvAvFfZ0AgLLHOctR8ues1IQR6rcxXkmPxZ4KLxwm6Hi6tfX84szzM6HNUKX+3wqNv9jZMzNZ024bou2/W6GnzrVe66PWteOrY9U1wrs5P+6Ppyp6abSSZvc9GQC5M6Vw57520LFjhFLGRntX5CUzSdNuWqQ2/y5EyAIAhUTQUXaCFXTQdCVUhYVbF3N18p4iM7T9Y+uC44YY/xdSBd3/5FSCF4yWzSuf0/pmd+uFpCQl55qS5sRbe4Sr47nOBaNR3NcJACh7nLO8U0mfs/av1qwp4frT6DNDjjNselPzNViDToYcKVr84BCtuXqR5sY1V+TFY7XgdykaeNtUrSmwDctOLZ29RO63xyq6bQe1cqb2l4/W8sK1f5EiYnTv2EhNmpRQyKYzAIDKjKCjstqWpHczpQHd2jsryoE9CZo1e6d63jtQ3f1cAB7Ys8Haqbc6tfLuHpDy+DoBAIXDOatIUt9epHfj4nVdPWdFng7q3YUL1WVIP7Uwi2mJmnZnnBa3mqdlY041Y2kRN0+rRqTpgb5DND/5oLP2TO7E5zRNE7Rq6xalbHOmN0arReYOpRahf9HIPvEa9NkzWrrJWQEAQAEIOiqpzYmmA7C+ujz6zO94THVS37cvgU0jtHSPc+cisy6yZk7VmlajNcZXxfc0B7Vjw1YpNkZdC2wEfUp+rxMAUDFwziqKFK1ZlqwBPXL0t5GXrUs0a8tQ/a5PHaW9P1P9ej+szX3macHvOkgnnH2MLLeiekzUisej9c7gWPWbkKDN3hrHp2Qma9a0RA16ME5twpx1lu2frdK+9uF6Y5b1Gv10eJqvsGj1umOnln5s/UwBAAgAQUdllLVVa17aqfBBcerp5wKsYd/Hz6iCa0/zTDXcGE1+I/e2x3VLMTtMS014WA+sbKZRMwarxaqJ6m9dPG3PdDYa7g36ZKXUsUcXBfxQBbxOAEAFwDmraDJ26PNNMerYuuDQZPu6VVL/WHXMSNLT87bqluf+oxlNFqlHTIyiO+cIidp3UXRMrHqs66FliYt0iztd7qrOQWxurZ09Vu/2mKIx3XI+7k6tXZGiAWOf0Yy2izQpYaeOOlsC1aZtrFI37KD5CgAgIAQdlZB7XYKe3tVcg27M41ue8DOr4Jop3L6YCVe4v205vrUpLPfnMzXskSR1nz5PY8y3WOdGq83GqerTa4jmrPPWcc14f6UWq7muvyTwOsAFvk4AQLnHOauIMjOUodZq5K/CSS5t7pqqW5Y9rGkp0Zq8dJGGR9exm6n4mp0kTY+Vhi851QzFdCAaGa3hj9+do2NSt7YvHq2hH16rv44I1/xb4jVnkzN8ren/Y1uc9fNooK73TlWbhSM0aXXhIouG51o/y3U78hyOFgCAnAg6Kh2ng7DoHB2OBSgjzYxlH6mofHpbNz24n15FOK/JV3X4oDavS1HkKG9nZ0Zk+zjNeHW1Ft6aoafv6q1+0xfpn4tWStZzvjngZstFf50AgPKCc1aR7dqhNWaUmUAOF9Zeo/4Rr/WPPqfNWZLbyScK4s48tWPa2xPVb5Y0ecFYda0XreF/7qEPfhOnaevStea1edLv4tTdPJeIaI1fMERat1Xan6aMwjRjyfF4AADkh+Fly1hpD2XkTpyq6OHWxVSrwVoW4BBxPqlLh6jHhPZats26n7Mut4xtSdoc0Jc04Wp+SbRaFHABlrpyooY9mKDt1vx1TyZpbt863g0FKM7rBACUD5yzimFPgobGbtVdGyeoZx7P2wQ9p4aXPajlo2P1+YDZCh8yQvO9u+QvdoqS5sd5m+dkpSvt5wZqmKOtjnvbEo0cMFVr1FdzP5h5Wqeo3t9PkiKveFgLZw8puC+Tz2eq1bBwLUsenefvEwCKiuFlyw7Dy6L4MhM17f4l0tW91XPPcxr44MpCtXXduSNJ6tT85Hj4/kS2jVH3KwKZCr5gNFr0jlNPM25+q9G694bALhiL+zoBAOUA56ziiYi0XvsO7Qt4lJM6at7MrdQ9HTTe10TFmc5ouuKbfCGHEXZ6yGGEt+6mXm2lrmNGnDHyS40w6wc6ZLZe6J2sobGxGjonSan5VNhIS02RurX2jgoDAEABCDoqi6ydWvrgaC1WXz01fbbmzhusRu9P1P8lmKq9AcjaqvWrrIuWbh3UxlkVfG6tnz1B83e10vA/D1bHQNpUF/d1AgDKHucsZ4diiGytizslafOOAJp7ZLmV8f1qvfF2uFo08QY0299eojXfn3nfjM+f0azVeQ8te4r185h1vyZpgmbE59FXSVhDdYyfreR3HtfFn92vHjGxGrkkxbrnmVK3JalFl9aBd+4KAKjUCDoqg6x0rZk2QuPeb6bhC6bY36qEdxutGUMaas2UqVq6y9kvH+6PvZ2k3XtjtLMm2Nza/MwQDZyfojajpmpMIG2WS+B1AgDKGOesEjpntVLP/tFa+mGy3+DglKPaPK+fogfM1r6BSzT+Cuu571+tpx9ZqdSsM1+H6cx17cNT9O5+Z0UeUhNGa+CS5prx1/jThpn1q0mMRi1KUvK//6Yxt7Y6szPWrK1a+3ZDDbgi4E5PAACVHEFHqMvaqeUTBmvoYmnQ/Oc0/uTFV7i6j56gQUrUpCkFVJPNTNKsSUukvg9rUCdnXTCZi7/p8eo/K1kthi/RitEB9EBfEq8TAFC2OGeV6DmrxQ1DdF3CkgJCiRrqOGqVUpJWau7w9gq3ntvSR8Zqy8iJGuSvIkareE0euUUPPJKg1Dw6EjUhR78pGbr337M1wDTlCVBkp2i18dM/ScaqRXq69d0aUBq/TwBASCDoCGV7EjXttn564O1wDbcupCbH5hpjLiJW906Mlfv9ifrz23lUQ02zLrZuG6L54YP1wtTe+bZ1LhH2c+6toYt2qudjK7VibAAXjCXxOgEAZYtzlldJnrPq9daYiW79cXZiAbU6HFkHtXbWCLu5yYLhedee6Dh8niZrqoZNWH162JGVrrWz49Vniltjli7SqE4F/jQKlpmkp2fu1PjxOfoDAQCgAAQdoci6UNmcMFF9Ykd42/2+kaDxuS+kHA1vHa0xrdxaPnOu1ue8CrIuVtYvmah+vUdoqXXBuHBxkEcu2ZOsxRPi1N55zjPe+I/mxvupvppTSbxOAEDZ4px1hpI8Z7WIm62FEbM1MpB+PzJ2aL3iteLJOLUIk9wZB5Wx/6C270xxdnCENdeAJ5fo3t7t7f0M9/crNc6EPutitHD1PA1qWwIhh6ld8uD92n7vTP+1SwAAyANBRygKqy73zjR1GLtIia9O0c3nOOv9CWuvQaMHa8C9/dSmqrPOdlRpW3ao4e/MMcaqZ7C/RsnaoU8+a6h7561UkvWcB7QPoLf6EnmdAIAyxTnrTCV6zgpX1zGzdWviWI17u4Cwo160Ro2NP9l8ZPviOEXHxGhoQgON6ZOrhkdEe918dXNnwXqUc3prkPXakv49Wt0D/fnvT5N3UEE/TJOgaWP1wfUJWhh36nEAAAiEy/533CaPZ3pHexalizGbAQBA0JlmKU9P0OY+MzW8fQnUtgiy7UtGa2nziXnWegGAkkSZrOxkZHgj7+TkZPu2OKKjoxU1PVWa0clFjQ4AAIBQF1ZH3UfPrhAhh9EmfjYhBwCgyAg6AAAAAABAyCDoAAAAAAAAIYOgAwAAAAAAhAyCDgAAAAAAEDIIOgAAAAAAQMgg6AAAAAAAACGDoAMAAAAAAIQMgg4AAAAAABAyCDoAAAAAAEDIIOgAAAAAAAAhg6ADAAAAAACEDIIOAAAAAAAQMgg6AAAAAABAyCDoAAAAAAAAIcNl/ztuk8czvaM9i9K1ceNGde7c2VkKjoOHM3U486jcx44rOzvbWQsAqGyqVKmi8OrVVCuihurUinDWli+cswAARmmes0qjTAb/MjIy7Nvk5GT7tjiio6MVNT1VmtHJRdBRxoL5R3Xs+Aml//yL/SFhPhxq1KiuMGseAFBx+S4ISlJkZKQzV3Y4ZwFA6Kko5yyCjrITrKCDK4gQZS4Yd+/7SbWti8UmDevbSSgXjACA8ohzFgAAKElcRYQo861Yvag6iqxdPqsmAwDgwzkLAACUJIKOEGTaN5uqv1wwAgACYc4bZYVzFgCgMMrynIWKg6AjBJlO3MprJ3MAgPLHnDfKCucsAEBhlOU5CxUHQUcIMj3Vm07cAAAIhDlvlBXOWQCAwijLcxYqDoKOEGSG46MTNwBAoMpyGFfOWQCAwmDocQSC4WXLWDCGMvo2dbfOa9HUWSq8DRs2OHMAgGDo0qWLM1d4wRiq76cDh4t13iiO4p6zAADlV0U5ZzG8bNlheFkAAAAAAIACEHQAABCCli9f7swBAFC+cc5CSSPoAAAgxPguGLlwBACUd5yzEAwEHQAAhJDcF4pcOAIAyivOWQgWgg4Uz5YXdHXcPCUdcZaL4Oc1T+iRxVt0zFk+6dgGLRg2Rm98fcYWAIAfeV0gcuHo+HymWkVP1Jpi9I2XunK0+s9MlttZPsmdpEmxcZqTfMYWAIAfnLMQTAQdKL79dVSnpjNfBPV7DtS1307U42t+dtZ47V61VBt6DtMNF1R31hTfsQM/aMP7S/XEuElaup0ABUDoKOjCkAtHR2YdRUY680XQ4oaHNWDbEI18Pd1Z47V96Wyt7TtRw6PDnTXF505L0dqE2XpgwBDN2USAAiB0cM5CsDG8bBmr8MPLmhod90pPvz9QHZxVBduiF6w7LXCWCmdYYI917JAOHTuo3d/8oB+++17ffJOkTRs3aMuupupw/VXqfUmMulzcUS2jSi5EAYBAMbzsKaU6vKyp0XGntGzbWHV1VhUsWdPaxmu+s1Q4gwN7LPdBZWQeUOqWFG3eukGbNyRq7WdbtX1/HbXp3U8Dru6tnrHRatOw5EIUACgNDC+LggRreFmCjjJWYYKOrGM6dMRPDYgtL+vmcdL05XfI3zuoes3aqh7mLAQi7T1NumOP7ihUcCLtXv1nPbH6Z+uT7ztt+Ha/va7eeV107jnV5V5zTF3+OEy9L2yjlvUJNgCUPYKOU4ISdGS5rZ+Tn3PWhtmKHiEtTBrtN3wIj6yj8MKcs/YkaGjsDt1bqODE1P4YrT+8tFNKT9HmPd6aGuFN2qtN63C5P3ar55MTNeASa7kJwQaAio2gAwUh6AhRFSbosGtuFL4OxrCn39fAwiQWRQw6dGS3tnx1SPXOb6o6qq7atX2Bhqk98rKavDxZ1zR0VgFAGSPoOCUoQYddc+M5ZyFww1/covEXOwuBKGLQocydWr/hoBp2aK6osOqKjPQFGqb2yDy1SZynAU2cVQBQgRF0oCAEHSGqwgQdeSlS0xWLHWj8Wf91FgMTYLOV0xB0ACh/CDpOCUrQkZciNV2x2IHGRK1xFgMTYLOV0xB0AAgtBB0oSLCCDjojRdloeI0mv/++3s89vfyorrIDDT/b8gs5TJ8ch/xNB3XU2uz2u82aijFaDACgkmgSp4Xbtigl95Q4RT3tQMPPtvxCDtMnx35/U4bc5j+/26wp07k/AADIFzU6ylhFqNFx7NChM4d+9Smgjw6vHE1JilSTI7er9GiuGho/vz9J/acW4ahDntb7gwpXRwQAiosaHaeUdI0Od8ZBubOchdwK6KPDq7oi6zlNSYpUkyO3WM3IVUMjLWGEYh5JdJYKYfgSpYyNdhYAoPyjRgcKEqwaHQQdZaz8Bx0/670/9defi3WVl1+Tk2Pa8OydWn/pixrWJRgdhdJ0BUD5Q9BxSskGHelaOjxW44qQIZySX5MTt9Y81k0f9F6nyVcEo6NQmq4ACC0EHSgIQUeIqgg1OvJy7OsX9OD4V7XbLFx0j57+4zUq9KMe+K+e+NUkveUs5qtItS8IOgCUPwQdp5R0jY68uJNnq9/g52Rd/kiXTNCqZ+LUojAjrBj7V2pkzFi96yzmq0i1Lwg6AIQWgg4UJFhBB310oGiObNErf1ur2IfuUaeL7tGErv/RnxdvybuJSx52//ctfdPmfG+I4bdfDu+0bMJVzj1yO+a/742TUwF9dNhTYZ81AKBCyUzWrHGrdcv0Cep+yQTN7ZGgYbOS5R3YNXDbVy7RlmbNvSGG3345vFPS9FjnHrmYYW/99b1xciqgjw57KuyzBgCg8qFGRxmrkDU6jnyjpVMf0zfXPKFHO2/RpLnS6D920IbpD+mtcx7V9PgOCqgRyoEkzR76ljqNaqs/L1qrLk3zqQb803fa0HPKmTU6SqTPj6KM5gIARUeNjlOCXqMjc6vmDBusz/snaOEVSRo6QfrLMzH6YFScFrd/RstGRyugRij7V+uBXgm6fGIrjZuZqI7N8rlXeoo29110Zo2OEunzoyijuQBA2aBGBwoSrBodBB1lrMIFHXbIMU6J7aboyUEdVH37Ut39++MabYIC37YmD+jRe65S03yrBB9S0lO/1eLmM/R0h//p6s+75Nssxe5sdNcdNF0BEBIIOk4JatBhhxzxeqPLIq0YG63wrc+oxy0H9FcTFPi2nTtFC6b2LaAZy0G9+2CsZl2wRKsuWaFW7/XJt1mK3dnojhE0XQFQ6RF0oCDBCjpouoKAHfvhPc1+aJySOk7RDBNy2CuP6xt7q6Xm+Row4a+68dBTunfsAiX97Kz3Y/fq2Zq5Z5ge7X++swYAgJLj3pagcbfF651u87RsjFNrI/OAt48OI6K9Ri1I0KD9E9Xntplas8dZ70fq0of1wM6H9Y/h7Z01AACgPCPoQMGyftaGlyZpyOCFOt7vr3bTlNrOpjPUbKkbH/mXply8XTP7D9Sklzbo59OG+TumH1b+WffOk+554MZTnZeu+ofGjB2T5/TnFzY5OwIAkI+sdK2dM0QxfWfqwF0JWjY6RpF51daIaKVBc1Zr4dXJGhkbo4FzkpR22jnLre2LR6jPNGnyX+PVxnechAnqd1tcntPQ2UnOjgAAoCwQdCB/376lSYP7a+qnTTX0uUV66PqWAfS/UVsd4qfrXwuGqumnU9V/wBgt+OyQveXYhsX648vhemDOo7omZ7XcPvdo1sxZeU6PDuzk7AgAgH/ubUs08PJYDV3VXONXJmpufKuC+98Ia6Duo5co6Y2xarFqhGIujtOkxHR7U8bHj2vg0+H6y5vzNKCZvcorbqpWvJqQ57RwdIyzIwAAKAsEHcjfeV10x33P6V+zRuialgF1MXpS7fOu0YhZ/9Jzfxig2Au9dUCqdxmm5557SFflbnu86F5dffXVeU79pxaiu9FDu7Vl+257RJXdaxOV6KwGAIS28Naxund6gpJenaIBbQPqYvSkyPZxmvFqolZMHaEBMQ28666YoKRPZuvmnCGHMT9erdp2yHOKeaQQZ56MFK3dtNMeUSV19crAhq4FAAD5IuhAAZqqw2Ut826qUqDaanlljM7PmZH4q0Jc0PCyf7zG2TEAtfdrw/8N1M0336yB/9ikJr++UV3oiBQAQl9Yc3W/un3eTVUKElZHHfv2VsecGYm/YxU0vOzMPIaX9adWhj74TR9Fx8Sox4R1ah4fp150RAoAQLEw6koZq5DDywIAioVRV04J+vCyAIAyw6grKAijrgAAAAAAABSAoAMAAAAAAIQMgg4AAAAAABAyCDoAAAAAAEDIIOgAAAAAAAAhg1FXylh5HHUFAFB+MeoKAKCiYNQVFIRRVwAAAAAAAApA0AEAAAAAAEIGQQcAAAAAAAgZBB0AAAAAACBkEHSgbGWlaPGIEZq/1e2sKGHrZqpV9EStKfl+kAAAlQ3nLAAAKgSCDhQs66DS9jvzuWS8PVF9Hl6pVGdZStfyh4doWmK6s5yPrHStmXa/pqm3rmsb7l3nPqiM/QVMhbm+rGZNmXUUGeldBACEOM5ZAABUegQdKJB74xINvT5eczblvlo7qDXvJKlnXG+1cNbo+1V6/rNuuuWKBs6KPGTt1PIJgzVySz8tezJOLcK8q9NWPqzomJh8pwdWBnBBCgColDhnAQAAgg4UKDz6bi37R7Te+M1oLd3lrDQ2LdHTYQ/r3m7ON1tya82i2Wo+Nl4dnYtAv/Ykatpt/fTHzCFa9e+71THCWW9pGDdPKdu25DstjDvzgtSd4edbNDMdOGZtPeZ/m5kK9VUbAKC845wFAABc9r/jNnk80zvasyhdGzduVOfOnZ2lkvFt6m6d16Kps1RyUhNG6w/fxWvhmBhFZu3U0rv7aFyiszE/sVOUND9ODe2FdC0fcbc+6f24Jse1ku9ys3jStXR4bGDPJbfTnhsAlH8ZGSXfgcNPBw4H5bwRCM5ZhcA5C0AFU1HOWcEokyEwvvdIcnKyfVsc0dHRipqeKs3o5CLoKGMVKejIKXXpCPWYkKjhL27R+IudlXsSNDR2h+7dNlZdnVUFc2vNlDi93GWe5l4dFXhb5og6ijx5xem9aHznhsQzvzn7fKZa3Skt8/eczLa5rbloBFChEHQUHucsACgbBB0oSLCCDpquoNDc1sXWsIVSz07OimJwr5utpzNHa/wNzbX+af/tm/1Os4v/hwAACH2cswAAqHwIOlA47iTN+kOKhi+YoOvrS/Pv7KBWbZ0pdqLW6Dn19y3b00ytd+56hl0JGjlCGjO1t92xW9ex/ts3pyROUU8N1rKc68ZGOwcBACAPnLMAAKiUCDqQvyz36R2huaM15oN5GtCshr3ZVAPO9+IuryrBu1Zq5J1TtTZTCs+vEzgAAALFOQsAAFgIOpC/5NmnV799cKUyinmRl5H8jPrftlK9Zk5Qd2ddSXBnpp1+gWum/Hqwt7cBAEIG5ywAAGAh6ED+Lh576puuFwc7K08pdDXgtNX64/1bdNer8zTgXGddCVk7Je70C1wzjVhibVmiobnXn9wGAAgZnLMAAICFoAPFUuhqwA1766kPZuvmZs5yCeo5PTHH4zqTfaGb+znl3AYAqCw4ZwEAUDkQdKD0lXj75ga65ckkPdU31zB9BYkereQn+zJMHwAgb5yzAACocAg6UEEcU4bbmfUjPLKOIsOdhUCFhSuy0HcCAKAgnLMAAChLBB0ImPvAQXPtpqPOslFwe2cz5TNcX8B2at9+ZxYAgAJwzgIAoPIi6EBA0hKnqt9MaUDEEi3+3HxN1UAD5vtpQ+x3ymO4PgAAgoBzFgAAlRtBB/K3f6sWT4hT71nVNX7xFM14cqL0aKwGzkzQms9TlOZvCDxnSt2UpLUfm2mlFq/cqnxq8Z7J7T55nLRtO7RDzdWonrMNAAB/OGcBAAALQQfyF+7WPsVp2Ytj1dP0gBYRrfFvvqkxrXfq9acf1tBbYs8cAs+Z+twzU9NmmWmRPldDFaplsbXz+tne48Q8nKgOY+PUnabJAID8cM4CAAAWl/3vuE0ez/SO9ixK18aNG9W5c2dnqWR8m7pb57Vo6iwBAEJJRkaGM1dyfjpwuMzOG5yzACB0VZRzVjDKZAiM7z2SnJxs3xZHdHS0oqanSjM6uajRAQAAAAAAQgZBBwAAAAAACBkEHQAAAAAAIGQQdAAAAAAAgJBB0AEAAAAAAEIGQQcAAAAAAAgZBB0AAAAAACBkEHQAAAAAAICQQdABAAAAAABCBkEHiufzmWoVM1Pr3c4yAADlFecsAAAqBYIOFMx9UBn7rSkjjyvD/dYU7p3NyZ3h3M/f3TKdbYWadmr791ydAgDywTkLAIBKz2X/O26TxzO9oz2L0rVx40Z17tzZWSoZ36bu1nktmjpLxZeWMEIxjyQ6S4XXc3qiFsY1cJa81s/soP7znYVCaaXxK1dqeFtnEQAqmYyMDGeu5Px04HCJnjcKg3MWAISuinLOCkaZDIHxvUeSk5Pt2+KIjo5W1PRUaUYnF0FHGaswQceOEUoZG+2sCZy5OHy69ZkXjYWVunKihj24Qd3nPafJVxfvWABQkRF05I9zFgCUHwQdKEiwgg6arqB8y0rXmulx6jMlQ4NWJnDBCAAovzhnAQBQLhB0oHDsts/5tzl27z8od5azUAwZWxM07qZYPbCtr15YPVuD2vppVA0AQF44ZwEAUCnRdKWMVYSmKzkF2vbZXxvnwBzU+iUL9c5niVr8vnTLxMc1Oa6Vv37jAKBSoulK4DhnAUDZoukKChKspisEHWWsogUdwZeupcNjNSdyiv7xWJw6RjqrAQA2go7yhHMWAOSHoAMFCVbQQdMVFOjkkHtFnfIa4i8fra/owQUjAKDQOGcBAABqdJSx8l+jw/tt1biij9QnxU5R0vw4NXQW8+d9vHduKH6v9wAQiqjRkR/OWQBQnlCjAwWhRgfKSAMNmL9FKdtOn5Kmx3ovBn3rXhx8+nLOKeALRgAAioNzFgAAYNQVFNGBzDSpbWsuBgEA5R7nLAAAKheCDhTBQW35bKt6tm7uLAMAUF5xzgIAoLIh6EDh7Vml19+OVq9LaI8MACjnOGcBAFDpEHSgcLJ2auljU7Vz1FgNOMdZl68ULZ+9WtsL34k9AADFwzkLAIBKiaADgduTpDnD4zRp92DN+F20wp3V+cpK06Y5CVq/31kGAKA0cM4CAKDSIuhA/rLcSktJ1PyH4xUdO0LvNJuoVa+OVtcIZ7tPWLjCExP1Tkq6MvYf9E57UrR2/iItbtZFHZs4+/nh3rNVaz9O0nrrvqmfJ+idz6yVYd5tAAAEjHMWAACwEHQgf9bF2+bnJ+gd9dZT7yRqxdS+auHvgq5znJ6KT9PTt8UqOibGO10/WNO+bKW/PDNYHZ3d/AnXFv1zyBD1vz5WPYa9oIxbp2h8H9pSAwAKiXMWAACwuOx/x23yeKbnd1pHsGzcuFGdO3d2lkrGt6m7dV6Lps4SACCUZGRkOHMl56cDh8vsvME5CwBCV0U5ZwWjTIbA+N4jycnJ9m1xREdHK2p6qjSjk4saHQAAAAAAIGQQdAAAAAAAgJBB0AEAAAAAAEIGQQcAAAAAAAgZBB0AAAAAACBkEHQAAAAAAICQQdABAAAAAABCBkEHAAAAAAAIGQQdAAAAAAAgZBB0oFAy3p6oPqOWaLvbWsg0/+Qjyy13ljNfAPf3yVo6c4T6z05WAUcFACAgnLMAAKicCDpQCG5t/myl3B26qE24tP7pLmrVtkPeU/suGvl6unPfnJK1+OHZWpqwRNMeHqI+MR3UfsAEfaDeGtOvtfYljPB/PGcamuDvmAAA5MQ5CwCAyoqgA4FzJ+udhPYa3re9s0LqOT1RKdu2+J2WDXd2OkNzhe9/RkvXudXmhrFasHqDUpJWau7YOHVvVUct4uY5x0jUjFhp+IunjvnCEOvuYd6jAACQJ85ZAABUWgQdCFjaykVa3CNet5zjrCimrr8eogFXt1eLyHDrgtRfleGdSv3M2l7PWVS6UndIbVo0cJYBAPCPcxYAAJUXQQcC407WP59O0Zjf9VWks6q49u076My5tX5enPrNytXWeVOSltfro66tnGUAAALBOQsAgEqNoAMB2b50pubvulbdOzkriqWBWrSWMk52DBeurneNVof5YzVrnbMua6eWPj1PDX93kzp611h2antijNo0cRYBAPCDcxYAAJUbQQcKlrJE42ZttS7tzrTmkVi/na+Zqf98Zyc/wk2bZXeGUj9P0KyH4xXda4oyrm6gxY89p81Z6VozbYQmaYL+ekdzufcfVIY1pSWu0rsR7bloBADkjXMWAACVHkEH8peZrGn3PK7IiRM0yFnl03XsqQ7X/HXCZqaFcbnaJmekaE3CIj3/mXXB+Vhf9ftLkqJumKrEzxO1cM5M/aXLOk26qbceSI/Xiifj1CIsXe8+EqPomBjF3L9SXR6LV1c6dgMA+MM5CwAAWAg6kK/tL0/R4nMnaPLVkdrnrCuW8DR9MDtRje5YpFVJW5S8dKaGX91KkeZCMKy5br53iAaMXaGk2fFqE2Hu0EA3z3MuQpMT9dStzc1KAADOwDkLAAAYBB3IV5v4Z5RovqVyZyjDWadMb7Xc06c0uY9J7gP+th081Tt9eIwmJy7S+LgYtTnZM30OzWI14OrmfqscAwCQH85ZAADAcNn/jtvk8Uw/1X0WSs/GjRvVuXNnZ6lkfJu6W+e1aOoslZA9CRoau0P3bhsrzcy/LbM/PWcmauGtOasEJ2ta23gV7jCDtcx6/K7OEgBURhkZJ4vwJeanA4dL/rwRIM5ZABC6Kso5KxhlMgTG9x5JTk62b4sjOjpaUdNTpRmdXNToQKGd3s7Zmrau0oyr26tNK6lFs2gNf3HD6dut6fQLRqOB2nQ7s310SuIU9bQvDnOtf3Gwcz8AAALHOQsAgMqHoAPF5Nb6WSM0v/1Eje8hXTdxrPSn0Vr6vbM5TzWk6s4sAAClgnMWAACVAUEHis4MqTclTgNThmjBvc21b4e1Lipa4//RVx8Mitesdene/fIx/85cQ/zFTtQaPaf+OdeZ6c7nnHsAAFAEnLMAAKg0CDpQNHsSNe223pqWOVqr5pgh9Zz1RrO+mvviEKU91lv9JiRocz5N86gGDAAIOs5ZAABUKgQdKIQUbf9+p5ZPiFP762cr464ErZje+/QLRp9mvTXjzdUaU2uJ+l8So/6LtsrtbAIAIPj+n73/gY+qvPP+/zeiDsUSiiUuLsmqgbINgTaAbUDvjcg2/Pka0Bo21rhYgvEmFGusFAoUChQKGIuaFmq4QaCkhjVLrEBahXQRchchv1tCVgjZ0hB1EyolVJahUgYN8ztn5iRMJjPJJOTv4fV8PA455zpn/l2T8Lmuz7nOdYhZAABcr0h0oGUcERoxdZ52FeVrdVJU07fU69lfYxfkq7xom158JNrv2GpVvcswYABAOyJmAQBwXSLRgRaLjI3T4DBrw0evG60VfwOiFNnbWvfhuhhgGHCwJW9m0w1UALjO7dy5s9nlekTMAoCuJ1CM8l+Aa9HD8+/8Y273qhjPKjpWe9yz+f2qj9r83tIAgK6h7n7zgTTVMJwyZYq11thfzn/SaXGDmAUA9tVdYlZ79MkQmrrfkdLSUs/PaxEbG6u+q6qk1cN6MKIDAACbCNYwbKrBCABAZyBmoT0xoqOTMaIDANASTZ0dq+N7liyUBiMjOgAA7aG7xCxGdHSeUH5HWoIRHQAA2FRdQ5GzYgCAro6YhfZAogMAABuiwQgA6C6IWWhrJDoAAAAAAIBtkOgAAAAAAAC2QaLDhm644QbVXrlibQEA0DQzbnQWYhYAoCU6M2ah++C3xIYcN9+kS5cuW1sAADTNjBudhZgFAGiJzoxZ6D5IdNjQLb176cInF60tAACaZsaNzkLMAgC0RGfGLHQfJDpsqM8tvXXlyhU5/0rDEQDQPDNudBZiFgCgJTozZqH7INFhU/1v/YLOnb9AwxEA0OURswAAQFsi0WFTN990o26/7Yv66ycXdbrmY31y8RKTvQEAuiRiFgAAaEs9PP/OP+Z2r4rxrKJjHT16VMOHD7e22od57bPZaHRd/tQzPBgAcH0yZ6o3J3Ezr2/uqkN/iVkAAFNHxqyO6JMhMKfTaa21jb6rqqTVw3qQ6Ohk/FEBAAAAQOehT9Z52ivRwaUrAAAAAADANkh0AAAAAAAA2yDRAQAAAAAAbINEBwAAAAAAsA0SHQAAAAAAwDZIdAAAAAAAANsg0QEAAAAAAGyDRAcAAAAAALANEh0AAAAAAMA2SHQAAAAAAADbINEBAAAAAABsg0QHAAAAAACwDRIdAAAAAADANkh0AAAAAAAA2yDRAQAAAAAAbINEBwAAAAAAsA0SHQAAAAAAwDZIdAAAAAAAANsg0QEAAAAAAGyDRAcAAAAAALANEh0AAAAAAMA2SHQAAAAAAADbINEBAAAAAABsg0QHAAAAAACwDRIdAAAAAADANkh0wD5qrZ91/Lc9ziovbahi15Va2+3EWaw1GZtV5rK224P/53M1fjHXgUyNT81VhbUdWKVyMjK1r8baBAC0v+stZvlwncjVrNT1KrloFfi6WKQlE1O17vAFq8AfMQsA0DwSHbZVqpVDhioq4JKpEvOQ0/maEXC/uVjHNGI+b5yWFAVrgFzQvjXztKawWqG2l1zOC3KeC3FxBntW431F+32Gmflq3A7qr8hB0sgBEdZ2OzhVoFlpBRo2L1UxDquszQX4vMOTtK7Up35qK5WXtU1jUpM02CoKLErTFo3W27MztPOUVQQAHYqYZe+Y1ZBjSJIeH5Kv72UV+9W7SwezVujguAyljepjlfkjZgEAmkeiw9bitbrouCpP+CxFyzXW2us1Xdt99wc8xt9QxQwK0gBxHdfbOaXqdXuEQmsvlWvjg3GKjQtxebYgQEOwjs/n9f0MF60Gp3XmyNHT+9Oj1mU1SENt4jbjotF4/U6B7n9xuSYMtMp81Ly5WJMzClRlbTenJHOoYh8NNiLD5/MWLtLI3qM1Mrqu1l0qWfO0lpS6lJM2omFj2mj0zyo4ax1nCY/Xshfj9cbD6cqj4QigUxCzPOwYs+o+U/1yWTGPZ2rhvWENyivyMjTjvUe1OnWQXD7lnsV39AcxCwDQDBIdtlak+fG+HVxjiV+sfdZery2a6rs/4DE+Tp9URe9YDQ7QIDK5iguVM2S6pgyzCgIOxfUVrvBBUto2n0ZrsGXbdOsxLVOy1mpwxno/39SN0r4F8d7PGj3CapBmBTkb2AK11cp7dqZcc7KUHKR+5KpR2Scu9bI2Tc5TZ5s8k+j8yqBmRmRIFUX5qnkySWM8LXWXytanakbuKY1dsadBHe5fFS9HVJKeHNff87gGBibp5aworVuSr6pmvzcAaGvELJMdY1b9Z/Jd7k/RrLQkxfmUjV9UJNfh5zX1Xp/j6pan/Ua8ELMAAE0g0WFrbXd2rH6o7vFy7ftKuBx1Z1gaDMu9oN35uZrw+GRFmpuucq17OFErD7fRmadWGjmv4efbniaNXVXUoKzyxDyNtI5vLeeen2mJY7HmxAc/LxgeGWWtWVyV2rE8QZMXFAZtqEXeGmatBVFbrt2bHEpLjPY0XHcuSNLUfffp1aJdmrg3QysPeYdsV725WE9sCNdLrxiftbenqBHH6FlaGLZCS97wG/EBAO2OmGWyY8zy/0ytWjYmKdx6vjrELABAMCQ6EIKz2vGsdUYlPVc6tEKT686wzCu8eoblw13auj9FjydYQ4Qd0Zr9YopKnlis3ee8RfZVrR2bC5WcnKBm0hINOaI0bd0upZ2bp8nPFvg1HC+o5rQ0qL9/064h557N2jAiVQ/eYWxUF+uwI117fjVTMWERSn5hsRyrHtBj6Skan+XQwpzAw5Ov6qMJjz2qg2vzVcYZMgDdEjGreZ0Xs1qkplBLHk5XTqW13QgxCwAQGIkOW2urYcD9lbzRPKNSrJcTpWkbj3jOrhSvipeiIurPsJQVbJFzVt3lE5Y7kjTnkUN6JquoyaGu7aUqP73hZzOWBsOAGyzBJrMLQWWR8kqTdP/doV3l3UBPMyGxWcl/mKcn1pT61FONznwgDb4zwGUmdWorjcZqqZ6cYTVWjfpetjRRkeY13bUuVR05oirjGSs+qJbD4VTF0Uo5m2sMxt6naafyte+EtQ0AHYKYZe+YFXzC2Rn5dSMyvJPH1t9kJjxcjmOSI8goRA9iFgAgABIdthZgGLBnsYa8DkjSpkb7jCXAMGCP2pM6vDdeo6wJL89frNHYQWGqKi3Wwb3rtWbDJYV/tEcr56Zq8sNJijOvL44erWcOhSvsjUxtLPc8rB35NJKthm9kUnbjz1e/7NHLs+fq5UJvI/hahgI7/1CqstHRGtSKNqNH71gtfCVXy6YOujohntOo72PxGvYP1nYgPQcq5u6bteOAVbm1LtVUFisva56m3jNaU3NqNG7171S84zcqfNFo8b+5SPGj4jV1bpby9parJlDSo+cgDY6v1uE/MBQYQEciZtk+ZgX4js1LcxoaofAB1mooiFkAgABIdCB0J4q1OypeQz2nw1yqPlmuwQPDdfy1uVrz5nnFpCZp4t2jdf9DGXrxF1tU+I7ZiDlidLLztX1emNZkF8jpeaLGXOet66ebWs5fto4OxqcBFazh28BZHV63TRUXW9vSu8p10fhkUeG6zdpulYGxGhN19c4ALqMxvnNYXX0H49DIp1Zo7K/nap3RKK/Kz1DiD/NVFZGk1W8ZdZ89T1Oi+8i5d7niltZowvO5Ki02Gqf3havszUM6Yz1LQ/01eIh08MNqaxsAuiFiVlCdF7PaAzELANAYiY7rQvDhog2XpofBVry7R5owwppNvVJl++M0OLKPJqwq0vbn52lORoamJcZpzL2xGjygj8J8hppGJmVqz4LEoNcC56Rb1083tZjXWre5KIX3s1avQdXJIql3WIi3JwyFSwf35iqyvr6b0DtWTz01yNMo75ucreJtmZqTZHw3Pp8r7Lb+0s3yzpzviFBMYoqWPZ+qGN/bFvpxde58fACuW8Ss4Lp7zGp8eZJ5aU5bIGYBAHyR6LguxGqhNUTUvEbZd/Z2c8jo1dvkNTUMtlIHf12uCV+NtjaP6C2NVkzdxJauC36z2V/lmf2+NsJoSFoFAbTbrfoOZzZoUDVcUrTRt9GV5nfruhaIHBQvXXT6XKvcAuZcGgc2a6fv9cUf5mttbqzSJlr13Yyw+ERNebNUJcYbKMn0/YzW8ugWo325WHH1ZenKO209OAhH27WAAaAFiFmBFzvErFAuXWkdYhYAwBeJjuuM5yxOaxwr1MZz0Tq4NFXrDpxVxaECVUyKU4y1u6ZgrmLvHuHXKPMu0XfHKXZt3cxiHWzUvAYNqoZLrtJ8G10Bbl0XKkfvMKMhXRPkUpAgai+oYu96zbh/tMZnVspRf+rwgnZnPa+ylHQlm3dSCcUtYbpN1TpzznsbP8+ke2m5Vz+r2eCOX67i+s+ereSgjfizqq6UxtwRYW0DQOcgZvkuNopZbYqYBQBojETHdcD3DL//7O3m9sZHr+6/OvN5Q65+sZrz0/Xa9ZvnNfLA0xq/tFpp42OtvRbfjrXP4ul0d7KqNzI0Nct3dvi2FfaPsYo5VK6TobzAu4XakJmuuFFxmppdo/tfLFT5juWaYCUeqvLn6pkCl1zG81WEcrs811mV5W5WzsARimnJBG7B1Fbr2KEIjfrHJu72AgDthJhl85jV1ohZAIAASHRcB8wz/N4GnPdWe2lbrzboGg4DPq5NSYEbCo6BcZoyytjXs4/RqDiryHEjdPDpDOWUX7CO6Aoaz2BfJ3J8qka+mapZ+e00WVlUvJJj8/X2u4Fbja5T5dqXn6lZP8yXLhbr4Ok4Pfd6sUrzFmmaWa+WmqIVemJBtaZtzdfqO7P1vQa37gugtlQr4xI047cRWrZ+ev3ZymtSXqzd/ZI0doi1DQAdiJhl45jVHnN0ELMAAAGQ6LieWLfaG3yntd0KrsNZWvJavJa9kKXt+UmqWrJcO1t7kXCba2IGe/NWeL+YK+eCxco7ZZW1qQg9mJqgvLzCgLP0l72aollZlYp8cr32lx7RrhdSNdZntnpzSHBZboYS0nZpUGa2Fo6OVvKqTA3Nbaah29P4XMbzFW9bpOQh5fUT+MUtKJI2plxtTDaao8NcAk3kd0G7N2Vr0FNJTU5UCgDtjphlv5jV7Bwd5vwsTV1a6Y+YBQAIjETHdcS5J1c5Q+I1JqQGxGU1mqftVL5mPVGksa/M1VhzdvrweC3My9SUNriVXFvcqu+2YeHqW9fQCU/USy8kNrx+OSpFm4p/puS6yejaWNj4p7XMtVxrihqfzxqZcUjlRUZjMClWkT4z+5uclUVal/YNTc5y6qm83+nlh6zrjPsl6LlXHlX1giTNeiOUs3pXJ/BrtDSao8NcGk/k5zr0slZWz9XChwKfJQWAjkLMsnvMunbELABAMCQ6rhdGg++ZBceVtjBJkVZRnYoq6xpncxZ6o3FWc+KkTnpL6rlO5GrGAyukxUbDZ1SQqc19RxD4LJ7RBc249lv1xSrt9eWaUNdK7OlQWFjj9xnWr0/953Sergl4JqvVekYo+YX1cqzJaHwGLsB08J7GYnq84ibO1TvRi7WrcLPSYn3OmBkco+Zp+9YknZw3WTNyKtvtem0Ps1OQUanZL6ZoMGfGAHQmYpaHnWOWy/xM586q5pxV4MNz5xtz/4njqjC2ewWKScQsAEATSHRcF6qVtyhTzlnP66lY38bLWVWYt4ermzzs2MuKMxpncWn5Cs9I1BifQ8+UFsuxcJc2JTUxq3kTE7sFv+1btarebXjNddClNbfqC+TcHj1jNkLjF6nkQeNztsHZvXqe4caJevt7i7W7qeHGtdXakblIh6OMRmFxsV6dl6iY+hnsGwobPU+vZCXK9VHrm7iuS02fWVRNkZZ8r0gPvZ7dbmcPASA0xKwGbBmzXDqYZSaE4vWDI4l66N6GIzKqdkz3JosSs+TMSL+aEKpDzAIANKOH59/5x9zuVW0yjSFa6OjRoxo+fLi11Y7MhiFnPDqOs1hrFh/XxMxUxQRtMHcVlcrJ2K7IRfM0ti0b0ADQWsSsjkXMAnCd67A+GRpxOtt0vKL6rqqSVg/rQaKjk/FHBQAAAACdhz5Z52mvRAeXrgAAAAAAANsg0QEAAAAAAGyDRAcAAAAAALANEh0AAAAAAMA2SHQAAAAAAADbINEBAAAAAABsg0QHAAAAAACwDRIdAAAAAADANkh0AAAAAAAA2yDRAQAAAAAAbINEBwAAAAAAsA0SHQAAAAAAwDZIdAAAAAAAANsg0QEAAAAAAGyjh+ff+cfc7lUxnlV0rKNHj2r48OHWVvu48MlFfXLxklyXP9WVK1esUgDA9eaGG26Q4+abdEvvXupzS2+rtGshZgEATB0ZszqiT4bAnE6ntdY2+q6qklYP60Gio5O15x/V5U8/09mP/8fzn4T5n0OvXjerp7EOALg+1V65okuXLnuSCWYSof+tX9DNN91o7e1cxCwAgK+OjFkkOjpPeyU6aEHYlNlg/OjMX/R5o7E4IPxWTyaUBiMAXN/MOGDGAzMumPHBjBNmvOhsxCwAgL+uGrPQPdCKsCnzrFi/vn0U9vmuOTQZANC5zPhgxgkzXnQ2YhYAoCldKWaheyDRYUPm8C5z6C8NRgBAU8w4YcYLM250FmIWACAUXSFmofsg0WFD5iRuXXWSOQBA12LGCzNudBZiFgAgVJ0ds9B9kOiwIXOmenMSNwAAmmPGCzNudBZiFgAgVJ0ds9B9kOiwIXNWYiZxAwCEwowXnXkbV2IWACBUnR2z0H3QsgAAAAAAALZBogMAAAAAANgGiQ4AAAAAAGAbJDoAAAAAAIBtkOgAAAAAAAC2QaIDAADDBx98oH379llbwZnHmMcCANBZiFlA00h0AABg+OUvf6n777/f2grOPMY8FgCAzkLMAprWw/Pv/GNu96oYzyo61tGjRzV8+HBrq228X/WR7oq83doCADTFPNO1bNmy+rNj06dPt/YEtmXLFt15552e47797W971ru7zowbxCwACB0xq33iRnv0yRAap9NprbWNvquqpNXDepDo6GQkOgCgc6Wmpnoagq0xduxYvf3229ZW90WiAwC6B2IWiQ67aa9EB5euIKia0lwtSU1U7JChihoyQnEPZmjdgbPWXj+1Z3VwXYbGx5nHDlXsxAytLKiUy9pd72K19hnHTY4f4TkuKi5Rjy3NV1kov9/H1us+8zGZpVZBcM6CDEXFrtDBujdQe0Fl+Ss01Xrd6PgUPbOxWDW11n7T6XzN8HzWJpamXtvz/lKU86G1bXCW52vJo/GKNh8bG6+pczfrYI21MwjXiXzNn5ipEms7VCG/Vih10ZzTxVo3u+53I07jZ2dq54lG37ZHa+oA6EihXOMcDNc9dx3ErABLyDHLfL1MzXq4rv7q6qRczmZiQ6tiVk2pcpam1td/dHySZq0LEIfOlSsv06j/iXHWZ7LiTfkF64AQNFFPKw9bx/ioObBes+pez/i+Z2UWqOKitRPoAohZQEuYIzrQKd577z1rre1U/vefrLVrcOQl95e/9HV30vc3uXf8/pD7nd/vcm/4zgPuu74U607dXmUdZPmsyv3azFj3XV991P2T7fuNY/e7t/7wYePx/sfWuHfMjHZ/+Z9mWscdcr+9/Tl30lej3XdNeM59+BPrsEDM13jCOO5LxvLcEaswmCr31n+JdsevPW5tX3Iffs587w+40zfs8rzujrXT3V81nivBeK5L1lHuS1Xuw57P2nh5+9W57q8bn+dH++uP9nPJ/c6PjTp4epf7fF3Ju8+5E8zX+I5Vh7uy3Slfb+Kznj/pftt6X3d9yTjGKg5F6K8VYl00pXq7O9X4zr78refcr/2H8Vr/8ar7B1PM73+m+7Vq6xhLi+sA6AR33nmn24iErVrMx9pBm8SNViJmdYWYdcS99l/mun9qfU5P/X3PrBPjNV8KEhtaHbOOuH9q1OFXjdfbsMv7fndseNoTK748c7v7vz+zDjO9m218py95Y435vnZtcmeY8caom58eCSliWb8bD7t/Yr2W7/LHj61jPOrq/evulOe2u9829r/96iJ3ohnvpmxyH/N9X0AnIma1T8xqjz4ZQnP+/Pk2XczchvH7biHR0Wm6bKLjD3vcOz6w1us53TueNho0XzUaND4B//yupz2Njvo2mscl99tLzIbkXPdb9Q2JGvc7vz3iPu/fWDia7Y43Gjip22usgsbO/3au+8sTHvA0hJptNHqe71H31rr379mOdWf81mkVeP1x66MB3ncgTvdb3zM+yxPb3WeskkY+3uVONxuVv7caXp8dd68dazSOvrenPvHhcfJVd5LZcMz2fVGn+52fPuptLH59uvsHRuOyRY3GlrxWG9SF53dgQnbDRt8n+90/MhuDvu+hRXUAdB6z4Td27Fj35s2bW7SYj2nLRuOpP31krTXPPLYlxzen2yc6iFk+WhGzAjLqZL7x/r+03P12g8OuMWa5T7rf2uWXfDJ4v5dY90/etQqCMeLND8zXXrI/cALG37vPGc870/1ac38ux7ON7ytAYsz4PszvMX1Xw+8D6CzELBIddhMoWXEtC4mOLqLLJjqCOLN9pl+DocZ71spnJEM9o9FgNgb9G2uNHXH/pKnG4Md73BlfTXD/5OD+po/zaDyy4vBzxvZYv4656bzxvMbzxTfX4fY0OhPca49a2wH896tGA9T3NYyG1ZcDPsZsgBqfwTzWKvGcNfzeo+6MDYfcZ4zHe+u4BY3GFrzWNdfFR9vdqcZxgRp8x7ITjPdtdBLqKr5FdQB0HrPhN336dGsrdOZj2qrR+H9e2eK++56xnp/NWbpitefYXb950yq5dt0+0REEMSuwRjEriLr629EgY3KNMSsYK740lUDysr7DmbuCJ3J8mEmnxsmaxrwx7Dn3O43qxEqYNZU4AjoQMYtEh90ESlZcy1KX6GCODrTIpVrvBcS9enp+SM4jeqdIGnNvrMKsonpDYjXB+LH7xEnvdjDWczocnh8N1VYrb8E8HXlkueaMbvQKjZ0r1NYcaVpygvV+ynXwTeP5x8cqpu491wmL1j2jpaojJxV8yogL2rkhS1WTnta0YVaRv9py45hSjXzygfrXKHv3d3LpGxoZ7d2+qo+Gjo6TTh3RyfoX7a8pL+TqpbQ4hfu/xxCE/lotqYsL2rcoTlFxi7X7nKfAw3mkWPsUp/tH9LFKror56jeMfwt1rNK73bI6AK5vD0yaoNtvHyCj0agNm4LfBnDZT55TwW/f8qyPHBHr+YngiFkBBIhZgblUcbxYRiDQ0HCryOPaYlZQteYrGpp7TtdJI75Ig+8eqqtvK3DMMrkumhOq3KywQN+XD9f5ail+kAY3ev0+ihho/Cg6qYqWzGUF2BgxC90BiQ60wAUdOWA0emLjNaKudXG2RmaTcPCABq0gr54DNdholLnOOb2Nl2DKS7VbDiXf3ahHrKo3VmjJB4/qxYw444jmVb2Zq90D05U82jraVaMzp4xOeESA96cIRZovecap896Cxo7las2bEUp7vK4R2pjrUL7WnkrQ45Mi6kpU85HRYBoWEbARGPkP5ovW6HwL5lILrgWvda11YThz1vy2B+m2/t7tBiIHaYzxfpxO89vuyDoAur+/NxqMS374gyYbjr4Nxuy1L3oeg6YQswJpHLMCuFitklzjs+RHafZPUjTYKm5PziNFOqhY3T8iUIDxcn1oTmK6XHl3zNTqlCirtGneZNcWTbUmIPVO7FqkqkATjAZJZrg8ZZWqIjkPeBCz0B2Q6EDIqvLn6gdvRintB0mKtMp0rlplxg/HLYGadL3MkyhSdY2CTlB/sVQrv5+lM+MWKa2uoWdxHc7UEwuqNe0nGRrZ2ypsSqCzVOdqVGX8CO8duMnnMI87Vh3k/V3Q7k3ZqoqdrmmjgjVZjWPycqVpKZrQzyoyys4YfXzd6lBfb0FDN5n/lKvK76xT67TgtVpUF300dkWxKouX+3wuoyH6Ubnxb5AzY8bjzeKqGjN70ZF1ANjDqBGxQRuO/g1G81g0jZgVSKCYVcf4bFYyICp2vKbu6q9lb+VrTtDnakOn8vXMokINTpun5DussjpGvdbdJSU6IUU7BixW0ev+dRw4Zpn6xqbr1c2bvUv2cqXFSfsy03Xfw5kq8Ul2xNybYsSwbdrwhhm8fBjvbcNr1jqAesQsdHUkOtC82gsqWZ+i8UYD7sGsbC1sq0bPhwWa/3CKcvplaPsLRkO0rqFnMhoWs57YpohVob9eSGepWuLDXdpQ4NKExydfbST7M47Z+maEnvpmaGfvAKApgRqONBhbiJjVypg1SMl1CYEXFint9iLNiI/TrNwAt91tQ87S9Zr6wGJVT8rSK3NiG7+vqKn1iYqXlk5XxN50xd2ToZwgtzT3FzYkTmPutZZxSZrzfK6Kt03X4Mot+t5mM3nv5Rg9XcvGSfsWJOmxpbnaeaBYOzfO09SHN0ujzaE0YeobSgILuI4Qs9CVkehA05yl2pj2DU3d5NCcvG1a7d8g6+loooPvlOtj48egCJ/raL2qChZr8oOLVXZ3pvb8aqZifBsP5hmzJ4xGT8pmvZwUagMwyFkq4/0F55LTPJszelCj92eqKMpXiVL0SELj+SjqlBVsUUnsdE3xuxa6143WSgCuTy4b/8ZpcBuN4Av5ta6hLuoFvCjdctHluW588EDvsOOOrAPATvwbjjQYW4CY1aqY5dVHg+sSAokpWvhCvvasGqF9S9O15nA7pDrMhNTGVMUnb5LjqVxtX5HQMHlUp19UfaJiSso8vfT6Lq0eUaQlM7NU0sq35Rg1S09NMr7X/ziiCqtMPSOUvK5Qr2aMVs2bK/RMaqp+tN2l+7O2aNm4MKn3QIUHux4IuI4Rs9BVkehAcB/ma1ZCivIGzNOetzcrLTZA42lAhMYYPyo+OOvd9lVbo6pjftcaGw2bg1lJGr/opMZmF2rXisRGDZuaN7O1sdJ4zo0piq4bRutZUrTRPMAoN7dn5Pu8ZrCzVOERnmuL9530G4rqUaMz5sSZUeG6zVvgo1y7N5XLMS1BY4K1O13FyttQHeDsWX9FmJcOF530DEH2d+Z0E/NctFgLXqvVdXFVZESc8W+lKk57txs4Yw4Jj1ak5wk6sg4A+/FtOJpoMIaAmNXKmBVc5EOpmqZq5fz+6siHNmFO2vrsNzR1e4QWFhTp1bRYhQVKcgRiJiSmPyqd2qa3W/22rAlG/S8D6tlfY2ZnaU/xcVWeOK7St7I0e3QfnTQnZR03tEPmKgG6I2IWuiISHQjsXKGeeXCxTiblateqJA0ONlxzwFCNMhoL+44ebzy09YR3wrYxQ69OGFa28VE9tjlcy36TqzmjA/dyw0b7XE/bYJnrmRFfk+Z6tp8yGh91gp+lGqRRicaPQ8evnrWp4yzXO4ekscOHNj7DV16kvFNS8n0BhtFanIW5ylGKHg9w9mzwcPNFi1VmNkobuKDjh4wGU3y0YoI9cQuF/lqtrAsf4UNHGA3kIpUFGDJc9p+/k3rHKca6vroj6wCwI7ORuHP7Nu0wFhqMzSBmXVPMas5tvdryP+sL2j13sub/IUnbX1+u5CGtfe5wtf5tnVXFCeNH/KDmkz7G79ZrudKUhNFBJ3gFQMxC10OiAwGV5T6vnVFz9YtA18s2EK0JjxmNwtxc7TAaWVe5tO+1bFVFpevBuv/rzhVo7ZpKJb+QpWTzTEoQjoGxV6+nbbCYnWzDwBGe7ZEDrXfW5FmqPhozKUmOY1uUd6hhs7Zix2bt7J2oR8Y1brxWvLtHVUrUPbHBPn21dmwtVOSTSQHPnoXdm6Dk3uXa+Fpxw8Z0pXkNtUNTksY3fYlIC4T+Wq2riwaiEzTN+Lpzthaoyndm+otGI/vlag2eNVkjrbNyHVkHgJ0xU33ziFnXFrOCqXpjs3IUoeR7G99hptWO5WplQZQW/mxeaJO2+jNHg2zZZtRrksYOscpayHV4kzYWSWMn3dd0HPLcLnixdkdl6MnxLU8QAdcjYha6ih6ef+cfc7tXxXhW0bGOHj2q4cOHW1tt4/2qj3RX5O3WVmsYgf3x8ZrfZ642pQQ5wx8+VGOGWEHfvD754RRtPBentHmpun+AU2X5m7WmwKVp2/KvTsx2KFNRjxdpWuZiTQzYsnAo4u5YRQZthJkzwhuvk5arynlXM8XOggzFLgrXq8WLAjfgzIbK7MmafyhKU55K1SPRYao6sFkrN5Zq5Kpd2tTomuqz2pker2fOLNKe14PcVu/Yet338H6lFeZqmv8M8Zaq/HSNX1CswYlP68mkoQo7vV8bMreoZMRy7VnnN5GdjxrjcXELorT9hNEItMqaE/JrhVwXF7Rv0Tc0o3C8Xn6r4Sz25p0FJj+6RWfuna6F0+5T5MXjem3Dz7TT9ai2v96w4draOgA60l133aU777xT3/72t62S0Pzyl7/UBx98oPfff98q6b6uPW60HjHLTyfErJo35ukHpdGaGD/U+3lc1XqnIFcbCyo1ePZmbc8InkBqacyqykvVfYvCtHBjytW7zTQQrph7oxRmfq5nF+nw0ATdHx3heX3X6UN6Y+sW7fwwSrNfyfW5I0ywmGU8x9JMHRsSr/vvML/EGlUU5mtNbrFc4/zjUKnWpRcoLDFBg43H17/W6Xi99HqWpjSR7AI6EjGrfWJWe/TJEBqnM+i9zlql76oqafUwb57Dk+hAp3jvvfestbZT+d9/stZa64j7J1+Kdt/V1PLcEetYy/nj7teWPOr++lfN/V93J3znOfeOP1yydnqd2T6z8fM0WGa6X/vIOjgg6301eO0q99Z/iXbHrz1ubQfxWY37nbVPuxO+br5OrPvr35rr3nCwxtrpz3qdlYesbX+X3O/8ONZ919O73OetkmDO/D7bnT7h657P9+V/etSdseGQ+8xn1s4gvPX0nPuwtR2qkF8rpLpwut/+ofFcX1/kfutjq8jH+ePb3T/61j+5v2zW09cfcKc/t8v9x0+snX5aUwdAR1q6dKnbiIStWjZv3mw9S/d27XGj9YhZAXRwzLp0co/7J9952KoPczHrZLl76++DveZVLY1Zh5+re41gS91zXXL/8bfPudOnWLHGXMx4s+RV9zuN6j1YzHK6D2c/7U78J+Pze57DqMspT7t/suu4+3yjOFTl3vH96Vadm/HqYU9sO9ZcoAc6GDGrfWJWe/TJEJrz58+36WLmNozfd0Z0dLauOaKjGwlhZEWbO1egWXGLddvmQ1p2b7BzXAC6k3379llroTPPqJmLHXTvER3dCDELQBsgZjGiw07aa0QHiY5ORqLjWrh0cPloPXZ2uUqzEjtskrCq3BTdt+E+7frdzCDDbgGgeyHR0RGIWQDQFkh02Et7JTqYjBTdmENjFh9RZQc2GE2RKbmqfJsGIwCgJYhZAAB0FBIdAAAAAADANkh0AAAAAAAA2yDRAQAAAAAAbINEBwAAAAAAsA0SHQAAAAAAwDZIdAAAAAAAANsg0WFDN9xwg2qvXLG2AAAIzowXZtzoLMQsAECoOjtmofvgt8SGHDffpEuXLltbAAAEZ8YLM250FmIWACBUnR2z0H2Q6LChW3r30oVPLlpbAAAEZ8YLM250FmIWACBUnR2z0H2Q6LChPrf01pUrV+T8Kw1HAEBwZpww44UZNzoLMQsAEIquELPQfZDosKn+t35B585foOEIAAjIjA9mnDDjRWcjZgEAmtKVYha6BxIdNnXzTTfq9tu+qL9+clGnaz7WJxcvMdkbAFznzDhgxgMzLpjxwYwTZrzobMQsAIC/rhqz0D308Pw7/5jbvSrGs4qOdfToUQ0fPtzaah/mtWzmfxKuy596hnsBAK5P5kz15iRu5vXNXXXoLzELAGDqyJjVEX0yBOZ0Oq21ttF3VZW0elgPEh2djD8qAAAAAOg89Mk6T3slOrh0BQAAAAAA2AaJDgAAAAAAYBskOgAAAAAAgG2Q6AAAAAAAALZBogMAAAAAANgGiQ4AAAAAAGAbJDoAAAAAAIBtkOgAAAAAAAC2QaIDAAAAAADYBokOAAAAAABgGyQ6AAAAAACAbZDoAAAAAAAAtkGiAwAAAAAA2AaJDgAAAAAAYBskOgAAAAAAgG2Q6AAAAAAAALZBogMAAAAAANgGiQ4AAAAAAGAbJDoAAAAAAIBtkOgAAAAAAAC2QaIDAAAAAADYBokOAAAAAABgGyQ6AAAAAACAbZDoAAAAAAAAtkGiAwAAAAAA2AaJjutA2fpUPZNfKZe13YCzUPMnrtDuGmu7O6u1ftbx3/Y4q7y0oYpdV2pttxNnsdZkbFZZwEpvI/6fz9X4xVwHMjU+NVcV1nZglcrJyNQ+O/wOAOj2iFm+bBSzfLhO5GpW6nqVXLQKfF0s0pKJqVp3+IJV4I+YBQBoHokOuztXqA0vuzRqRJQcVpEvZ1GBDo5L1Nhwq8AUsLFlqHXJee5Ci5eaykrVBHtOg8sZ+HEBF2ewVlipVkYPVdQQn2Vmvhq3g/orcpA0ckCEtd0OThVoVlqBhs1LVUygSm8TAT7v8CStK/Wpn9pK5WVt05jUJA22igKL0rRFo/X27AztPGUVAUBnIGb5sUvMasgxJEmPD8nX97KK/RJaLh3MWmF8xxlKG9XHKvNHzAIANK+H59/5x9zuVTGeVXSso0ePavjw4dZWGzIbaT3NM2OJ+p6e156Z0dKxzZqxPVwLFyRqsNmYqS3XugeStKbS84gGBs8r0J60KGvLcjpfM+IXa5+12RKOpCwVr0pQmLV9lfEe7jfeQ6iNlfjlKt6YJN82rpfRaBySrcFF2UoeYGya73WR9Jx57EWjsWm2pBx9FNZbKskcqrWDirQpqb+3Iey8bOy8WWH92qCFd9F4H48a7+MXxvsYaJX5qHlzsWa8FadfZCUq0iprivleZxxZpO3bUvySFX6f98NcTX2wUnOKF2mM52O4jMcmaerGAF+u+mjCC7/Ry4nG5/d1yqizhws18fXA7x0A2g0xy94xq+4z+bp4UgdPOjRyeER9UutM4VxN/nWcXv3ZVA2+0SqsY9VHPWIWgDbUbn0yNMvpdFprbaPvqipp9bAeJDo6Wfv8UV3QvkXT9fad8SrbLi3ckaGRDpf2LR2tlb03a9e8WE+joiovXfftT1TxusSrjTBzyOg9RqPn9VxN82sztpizVOtmpmpt37nanpmimMYtRoM5LDdeFbOOa+EoqyiYw5mKenlQixuNVUbDa+pG71HBTdf2E/M00tpqldpq5c1OUllKkZbFB26A1ryRrriChAafwXnqrBwD+wc8e2k2GqfWblblgjirpE7Dz1uRk6QnnCu0f7bROZDLM/T7sZfLNXLhLm1KvnomsCo/XeM3ROnV143P6ttgtLgOZWr8xkH61fokRRqdDgBof8Qsu8csT3mzn6kZAZJGxCwAbYVER+dpr0QHl67YUh+NnZUu1/b1CnsyyWgwGkXlW7Ty0HStzvA2GM0zIUvW1Cjm5M+04fDV0ywV+dnKeyhdydfYYHSW52pWQqre+kqWitYFazB2jJHzjqvyxNVle5o0dlVRg7LKa20wGpx7fqYljsWaE6TBaAqP9KtYV6V2LE/Q5AWFqgoyVDry1mYqr7Zcuzc5lJYY7Wm47lyQpKn77tOrRbs0cW+G8b17r3OuenOxntgQrpdeCZzkMDlGz9LCsBVa8sZZqwQA2hsxy5cdY5b/Z2rVEiBhRMwCAARDosOuBiZo9SvLpeXpRmOxVDlL8jV2abq3AWlej/vwZg3+Ra62L4xXzg+zvBOCGQ3JlWvC9Fx6fMAzNSGpPauDWSmKezRffRfv0q4F8Qq/Ls6yVGvH5kIlJwca6twER5SmrdultHPzNPnZAr+G4wXVnJYG9W98LtCXc89mbRiRqgfvMDaqi3XYka49v5ppNNQjlPzCYjlWPaDH0lM0PsuhhTnLNaHJIb59NOGxR3Vwbb7KgjRiAaDNEbM6WOfFrBapKdSSh9OVE+gqTA9iFgAgMBIddjYwSS+/Eq99j6do44jlmjPaaAoaDYGak8d124JsLRzlkCN+rl4dV6T5yzM1/4kV0uJFmmIOo22pDwu1JmuFHrsnXrNK79OmwnytTmzHydNCZF6q0WCyN2Mxh8/uMxqz/uVRQzJVYj2uxSqLlFeapPvvbkVzu6eZkNis5D/M0xNrSn0mZqvRmQ+kwXf6zaXhq7bSaKyW6skZVmP1jiQtW5roHcJb61LVkSOqMp6x4oNqORxOVRytlLO5xmDsfZpmdCD2nbC2AaAjELNsHrPMy3X8P4N3mZFfNyLDPCZO9TeZCQ+X45jkCDIK0YOYBQAIgESHzTkGDFJElDn8N046sEKxK4sVFj9Pyx6qa9A5NDJjscbu36K8fnO1sL68hc4e0bp1xxXzQpFKN8/UmDY8oRM6o/EbbzWcrAnoIpOyAw+B9Sx79PLsuXq58Ii13fqhwM4/lKpsdLQGtfa0Yu9YLXwlV8umDrp6ZtJ5UoePxWvYP1jbgfQcqJi7b9aOA+Xe7VqXaiqLlZc1T1PvGa2pOTUat/p3Kt7xGxW+mCi9uUjxo+I1dW6W8vaWB76zQM9BGhxfrcN/YCgwgI5FzLJ5zFK8Vhc1/FzmpTkNjVB4S5JXxCwAQAAkOuzMnGhsyWYN/kmGxvQ2mofD45X8Zq52n7P2m2qKtWZ6uvZNmqvZel6T/zVLB09b+1osVhPvbWL0QRNc561b8TW1nDdnmm+KTwOqaLnGWqXBndXhddtUcbG1Lb2rXBedUlS4brO2W2VgrMZEXb2dnqu0WDuHxWtokw1wo9H/1AqN/fVcrSs3zwZmKPGH+aqKSNLqt46oOHuepkT3kXPvcsUtrdGE53NVWmw0Tu8LV9mbh3TGepaG+mvwEOngh9XWNgB0AGJWM+wQs9oDMQsA0BiJDls6q7z0eMXdM17ziyq18dERioqN1+TpRoPwxiJtfdNoDNReUFn+Yk1OWK6aqfnatThVc35VqJe/UqQZ8XF6bF2xqvxvBdeOctLjFBvXzJKeax3dlqIU3s9avQZVJ4uk3mFXz2xdM5cO7s1V5IQRfreVDaB3rJ56apDWZBeob3K2irdlak5SnAb7fK6w24zG/M1SL3PDEaGYxBQtez5VMU1ci+7qwO8fwPWMmBW67h6zfEaxWMs1343FQswCAPgi0WFL/TVxwRYVvFWs8vLjqtw2Xbo7Q5teNxqHO/L1eO16PXaP0TAsiNDCtwq0bFy4t7HTs7/GLshX8Y55ityTrvuGx2nloY5pOaRts85qNbWYn6OlzNv7+TSoGi4p2ujb6ErLV431sJaKHBQvXXT6XKvcAuZcGgc2a6fv9cUf5mttbqzSJpq3i21eWHyiprxZqhLjDZi38Wv0WR/dYrQvFyuuvixdec2cBXW0XQsYAJpAzKpn+5gVyqUrrUPMAgD4ItFhU2F3DNSlD0+q6hOrwOSq1r6jLk1ImqmF24q91yX3q1Tegm8oNnmF8sq9tyENi07S6h1HVPz6Fj35tW7echg1r0GDquGSqzTfRleAW9eFytE7TKqsCXIpSBC1F1Sxd71m3D9a4zMr5aif+v6Cdmc9r7KUdCWbd1IJxS1huk3VOnPOexu/4lVGIzYt9+pnNRvc8ctVXP/Zs5Uc9Bros6qulMbc0fkT8wG4PhCzLNdLzGpTxCwAQGMkOmzrgg6uXa6DvnNzOS6r6qVs7XZFKKbuulrzVnHZxSr6UbRKvhevyYuu3i4ufFi0bW6zV/VGhqZm+c4O37bC/jFWMYfKdTKUF3i3UBsy0xU3Kk5Ts2t0/4uFKt+xXBOsxENV/lw9U+CSy3i+iubukGJynVVZ7mblDByhmNbcfcBfbbWOHYrQqH9s3bXrANByxCxfto5ZbY2YBQAIgESHXdWeVEXRCEUOtLY9ojRyQrn2HvKeBfMVNixJq3+zS3OG1p+i6YYaz2BfJ3J8qka+mapZ+e00WVlUvJJj8/X2u4Fbja5T5dqXn6lZP8yXLhbr4Ok4Pfd6sUrzFmnaqKuNs5qiFXpiQbWmbc3X6juz9b0Gt+4LoLZUK+MSNOO3EVq2frpirOJrUl6s3f2SNHaItQ0A7Y2YdX3ErPaYo4OYBQAIgESHXX14UgfjoxXjN4p3cHS8dpYe96w7CzP1zMYClX1oNUt6RmhsSrwiu+0ZsSZmsDdvhfeLuXIuWKy8U1ZZm4rQg6kJyssrlNMq8VX2aopmZVUq8sn12l96RLteSNVYn9nqPRPt5WYoIW2XBmVma+HoaCWvytTQ3GYauj2Nz2U8X/G2RUoeUq6VVsMxbkGRtDHlamOy0Rwd5pKpEutprrqg3ZuyNeippCYnKgWANkXMuj5iVrNzdBifu8lLK/0RswAAgZHosKmKA/nSfSMaXb/rGJ6iVx8a5F0fcp/u+aRIS5JHKDo+XSvzS1XTGcNODW1xq77bhoWrb11DJzxRL72Q2PDzR6VoU/HPlNzgjGHbCRv/tJa5lmtNUePzWSMzDqm8yGgMJsUqsrdVaHFWFmld2jc0Ocupp/J+p5cfsq4z7peg5155VNULkjTrjVDO6pkNxIYNyPql0Rwd5jJPI61H1nEdelkrq+dq4UMMAQbQcYhZ12PMunbELABAMCQ6bGpwwmKtTojyrNd8UOn56dEvSmOivQ0Cxx1xSs7I1PZ3jmjPiwlS4dOKHxWvGSHdpu+CKg4V6+CBclWdrtTO35q3qmv9JHDXfqu+WKW9vlwT6lqJPR0KC2v8fsL69TFaRlYj9HRNwDNZrdYzQskvrJdjTUbjM3ABpoP3NBbNWypOnKt3ohdrV+FmpcX6nDEzOEbN0/atSTo5b7Jm5FS22/XaHqfyNSujUrNfTNFgzowB6EDErOsvZrk8CaGzqjlnFfhwOa3PfOK4KoztXoFiEjELANAEEh12NSD26sSUZgPgxiYadEYDK3JUkhZmF6n0N89r1LtztTHIdbtX9ZGzKF2PpSbpvvhE/ejAIM3JfqzRCIHmVavq3Xa8VV8g5/boGbMRGr9IJQ8maoz/KcRr4RlunKi3v7dYu5sablxbrR2Zi3Q4ymgUFhfr1XmJiglyqXnY6Hl6JStRro9a38R1XWr6zKJqirTke0V66PXsdjt7CABBEbOCs2XMculglpkQitcPjiTqoXsbjsio2jHdmyxKzJIzI/1qQqgOMQsA0Iwenn/nH3O7V7XJNIZooaNHj2r48OHWFmzDWaw1i49rYmZqo2vOu55K5WRsV+SieRrblg1oAED3QMwCcJ2jT9Z5nM42Ha+ovquqpNXDepDo6GT8UQEAAABA56FP1nnaK9HBpSsAAAAAAMA2SHQAAAAAAADbINEBAAAAAABsg0QHAAAAAACwDRIdAAAAAADANkh0AAAAAAAA2yDRAQAAAAAAbINEBwAAAAAAsA0SHQAAAAAAwDZIdAAAAAAAANsg0QEAAAAAAGyDRAcAAAAAALANEh0AAAAAAMA2SHQAAAAAAADb6OH5d/4xt3tVjGcVHevo0aMaPny4tdU+LnxyUZ9cvCTX5U915coVqxQAcL254YYb5Lj5Jt3Su5f63NLbKu1aiFkAAFNHxqyO6JMhMKfTaa21jb6rqqTVw3qQ6Ohk7flHdfnTz3T24//x/Cdh/ufQq9fN6mmsAwCuT7VXrujSpcueZIKZROh/6xd08003Wns7FzELAOCrI2MWiY7O016JDloQNmU2GD868xd93mgsDgi/1ZMJpcEIANc3Mw6Y8cCMC2Z8MOOEGS86GzELAOCvq8YsdA+0ImzKPCvWr28fhX2+aw5NBgB0LjM+mHHCjBedjZgFAGhKV4pZ6B5IdNiQObzLHPpLgxEA0BQzTpjxwowbnYWYBQAIRVeIWeg+SHTYkDmJW1edZA4A0LWY8cKMG52FmAUACFVnxyx0HyQ6bMicqd6cxA0AgOaY8cKMG52FmAUACFVnxyx0HyQ6bMiclZhJ3AAAoTDjRWfexpWYBQAIVWfHLHQftCwAAAAAAIBtkOgAAAAAAAC2QaIDAAAAAADYBokOAAAAAABgGyQ6AAAAAACAbZDoAADA8MEHH2jfvn3WVnDmMeaxAAB0FmIW0DQSHbgmzoLFGj87VxUuqwAAuqlf/vKXuv/++62t4MxjzGPR/RCzANgFMQtoWg/Pv/OPud2rYjyr6FhHjx7V8OHDra228X7VR7or8nZrqz1VKyd5vN5+pEibkvpbZR3P5bwgV6210QRHWB85elobrVHrktN52dpo3jW/HoAOYZ7pWrZsWf3ZsenTp1t7AtuyZYvuvPNOz3Hf/va3PevdXcfFjcaIWYERswAEQsxqn7jRHn0yhMbpdFprbaPvqipp9bAeJDo6WXdOdLiKVih2/s16eccsjbzRKmzSzQrr57DW28pZ5aXFa36RtRlUvFYXZSt5gLXZCs435yk2o8Daal7atuNaOMraANBlpaamehqCrTF27Fi9/fbb1lb3dT0kOohZTSNmAd0DMYtEh92Q6LCpbpvouFiqlQ+naGOltR2S1jbcLmhnRpx+0H+zShfHqWGz09torJjVVAPNeK9DsjU41NeuLde6byTp7Sf3aHtKhFVoOJypqJcHqXhjksKtosBCeU8Auoq77rqr1dcvm2fG3n//fWur+7J9ooOY1QRiFtCdELNIdNhNeyU6mKMDLVdbrbxnU7X7vs0qP3Fclb7LtulG23C5iv3LPUsrz059uEtb34zQU9/0bzC2D9ehfK09laDHJ/k0GAEA3RMxCwCA6w6JDrSQSyVr0jX/g0f1YkbHNOLKCraoJHa6pgyzCgJwnb8g57lgi9N416G6oN15udK0FE3oZxUBsD1zOO/mzZtbtJiPaUt/+ui0tdY889iWHH/9ImYBsB9iFtA8Eh1okZo3F+uxvSP08ivzFPNZgAba+cvSZZfO+JcbSyiTrzXiKlbehmpNeHyyIq2iQHLS4xQbF2xJV451XLM6+EwcgK6hbqK2lixtOaHbhk2/1INTH/X8bM6ynzznObbkSKlVgmCIWQDsiJgFNI9EB1okfFKmSncs14SBZ7Xj2QANtPRc6dAKTfYvj5urHTXWk7SAszDXaPCl6PGEPlZJYOYkao2HHdctuUqzjmtOKGfiup4L2rcoTlFxi7X7nFUEoFt5YNIE3X77AP2fV7Y02XA0G4wFv33Lsz5yRKznJ4IjZnVFxCyguyNmoTsg0YEWc/icNmrUWAt6vXNrrnWu1o6thYp8MkljOuJUVShn4oKc+Wu41MgV+h39AEB/bzQYl/zwB002HH0bjNlrX/Q8Bs0jZgWKU74LMQtAyxCz0B2Q6EDXdew32lgaq7TEaKsgkGpVNHubvtCEdCYu4Jk//yVJSw5Zx3eIPhq7oliVxcu5RhvoxkaNiA3acPRvMJrHooshZoWImAXYATELXR2JDnRRLh38dbaqJqXowTusoqCi1FeBzlLVLaFM7Bbimbigs/P7LkVaHW8dDwAtEKjhSIOxOyBmAbj+ELPQlZHoQOhqXT4NMe9Q10YzxzcxsVvdEtIEb+cKtTVHmpacoDCrKKDTJ1WhSq15NNBZqrolhIndQjoT135KMocqaojfknl10qbm9gd2VnlpjR83I/9siPsBdAb/hiMNxlYiZrUbYhaAOsQsdFU9PP/OP+Z2r4rxrKJjHT16VMOHD7e22sb7VR/prsjbra02dDpfM+IXa5+12TrxWl3U/LXPVbkpum/Dfdr1u5mK6WkVBnI4U9GPSpvK52lM0ONKtXJItgYHfV2XDi4frcfOLldpVmLwRqrxWlEvD1LxxiSFW0WBmY2xeFXMOq6Fo6yi5lw0GtT+p/AcfRTW21pvbn8QLmeARnpv43HWGcDm9gPXg7vuuqv+Vn0tkZqaqn379un999+3StrW4SOlnjNjH310ut0bjO0WN0JAzPJHzGqAmAU0QMxqn7jRHn0yhMbpdFprbaPvqipp9bAejOhA6AYkaVPAYa8+S9CJ3eqWECZ4qy3Xzg2lGvnkA003GA1lh34nV+KIZo9rUqhn4tqT2VDr57f4Ngib2x+EIyzA43wahM3tB9B5zEbizu3btMNYOCvWCsSs9kPMAuCHmIWuhkQHuhzXoXytPZWgxydFWCVBXCzyzjg/bvQ1Nfaq3szV7oHpSh5NawlA18NM9V0bMQsAriJmoasg0YEu5oJ25+VK01KamY3dpYNZK5QzIENPTWpixvnmtOBMnEeXvFXfBe1bFKeouMXafc4qAtAiH3zwgbZs2dKixXwMrnfErJYjZgHXipgFNI85OjpZt5qjIxQhXxMcxIe5mpqwRfe/vkezh1llAVTlpWv8SmnZb7KVPNAqbOCCqipd6tvPIVdlrmY9ekTJAa53dh1YodjUGj1XnKUpzd3mzvxsj26xNpqXtq0F1ztfE7PR+A3NKByvl9/idn1ASy1btkxLly61tlrGvEZ6+vTp1lb3Zcs5OkJBzKpHzAK6B2IWc3TYTXvN0UGio5PZMtHx/b7a9fZMteY3qmzdeE3eP13781IUaZU1UlOslfOy5Hhqs+aMCjZ016V9S0doRq653kcjM9br1dmxanj0Be3MiNMP+m9W6eI4v32N1byRrriChPaZ2A1ApzInaGupO++807PYwXWd6CBmEbOAboaYRaLDTkh02JTtEh3XwlWsJXGpOrOiWC8nXsPQ3lCFeCYOAOzuuk10XAtiFgB0ChId9sJdV2B/jjgtKz3eMQ1G0x0p2n6CBiMAoBWIWQAAdFkkOgAAAAAAgG2Q6AAAAAAAALZBogMAAAAAANgGiQ4AAAAAAGAbJDoAAAAAAIBtkOgAAAAAAAC2QaLDhm644QbVXrlibQEAEJwZL8y40VmIWQCAUHV2zEL3wW+JDTluvkmXLl22tgAACM6MF2bc6CzELABAqDo7ZqH7INFhQ7f07qULn1y0tgAACM6MF2bc6CzELABAqDo7ZqH7INFhQ31u6a0rV67I+VcajgCA4Mw4YcYLM250FmIWACAUXSFmofsg0WFT/W/9gs6dv0DDEQAQkBkfzDhhxovORswCADSlK8UsdA8kOmzq5ptu1O23fVF//eSiTtd8rE8uXmKyNwC4zplxwIwHZlww44MZJ8x40dmIWQAAf101ZqF76OH5d/4xt3tVjGcVHevo0aMaPny4tdU+zGvZzP8kXJc/9Qz3AgBcn8yZ6s1J3Mzrm7vq0F9iFgDA1JExqyP6ZAjM6XRaa22j76oqafWwHiQ6Ohl/VAAAAADQeeiTdZ72SnRw6QoAAAAAALANEh0AAAAAAMA2SHQAAAAAAADbINEBAAAAAABsg0QHAAAAAACwDRIdAAAAAADANkh0AAAAAAAA2yDRAQAAAAAAbINEBwAAAAAAsA0SHQAAAAAAwDZIdAAAAAAAANsg0QEAAAAAAGyDRAcAAAAAALANEh0AAAAAAMA2SHQAAAAAAADbINEBAAAAAABsg0QHAAAAAACwDRIdAAAAAADANkh0AAAAAAAA2yDRAQAAAAAAbINEBwAAAAAAsA0SHQAAAAAAwDZIdAAAAAAAANsg0QEAAAAAAGyDRAcAAAAAALANEh0AAAAAAMA2SHQAAAAAAADbINEBAAAAAABsg0QHAAAAAACwDRIdAAAAAADANkh0AAAAAAAA2yDRAQAAAAAAbINEBwAAAAAAsA0SHQAAAAAAwDZIdAAAAAAAANsg0QEAAAAAAGyDRAcAAAAAALANEh0AAAAAAMA2SHQAAAAAAADb6OH5d/4xt3tVjGcVHevo0aMaPny4tQUACNXB/1eid4rf1Z9O/1mXL39qlQLXp5tvvkl/P+DvdE/c3RrztZFWKQAgFPTJOo/T6bTW2kbfVVXS6mE9GNEBAOhWqv90Wsuf/5le3/WmPvjvapIcgMH8OzD/Hsy/C/Pvw/w7AQDgekWiAwDQbZidtxd/sUFnas7q0iWXVQqgjvl3Yf59mH8nJDsAANcrEh0AgG5j86t5jOAAQmD+nZh/LwAAXI9IdAAAugVzTg7nhQvWFoDmmH8v5t8NAADXGxIdAIBuwZx4lMtVgNCZfy/m3w0AANcbEh0AgG7BvLsKgJbh7wYAcD0i0QEA6BaYmwNoOf5uAADXIxIdAAAAAADANkh0AAAAAAAA2yDRAQAAAAAAbINEBwAAAAAAsA0SHQAAAAAAwDZIdAAAAAAAANsg0QEAwPXsm0/qJ9+frn8ZZm37+6fpyly9UM9OsrZb5V59d9mP9cJ37rO2AQAA2g+JDgAArmdnP9VNt/XRTces7QZGKn1slD6nXoqIeUgxVmkwEUO/ortHBlo+r5uM/Z/d0CvAPmv5SpS+6H0aAACAa9LD8+/8Y273quaaL2gPR48e1fDhw60tAEAw3533I2sNbcocsTG5j0rn/Vy5VpFXP42bOUvfvOOc9v7iPUU8MUF3ffKecjdv17t/sQ5pIE7fXfKAhtxibbbU3yr16yVbtNfaRNv5eeaPrTUAQCD0yTqP0+m01tpG31VV0uphPUh0dDL+qAAgNCQ62knAREc/jXvySX3zrk/1n7u2aOPBc9IX79V3vzNBQ278SEW//jf9e6lRFjLz0pUJivzTbs1bf8AqQ0ch0QEATaNP1nnaK9HBpSsAAFx3vHNmmB3gn082L00J1xhzfdl0jfviV/Qvz8zSN++SynZbSQ7TXw7o57/Yrr1/7qP4lO9q6cwHNCbCuwsAAKArYURHJyN7CAChYURH+xg3c6G+OegzleVlavcX/lXfHjdEX/xblf7zfLi+GtHLOsrH3ypVsOevunv8VzTAcU7v/upF/dIzv8dD+mHmSA3wHNQaNTrY6PIZtAVGdABA0+iTdR4uXbEp/qgAIDQkOtrDV5S+eKpi+kiffvAfeva1G/XthL/qP/6tWNXWEd4ExlA5d63Uz/+vVeRxu+Lv+weV7S+Wd8oOb6JD7/5IP8nzFNT74vjp+u6wv2rvL7erKND8HkHnCUFbINEBAE2jT9Z5uHQFAAC0rS8N1YAbLulvf/ur/vb3X1HKrf+hXzZIcjTlIxXVJzma8MV7lXJvlHp/8pHKPAdHKeU731X6A0M8uwEAANoaiQ4AAK5TQ+JuV1hNjc7rjE78qZ/unvDP+qJnZIY1f4dnMS9H6aUhk33LfqwfJltPUu+c/ny6Rn/+2Hje8dO1dMF0fTP2K/p26j/rrgsl+uX6A56kSEzyA7o74nOS64L3YaZP/kenjcc2mzQBAAAIAYkOAACuSyM17q4+qq6o8WxVFR6X8x/ilHKfuXVJJ3b9yHO50Hfnlei0Z/6Muu0f6eAZz0P87NfGF36ujb+TThwu0X+ev03jUqbqbscJvbH5DZUZR8Qkf1dPjOyj93dvUPbvPlLMA9/St+/rJ5W8oRde+Dft9j4RAADANSHRAQDA9egbozTE8ZHKDt+om8ztP25X0e+KtXu/Z+9V//QF9bVWQ/aX9/TrX2Qqe3+VnH2GaMKD92nMg7P0bTPJ8bvN+vl+804u/fTFfrfrq5Nm6QcPchkLAABoOyQ6AAC47kTp26Mi9bfKw9o99PPqbZXu3fMfOmGt1zNbClc+09+8W8F9sZ++aK16RAzR5z4qVsH//W9pyD8rZUwf/eX4CTn736tvf2uq0mZ+S/9022dyunop4t5v6YfJJDsAAEDbINEBAMD1Ju4eDfniOZ34vyVWgT+fOTkeiNLnbrhd43zm5xhzm3WYry8/qB/4HPPzp//Vk9BIufcf9LnPPtOn+rwivhyliL+/3bOEfVqj6j99pBOHfqN/LzmnL979Lf0wKcp6MgAAgNbj9rKdjFsZAUBouL1sW4pS4gO36+BvDugv5q1dvyG9tWSL9lp7rxqp9MUPaYjjM+l/3tMrP/XOtRHY7YoZKpUd/8ja7qe7747U++++55lkNOX7P1bshd2at/6A9MWvKPF/9dP7O/Zbz9dP4755jz4r+k3g28/impiJJwBAcPTJOg+3lwUAAG2kUgVmksPaCqyfxs2cqJjP1ejd3P/Q+7eM1Ldn3qcIa29jHzVIcsT/63SlJD+ktAcjrTIffxelr8b9s574wbcU73nCc9r7a5IcAACgbZDoAADgeve5PhpgrXoN0TdnPqnEQdKJ3b9S7vED+vm/F+svf//PetZz29h+1nGNfXHQvUr7wXf1L0Nv0ok9G/Tcjiprj4/jb+gnvzqg6puH6l++8z19d/JXGs7vAQAAcA1IdAAAAK8vRmlc0pNauuJfNe6OT3X81y9bd0gxHP+NntvwG/2n6+81LuV7ynz2W0qMi/JJUEQq8TsLtXTmBA29oVIF5l1Xflc3wiOA47v1wvJfae+H0l3/NFU//MFUfdXaBQAAcC1IdAAAcD27vY8+51npp3FTv6Vvjuinvx3brZ+veVEbD1pJjjrVxfrlCyv13I4SnXYM0YRxX/cZCVKlgn0HtHvHy3p21a+0u9oqbtIJ/Xr9i/pJ7m69sWu7/tMqBQAAuBZMRtrJmPgGAELDZKRA6zAZKQA0jT5Z52EyUgAAAAAAgGaQ6AAAAAAAALZBogMAAAAAANgGiQ4AAAAAAGAbJDoAAAAAAIBtkOgAAAAAAAC2QaIDAAAAAADYBokOAEC3cPPNN1lrAELF3w0A4HpEogMA0C38/YC/s9YAhIq/GwDA9YhEBwCgW7gn7m716uWwtgA0x/x7Mf9uAAC43pDoAAB0C2O+NlJhffpYWwCaY/69mH83AABcb0h0AAC6jdTHkplzAAiB+Xdi/r0AAHA9ItEBAOg2Iv5+gL73nSd1W3h/LmMBAjD/Lsy/D/PvxPx7AQDgekSiAwDQrZidt8Vzn9bDkyfpzn+IYIQHYDD/Dsy/B/Pvwvz7IMkBALie9fD8O/+Y270qxrOKjnX06FENHz7c2gIAAAAAdCT6ZJ3H6XRaa22j76oqafWwHozoAAAAAAAAtkGiAwAAAAAA2AaJDgAAAAAAYBskOgAAAAAAgG2Q6AAAAAAAALZBogMAAAAAANgGiQ4AAAAAAGAbJDoAAAAAAIBtkOgAAAAAAAC2QaIDAAAAAADYBokOAAAAAABgGyQ6AAAAAACAbZDoAAAAAAAAtkGio5P17NlTly5dsrYAAAAAAB3lb3/7m6dPBnsh0dHJPve5z3n+uAAAAAAAHcs86Wz2yWAvJDo62Re+8AWdPXtWbrfbKgEAAAAAtDezD2b2xcw+GeyFREcn69evn2644Qb9+c9/tkoAAAAAAO3t9OnTnr6Y2SeDvZDo6AIGDhyojz/+WH/6058Y2QEAAAAA7cjsc5l9r3Pnznn6YrAfEh1dQK9evRQVFeWZq6OiosKT9GDeDgAAAABoO2Yfy+xr/fGPf/Ssm30wsy8G++nh+Xf+Mbd7VYxnFZ3LzCr+z//8j+cPr7a21ioFAAAAAFwL8+4q5sSj5pwcXK7SNTidTmutbfRdVSWtHtaDRAcAAAAAAOhw7ZXo4NIVAAAAAABgGyQ6AAAAAACAbZDoAAAAAAAAtkGiAwAAAAAA2AaJDgAAAAAAYBskOgAAAAAAgG2Q6AAAAAAAALZBogMAAAAAANgGiQ4AAAAAAGAbJDoAAAAAAIBtkOgAAAAAAAC2QaIDAAAAAADYBokOAAAAAABgGyQ6AAAAAACAbZDoAAAAAAAAtkGiAwAAAAAA2AaJDgAAAAAAYBskOgAAAAAAgG2Q6AAAAAAAALbRw/Pv/GNu96oYzyo61qHi/5+1BgAAAADoDKPjvm6toSM5nU5rrW30XVUlrR7Wg0QHAAAAAADocO2V6ODSFQAAAAAAYBskOgAAAAAAgG2Q6AAAAAAAALZBogMAAAAAANgGiQ4AAAAAAGAbJDoAAAAAAIBtkOgAAAAAAAC2QaIDAAAAAADYBokOAAAAAABgGyQ6AAAAAACAbZDoAAAAAAAAtkGiAwAAAAAA2AaJDgAAAAAAYBskOgAAAAAAgG2Q6AAAAAAAALZBogMAAAAAANgGiQ4AAAAAAGAbJDoAAAAAAIBtkOgAAAAAAJu44rZW0MAVKua60sPz7/xjbveqGM8qAAAAAKD7MPvwP9vr1uulbv3hI2nUndLv/2jt7EQDv3BFv02rsbY63w033CDHzTep9+d6Kezzva1SdCan02mttY2+q6qk1cN6kOgAAAAAgG7qUKVbM1+9oguXbtDZv3a9UQvOrK51EcHFv7nk/OsnunLlim79Qph6OW629qAztFeig0tXAAAAAKAbMpMcD77s1kfne3TJJEdX1PtzDg0Iv1V9Pt9bfz77sS65Llt7YCckOgAAAACgmzEvVzFHcriNn5c+tQoRsj639PaM6Pj4f9p2RAG6BhIdAAAAANDNmHNymJerkORoPTPZ0bNnT13460WrBHZBogMAAAAAuhlz4lEuV7l25iUsn/ztb9YW7IJEBwAAAAB0I+ZlK+bdVXDtPue4Wa7Ln1lbsAsSHQAAAADQjdzQw3sLWVy7Hj16qG+fW6wt2AWJDgAAAADoZn7/R2sF1+zc+QvWGuyCRAcAAAAAALANEh0AAAAAAMA2SHQAAAAAAADbINEBAAAAAABsg0QHAAAAAACwDRIdAAAAAADANkh0AAAAAAAA2yDRAQAAAAAAbINEBwAAAABA//tfb1DVyh76rrXdZXzs1tb1V/SN719RWMYVfWneFT2V69afP7X2A35IdAAAAADAdeyr8T30uyU36Kdfk/p2uR6iW88vN5Y/ScmJPbTr8R5aY7zP/yp263+96NaHV6zDAB8kOgAAAADgutRDu1beoP+b1ENf7yP9+W9WcRfz1Qd76OiyG/S/x/bQfaN6aMq/3KD8bxrv95RbecesgwAfJDoAAAAA4Do14GbpD8fdemL1Fe12WoVdSg+NH9vDWr+qb3QPTTF+/udHbm8B4INEBwAAAABcl9z62vev6Gvr3fr3s1ZRd2FdsuKgR4sA+LUAAAAAAHQr5//g1k7j531DG4/2AEh0AAAAAAC6j4/cenaH9PXYHkoeaJUBPkh0AAAAAAC6hfPHrmhqplsfDuqhV77dQ72scsAXiQ4AAAAAQNd2xa3//Pcr+l8bpF739FD+d3roDnqzCIJfDQAAAABA1/WpW//+olv/dET6UUYP/epfeqgvPVk0gV8PAAAAAEAX5daeX7j1xF+k3y2+Qf8SxeSjaB6JDgAAAABA13TcrR9XSj9Nu0Ff/5xVBjSDRAcAAAAAoEv68APpPXPlL27tPxx4Oe85EriKRAcAAAAAoEv685+9P7//K7cmbw28/MF7CFDPe4HT/GNu96oYzyoAAAAAoGsLy7hirXVtzqyuf279/aqPdFfk7dYWOpLT6bTW2kbfVVXS6mE9GNEBAAAAAABsg0QHAAAAAACwDRIdAAAAAADANkh0AAAAAAAA2yDRAQAAAAAAbINEBwAAAAAAsA0SHQAAAAAAwDZIdAAAAABAN3L+b9YKgIBIdAAAAABAN9Knl/S5m6wNXLMbbqBbbDd8owAAAADQjdzQQ/rS31kbuCZ/u+SS42ayRnZDogMAAAAAupmUr/XQrb17WFtorfMXPlHvz/WytmAXJDoAAAAAoJtJv6+H+vZ2q+/nrAK02IVPLurKlSsK+3xvqwR2QaIDAAAAALoZ8/KV9Y/10OXPrAK0iJnk+Ph/nLr1C2FWCeyERAcAAAAAdEOjo3pox3d66K7+0m19uIwlFBf/dkl/PvuxLvz1bxrQ/1b1ctxs7YGdeP8a5h9zu1fFeFYBAAAAAN3HFbeUvd+t1969ov863UOj7pR+/0drZyca+IUr+m1ajbXV+XrecINuvulG9e7dS30+f4vVGUZncjqd1lrb6LuqSlo9rAeJDgAAAAAA0OHaK9HBpSsAAAAAAMA2SHQAAAAAAADbINEBAAAAAABsg0QHAAAAAACwDRIdAAAAAADANkh0AAAAAAAA2yDRAQAAAAAAbINEBwAAAAAAsA0SHQAAAAAAwDZIdAAAAAAAANsg0QEAAAAAAGyDRAcAAAAAALANEh0AAAAAAMA2SHQAAAAAAADbINEBAAAAAABsg0QHAAAAAACwDRIdAAAAAADANkh0AAAAAAAA2yDRAQAAAAAAbINEBwAAAAAAsA0SHQAAAAAAwDZIdAAAAAAAANsg0QEAAAAAAGyDRAcAAAAAALANEh0AAAAAAMA2SHQAAAAAAADbINEBAAAAAABsg0QHAAAAAACwDRIdAAAAAADANkh0AAAAAAAA2yDRAQAAAAAAbINEBwAAAAAAsA0SHQAAAAAAwDZIdAAAAAAAANsg0QEAAAAAAGyDRAcAAAAAALANEh0AAAAAAMA2SHQAAAAAAADbINEBAAAAAABso4fn3/nH3O5VMZ5VdA8XPrmoT/56Ua5PP9MVt9sqRZ0bevSQ46Ybdcvne6vPLb2tUgAAAABAV+F0Oq21ttF3VZW0epjRGzSR6Og2Ln/6mc6e/Vg3fPaZ+nz2qXrpinqS6Gik1vjVvqQbdOHGm3TlxhvVv/+tuvmmG629AAAAAIDO1l6JDi5d6UbMJMdHfz6rz7suacCnl3SLu5YkRxBmvZj1Y9aTWV9mvZn1BwAAAACwNxId3Yg5kqPfZ5cVdoUOe0uY9WXWm1l/AAAAAAB7I9HRTZhzcpiXq5DkaB2z3sz6M+sRAAAAAGBfJDq6CXPiUXNODrSeWX9mPQIAAAAA7ItERzdh3l3FnHgUrWfWn1mPAAAAAAD7ItHRTZi3kG3riUdd72YramKiYucUqMIqC905Hdy6UpNn/1Q7/2wVWSp2LlTc7KVaWXLOKrkGVy7L+af/Ut7GpRq/co+qriHXY9Zfq2/FW3tWJflZeiY1SXGxQxU1xFriEjU5dZ7WFJ21DgzCWahn6h5jLFNzq60dwZxVXprP6xjLrIIL1r5mfJirqT6PixqSqRJrV52a/HSf/Q2X2IlJmpWZr5LT1sENlGpl3bFp+aqxSoNr/DkCLpml1vHBlWQGeFyTS7ryAn6Gcq27/+px0cuL5bL2NMdZWaScpRmaPDHO53VGKO5Bo86WFqiswRP5fvbG34HHRaM+J159nhn5zf1e+Km9oLL8xZps/E7OyG/mdxAAAAC4TpDouI45PneT56fzH/9Bgz1rzflEFSXv6aBnqZLr1pt15uQ+PbMoW3l15Yde08pN76mmdoCGqco61nt8czcOcv31EznPVqmkZJ9ytr6iZxbOUuz/97BiZ3xf87e/q4qin+mJX/1XyJ3StuI6tlmP3ROvqQvWa+eBctX4Xv1yrlJlBwq07lDTHVRnUYF2Wuumku1FLU4u7X5jTwiJBanKeD8BO9UhclaWa/fGxZoaH6dZuZUdXt/t7liR8k5Z6wZXTqEONvcha6u1e1GS4iama0luocoqfZNOLtWUG3WWW6CyFuX2XDqYNU8bK71bg9M26+WkCO9Gc2pdqjqcq/kPx2vygnyVcUUWAAAAUK+H59/5x9zuVTGeVXRN71d9pLs+/Zu11UbKXlHUnF9LU3+qyrQvW4VN+S+tnPh9bbS2Wuab2v7WExppbUmXVfb6Ss1//T2Vnb1slQUQFqkxX7tbE792v8aOjlJkL6u8ld6/6XO6K/J2aysEpws0Y+I87bM6ko7oRE17JF733xHu2XadPq7DR0u1OzxVe2bHesoau6CdGXF65k1r0yNCc3bs0exoa7MRczRAvOYXWZsesVpWmKtpd1ibgdSWa903krTGpyMvTdf2E/N86t47oiNugffJJyzYrMeHeFalcyf1VkG28vaetRIcDk3beEjL4h2eLe+IjhTv70D8chVvTJK3JoLx/RwJWrg5RQH/pwkfqjFD+lgbgTlPFKvML9NTlpeqlZ56jVbaC/N0fz9PscWhiLtjFVn31i1l68ZrclbDxNSUrGK9NCnY67tUkpWkqeusjIT6aExKuh6MH2o9d40q3jV+Dw6d1bgXMzVlgOcgg+9nb/wdVBnfwXjjOzDr2TFuufasS1JkT+++4M5qX1am1uYWyH/A1NhVRdqU1N/aAgAAALo+p7O50+Et03dVlbR6WA8SHd3EtSU6zilv0TTNf/dmhQ+K0G1143gu/VllVZ94kgkxf+cd3eFxrtqTfBj7bI42jW/QcwyqZGOipm6X0tYUaGGov0onX9N9s3N0pn+UBhsvE/YPX9XIv+tndGg3KeddadrKAi3z7Rm2gZYmOsrWG53iNd5OsXnGffucOIU12xn1Y15KkrDCM8piTFKSnPn5KjPWIzPytT9opsOnkzwsWjHHykN4jNElP7BCsam5RufZeMww4zHHzNKmEx1p245r4SjPar2qvHTdt8i7X7GLtD8vRZGejWtJdDR+H9fKvJxlqvfNaHVRtpLrkwxBuIq1JC5VOWbiyvguko3vIs8sn5Sp0qxEhZnr/szLju7O8I7I6W28zg7jdZpKNtVr4rOfyteMBxZ7E2jGc770VrZPgqQpPvXfO1rJk8KVl+/9nkh0AAAAoLtpr0QHl65cVy6r5mSlyv5oLWaSw+SsulpmLk2NsLh8WiX1l6NcXUrOeHdX/aHxvqCXrQx6RPvfKlD5r36mXT//mV6d+4TmPP6wHrzTu9vhdya+451V2f+rO/MfrWlTW5HkMFy9lCRC9zyWookDPRuq2rBLJbXe9SbdOl4TE72rVduLVBb0MRe0L99Mchh1N83oxN/qLW2NyAdTNM1aV2mlTtrk+hXXu4XKs0bnTIlP1T2TvOt6s0BvBZzPw/DHI1cvO3ooRQ+GlORogjkvxxNWkkNRSnslK8Qkh1ffqARNW5qtPUX5Wj01yioFAAAAUIdEx3Whn5JXFKjyLb9lzTe9u81LV/z3GUvA0RzO97R24UI95restE7+7/4/jfc9tnBPwPkoSrY+orjZT2vydxsu8/d49+e91Hjf5Ccf0YzftcEkpyFxqG/9Kf5ylX3Qmt5+pfZttybaHDZdE4ZFa+y3rHkYLm7TjkOhPGd/TUhKMd6N4VS28oI95tx+vVFgrjiUPG60HE3kq5rlCPO+nke1znRUlbcrlw4WehNBUooeGhelsXUZJBUpb2+QeVZ697VGsxjeO6mqUJJTQblUsnaRNS+HQ2NXZWvhqJZk9GI1+60sLUuJ1+CAw08AAAAAkOhAiE5r99YcrfntnxWT8ohm+y1TrKspRv5z432zU27W2+ZjC/6r4ciOy580HGFiLRXWQc6qxvs8o1A67C67fTT07qvzbuQ9m6Gc8hDvfFLnWKE2ei4fkWK+Odoz6WtMwnRrngqX0bkutTreTet7d4KSe5trLuXkFwUcIVP1Zq52mysD05U82qmKQ57i1qn1fVcRui20K5i6tnOFei3XWk+J1xiHFDYusX7kSskbRaqy1huIitVYT90bjj2v76wsUk0rkx1V+Rl6zJp9tEWTjwIAAAAIGYkOuyt/vfGoiLrlJWvoxJ6swPs9y+vWZRf/o8O5r2ldkGVnuecglfxH4P2e5dB/N+jUj0xrPIrEXLZP9e435/sItD/UeUPaQuQji7Uw2jrjfrFISx6M1+RnN2tfg7tuBFe2P9/qPMcqOd66zCAqXslW/iSkO36YHHFKftLqFBcUaJ//CIvacu3c4B05MvLJBxTTiktsfLkOFCrHWld8tGJaMuigi3Ian8mTCJJD0xLivCNWjHqdOM36cKX5xvfqXW3AOGbO80n183dU5KQr7p5UrcwvbVHCw3UqX0uWeycfVVSGXpwT6zNqBgAAAEBbIdFhd1fONR4VUbcEm6OjwVLXo/6yFvomHDake0clBLnsJeCyYnwzE1d2QT2jlbYtX8vq78jhUlnB85oxMU6xqet1MNi8DqbaUu3YYF0OEZuosfVzO0Ro7EN1I0Vy9VphaEmTmMTp1mSWhdr6pt9lFuV1t0yN1YP3XsMogYtnVZa/WFOfrrvEw6Fpjye20fe2RVOHDFVUoyXzmm6HG5qzeuuNQu9q7yRNvLsuxeDQyHFJVsKhXBvftDJ2fsISlqtw43TF1I3sOFesjQtSFDcqSfPzy+VsNuFRpCX183LEadn6mdecjAIAAAAQGIkOu4t5onHC4bcbtXr0zdYBlshvavsbfsd5Ft9bwl5VcWSP5y4ggy+fDjD5qN9SfrrBSI5up3eUpmUVq3hzhsYOuHoO3nkgS4/FJ2q+f9LB4jpU4L27h2HsI+OvzvNgiLw3sb5edxfuDzxZq787xis53rtasr3IZ94Tlw7+Ots7cmRSyyfL3PioT9IhNl6TF+SrzPO+HYqZvVkL628t2419uEd51jwyjpREz2UrdRz1lwU1PdlrePw87TInAE2JvXp3lovlyluQpLh/XW/VWTAjNHZc3cShxcp5LbRLlgAAAAC0HImO685llWxapvmHLmtk9Je9RXffrbE1v9ZjP3xNZZe8RU26Uqnd+d4x/hU7fxpg8lG/5dX3GnbkP96nWf8a6DIZ79LkZKTWErf1v7wHdaDwe2dq09uHtH/zXE2pu5xFlcrLmKwZb5y1tuv4TnwZr4n3+t320ydp0eQdPxror4kPJXhXj23RbmvuD3Puia053lealpQQ+BapLeQYEK85mwu1K6MtL69I0MLNm/Vqo2WqZ+6S9lRRlG+NGnFo2j9fnXfFwxGnB1OsT3kqWzusuWMDCotW8tJclRbn66W0uPq6dh3O0uSHs1QSNHvRRxPnPK85Vq6jYmOqZuUHmfwUAAAAwDUh0XE9uXJO+/7P9/XY9io5Rj+tF6dbM4je+S29/JNvKrIsR5O/+zPt/JO3OJia323Vmj9bG4ZpS19TaV6AZV26xljHNHDlslxnA10m412anIzUWmqu5Y4i16KnQ5H3puql14u0a3G8lQRwad/S7IZzbTiL9EbdxJcq0vx4n1ETniVe860RBk3e8cNPWEKKpnlGH1Rr7a+LPYmUmr0F3rkneqdoYlzL0xITFvgmHfK1v/iIyouyNds/OXPNBmrkvXEa02iJapPkTHDl2r2p7pIUV8MRLNYydWPdl+dSzm+99dqkftGaMm+zSo16mlY3UKNyvVY2lbzoGa3Zryy3JjY1fmcWpGvl4WZfCQAAAEALkei4Xnz8ntbMfUIzXq+URqdr1/zxirzR2mdwxDyhV75/j8Kq9uiZGbM0f0+lnIHubnJ2n37wi3eNlUhNGfsVT1HO0kcUmxxgmW10/j1H+Ok/XpsaXSJzdWluMlLPkmaNRuksPfsoZtrzem6StX0xV2/XjbAwOIsKtNNaD0XQO37485mU1JVfqBJXtd56zZsxiXwyqcElGaGK/Ipv0iFakf3abgxHl3Csbv6S0Hjr1dpozoB4LftpRv1lSSV7i1VjrQc0MEnPLa1LkFVq4w+zVNLkJS8AAAAAWopEh91dOaeD23+qyTMWal3ZZYXFP609P0rU4F7Wfh+R31iowhXfVEyvKuW98LTivvtTbSw5LVddwuPKaeWt/Zn2XTKOfXiWnhrpneejxSM6QnTmL9ZkqV1WH0UMtFYb8Jn4UrGaneU7YsJ3ydLsuqsoSrfU37mmOTH3JXk71hdz9dbG3yjPc6lFtNImWSN00EDJb635S+TQlMWBvgfvsuxBK8Fj1Otre1twG+H+/TXIWg1F+ENZejXNGgZSuUWPPZuvqlberhYAAABAYyQ6bO2ySn61UI9t3KeyS7dowlM/U5E5kqOJbz387ie06xffV/Kgm+U6uU8rF35HPzj0iTfJ8ePveOb2MCcuffHxr6iv9ZgWj+hoRl1ixXmps65PqXNWuzfmq8z/Vq51nMV6601rXeZICGvVZ+JL824ryZN8R0z4Lgl6/JG6iTqqlbc3xEzHsAeUZiVIcrKyPJPCKjZJY+suocBVrmLtyLWGZ/RO0iPJgb4H7zLtW4/Wz0ey8y2fCWJLc7XmQLVcQZIRVXsLtc9aV0R4CJfhODTyqRWqy3W49i7WE2uYnBQAAABoKyQ6bO1mjUx+Qmmjp+nVX72mlxOjFBbKN/73Y7X65zna9WyiRk76vn58zy3S5YuqMU9yh92jl1Y8oZE+I0Im/O+VenVlgGX+N723oA2BqyRb0RMTFWUsj73uLQvr5XdnmE5w/tBiTY4bobj0FVqTW6CDB4qNpUA5q+ZpakKqNlqXRDjGpWqi1XGtMvbX3S515EPxDe624i/83gSNtdabuuNHQxF68HFrUlLLhMcnN/k67eLjk1Z9BFhOBBoRcUolgY71LJWh3XmmhVzvFirPujTEkZSgkU1dlRM73pr/xPBmofbVJbhqq7Uudbyi70nRM6s2K2+v9z3vy9+sJenxGr+0LqsVpdkPxdUnS5rUO1YLzfk6rE3P5KSNJrQFAAAA0BokOuyu191auPQRjWnpvJI33KKY8enannGP9wx1L6MT98Ofalf2Qk35O88R9Xb/H7+7rNQtq3/tHW0QAseQr2iCta6wSI1J/L6eGn2LVdDZXKrZm6t1S+fpsdRUY5mnJZsLVGJ1hB2jMrT9hUSFe7bKtXND3W07YvXgvd75NIIacJ8m1g3qaO6OHz7C4hM1xVqXUvRIQh9rvQMd26JnPPURYHnjpHWQr0KtDHSsZ9nuc7vctnJB+/Lr7nzjUPK4Zu4g0zNWE+vuvmK81zf2+iUezpVq5+bnNT/d+55nLHheOcYx3uePUnJWtubEhpTm8BqYpGWrfCe0XdSiuUQAAAAABEai43oW80TLJva8NUoxt1rrPoJOGpr7/foz1s36/D16qe5xeS/r1afGanCnD+jor+TnC/Tqqpmacm+0YgZc7cSGRUVrzIMztXrbHpX+aqZi6kYC+E58GZuosXdY60H53DLW6OyGdMcPU1i8HpnmfT+OaQmtmoTU9s7t1xsF1nrvJE28u/lKGvn/pdePjNn32h7v3B6xGdr/eqaWpSQoZpjPHWJ69ze2EzRtabb2FBdo9aRmkloBRCZl6eW65MrFIs1/IpPJSQEAAIBr1MPz7/xjbveqUC8yQGd4v+oj3fXp36wttNb7N31Od0Xebm0BAAAAADqL09m2F7D3XVUlrR7WgxEdAAAAAADANkh0dBM39OihWmNB65n1Z9YjAAAAAMC+SHR0E46bbtQlvq5rYtafWY8AAAAAAPui59xN3PL53rpw403WFlrDrD+zHgEAAAAA9kWio5voc0tvXbnxRjlvYERCa5j1ZtafWY8AAAAAAPsi0dGN9O9/q87deDPJjhYy68usN7P+AAAAAAD2RqKjG7n5pht1+9/1118dvXT6pl76pEdPJigNwqwXs37MejLry6w3s/4AAAAAAPbm7SXPP+Z2r4rxrKJ7uPDJRX3y14tyffqZrrjdVinqmHdXMSceNefk4HIVAAAAAOh6nE6ntdY2+q6qklYPs4YDkOgAAAAAAAAdqL0SHVy6AgAAAAAAbINEBwAAAAAAsA0SHQAAAAAAwDZIdAAAAAAAANsg0QEAAAAAAGyDRAcAAAAAALANEh0AAAAAAMA2SHQAAAAAAADbINEBAAAAAABsg0QHAAAAAACwDRIdAAAAAADANkh0AAAAAAAA2yDRAQAAAAAAbINEBwAAAAAAsA0SHQAAAAAAwDZIdAAAAAAAANsg0QEAAAAAAGyDRAcAAAAAALCNHp5/5x9zu1fFeFaBQEoyh2pqfrxeej1bUwZKNfnpilt+XHO2FGl27AWV5G7S2zXWwT5u+18zNG1UH2PtgioOHFeAQ6RbBmpkbF9VBduvcMXcG6UwawsAAAAA0P05nU5rrW30XVUlrR7Wg0QHQlKRk6Txy8O1uihbyQOsRMcC43fIs31WeWnxml9kHewjbdtxLRxlrpVq5ZAUbfSU+olfruKNg7Qh2H5N1/YT8zTS2gIAAAAAdH/tlejg0hU0o1q7s7KUc+CCsV6ptzZkaY2xvbawsn5794eeA70JixPHVWku26ZbhX5GL9Ku4mKVepZsTbOK6zXYn69lo63ytvJhkVamxyt6yFBFxcZrxrpi1dRa+2QmbIxyc1/AJV15p61D/ZStH6+ojAJ5/kxPF2vd7ETFeh4zQnGPrlDeCZfnuAacpcqZm2IdF6epS/NVcdHa15RacwTNPE2N876v2OTAz1+1N1Mz4kd4jomOT9e6Q2etPU1osn4sIb5+h+pK32ud2rPatzxRKw9b200x6rQsf4WmWt9XVFyiZjWqe/OYTM2aGOc9xvicU+fmqiSU2NBdv1cAAACgFUh0oBlndXjdeuXsrTbWq7UvZ73W+W0fDqH/XO/QCk2Oi1OsZ0lXjlVcr8H+JC05ZJW3hVP5mvFghkqiV2hXUbH2v5Iqx9ZUxS8vkrc7118PvlCXZPFdirQptb8Un6D7B3gObKi2XPv+rUbTkhMUplKtmfi03rkjVZsKjccWbtZTdx7S/MRU5Zi5oToXS7UyOUU5NyZ6jit+a7FGHlmh8dNzVeHfAW3ApZI1j2rqVoce/MUelRYV6McjjmiJ3/NX5adr/LOlilmar+LiPXr1cYc2PJ6gJUVNdFybrR9TaK/fobrS91rndLHW/GuCZoRYKTW75hp16tREz/dVpD2rElSzwb/uT+rggXBN+mm+5/3v/1WGRp54XlOTs1TSxNfabb9XAAAA4JqYl64ATTizfab7ri897P7JrkPud35/yL1j5cPG9kz3ax+Ze2vcrz0R7b5r7Ez3j156yf1Tc/n+o8b+aPdP3vU83HDE/RNj+65pr7qPfex0n/cs+90/Msue2O4+E3D/cffWaUbZl55zH7aepfUuud/5caz7rqd3uc9bJaZL7z7njv/So+6tH1gFgXy8x53x1QT32qPWtp9Lv1/u/vLYbPexz8ytk+539td4yut9dtK94ZvR7i+/dMQqcLv/+1WjfuofY/louzv1S7HuH/3+klUQwAevupO+5P9evPX/5R8fMj6l4dIh94++Gu1O3+X07PW65D78XIL7rn951f3fVklDIdZPKK/fobrW92rWxVtLHnV/1fhd/ur06UZd+f4NBHfmyH73Hz+xNiyX/mOR529sxxmrIJCTr7oTm3yN7vq9AgAA4Hpw/vz5Nl3M3IaZ4mBEB1qgXBufTdVjqal6ZnO5VebjVJFy1nlHfKzbUWoV+umsER2uYr2V49K0JPPs/FWO2PGa0LtUbxWbI1QCK8t9Xjvve1rThlkFDVzQ7rxcxTz5gGJ6mttRGhPf37OnXs8oxXzNeAv1p88rtW97qWJmJFiPsQy4TxPjXcopClJ3hoqifJUMm64JDd5Lf90/KV6unP0qqTU/aqFyLqbokQRzEtg6Do3852/IUVqog6esIl8h1k8or9+hutT3aqpWxfEIPbW5SN90NYwAABt2SURBVKWbM0KeVyY8Nl6De1sbFsc/xmqM8fNSU3V6xyDPMa5Pggzp6K7fKwAAAHANSHSgBeK1usg7B0fxqnirzEcoc3T4HlO3bExSuGK10L/8RJFWB3iZVqks1z7FKWaQwyqw9IzQ4Lulgx8Euf7mXIHWZtVdvhDAh7u09c0EPT4pwioI5KyqThqdy7qXdp7U4WPSmC9FWQV1+mvwEOPHyeogd5+5oJNHyqWvDdJgq6RO+J3mc1WqynhgRXmRNDpa/h9VA81OcbEqPPNRnNXO9BGKXVDonX8ipPoJ7fWb5DvPRVyiHpu7WQdPNXXdRTO60vfqEavZeZlKu9cvKdIap0+qxPjRyzcZ5u/DkzpovObgO+reRCd9rwAAAEAXQqIDLVCjineLdfCAsZy41p6PS1Wl1nP5L6XVPnMHtJGL51Ulh3rdbG3Xs5ILJ04GTC5UvZmr3bFzjY6rX0fRUlawRSWTEjS2n1UQSOUe5RVF6Kl/jvVuX3QanVCHHL28m74iB8VLRSeN9xqIS+eN3qujd4D3MnCQxqpIFaeMo85XS8YxjZ5+gLcjWxGo8x9S/YT2+sHUFK3Q5Jn5ciT9TIXFxSretlgPhhfrmQdGa/KifJUFmlSztlo7Fy3WzmDP25W+1zbl0r5d2+SalKix4VaRH9eHxVrzwyxp9jwl32EV+uuA7xUAAADoakh0oAWauXTlZKHWZnnvyrLm34JffuF1QQfXep+r0bK22Hs2us1FKSJIpzGg2nLt3FCqCY9PVqRV1EBtqXZsaGJUgKmmSEu+s0LOtEylNbgsIE6RgSbADMGYiKZGGViiItT0R+2vKdlHVLrK972HVj8hvb6/UwVasydWv3jdqIdxUQrv10fhUXFKnpet4qJcTVOupt4dp8cy83Ww8qyc586qYu9mPfNwht65d6amDLSeJ6Cu9L22BZcqcjI06404rZ6X2PA9nM7XDHM0jLFEJ2SqauoWbX8qVldTFB38vQIAAABdEIkOtECwS1eqVVFk/Ahljg5/7X072QYuyxlsqMiNjc9muw7la+2pRD0U7zvXxVWuQwXK6Zeu5NGBRwU4S9drakKGyr6Zq+1zfDujphq5gt1KNtCZdR81F4OlgRxy1F3mYBwTdFRM0EshQqufkF7f38BErV6RqMhA+8OilbwiX8VvPa/7a/L1zMPxio17QN/Jv6xH1udrdZOXj5i60vd6jcwRLAuSNP7VcD23I1vJ/gme8ES9ZN0xZs+2VH2pYLqiH1is3U2OuGjH7xUAAADogkh0oGnOUuVkZWltoXmPyUq9tcE7YsN3e3el1YtKy706v0awOTr8teftZBup1plz1mq9s6o2P0qjERAXtC8/V66URI0NeFrff7JKXy6VrU9R3PT9GpNdqO0zYxXW6JhyVTV6L1JVdbF0d0TgkQaWso8CdEhPV+ug7yiR6prGo2JqqlVh/BgcGWz+iNDqJ6TXb4WwqHilPZ+r4lLzd6hYe9bN1JiQnq8rfa/X4FSh5j8wXmuVqj2vL9eUQJej9HQorF8fY+mvwaMSNXtjvlZH5OuZTcXBE1ud/L0CAAAAHY1EB5p28aTeXrdeOXvNuzNUa1+Od8SG7/bhd6tVZmyNubMVEzA2mJy0DScf9felEZpizjXwgbVdp7Zaxw5JU4YPsgosriN6p0CaNi4u8Bn7oJNVulSyLkVTfz1ULxfmas7oAHUyYKhGDTQ6lif97whyVhVHXYr82tAgl530V8zXjNc71ngOj5qT5XINHKEYo0M6eHiiZ56PCv87Zfz3caPTmqhRX7K2fYVUP6G9fofqSt/rtThdoFkPz9OZxwq0a1VSozuwBGVOKjrEeHcfVge+3Ku7fq8AAADANSDRgaYNSNImMwlx1OjcjUvRsrwiVZYX6dWMRM3ZdsSToHiqd5HRgXYoZpB/5zAEH5/0mYj0kCo+tsrbWthojZsk5bxV1ODMt+tAgXKMzv+k0Q0vY3AVF3nK74kNfGGCOVll2bQUTfCfrPLDfK3McmjhLxYFnURSitbYqRE6uN3ogPomIzyTW0YpOT7aKmgs5t4kRR7K1z7zbHyd2kq99VqRBn8rXjHGZtjoeE3QNr11oMEn9UxuqcQEjQk0kiHE+gnl9TtUl/peW8ulgxsWa9+kLL08Lapll8LUVqvihOS4IyLwfCLd9XsFAAAArgGJDjTP6EzlZaRqzd58vX3yktFLqtbbuwq05olUbTxWrh1bC6XeSbrfd1LGT70/At7hw9exLXqmfiLSecbzWeVtro8mpM5UZG6GHssqUsXpC6o6vF6zns7XmMVPN+rYlh3Jl4bFalCg3qOrWHkbapQ8rvH8DDVHilSioYrsd0HOc40Xl5XYiEl6WmNPrNB3FuWq5MMLqqkssCa3XKG04HkO4z0lac64cuPYxco5XC3n6UrtXPm0ljina/U064H9EvTk7IHKedr8zipVc65aJeu9k1sum1M3SaXfbUhDrZ9QXr9Dda3vtXXK9U6+SyMHhcsV4Lmd1lwuNW8s1jMbC1TimazV+JzHCrQuLUnz343Xshl1I1Ts8r0CAAAArUeiA007V6yVD0/W/L1G53z2Zr2cFCH1jtXCV5Zrwn1JijmepZWlUuSTSRpj9rQqczXj4SRNnrfN8/DI8MATPtbzu3Tl5eRoxfQr11qjAzf54elaaU5y2kYcsRnanjdXEQfmanx8nMZ/74gGr8j3fqYGvJeQ6Gve27H6cxUXBp+s0tPhNeqgft4R32WudtTd63RAojbtyNbYc9l6LCFOcY/m6vzUzXq12ckt+2vKul3aNK5Ga58Yr9j4R7XVmaRXc+ZpZP3lDg6NfGqbts+L0MEFiYqLm6xZR6L0XF5W48ktfYRWP6G8fsfqUt9rK5kT0x5cnhTguY1lrXdi37CvxOu2I5s1yzNZa5zueyJbx6IXa1dRgElLfXTX7xUAAABorR6ef+cfc7tXMTgZAdRe0ME1M7X21sXalBbduBN+sVI5C3IVuWqRxno6RKVaE5uidRf7aHBCul58IVUxngeVauWQFG00Exsbk4LMQXFVSdYITV1ndEr7RWlC+vN6KTXAa3eKC9qZEaetcXu0PcW/I43ui+8VAAAA6GhOZ8CZ5lqt76oqafWwHiQ6gJb4MFdTE4r1eHGWpvjP44Dui+8VAAAA6HAkOgAAAAAAgG20V6KDOToAAAAAAIBtkOgAAAAAAAC2QaIDAAAAAADYBokOAAAAAABgGyQ6AAAAAACAbZDoAAAAAAAAtkGiAwAAAAAA2AaJDgAAAAAAYBskOgAAAAAAgG2Q6AAAAAAAALZBogMAAAAAANgGiQ4AAAAAAGAbJDoAAAAAAIBtkOgAAAAAAAC2QaID18ZVrZ2Zm1XisrZNtcVaGZ+hnR9a22hDLlUVZGpjqW+FSwcz4zXrjWprC22H+gYAAAC6GxIdCEGpVg4ZqijfJS1fNeYuR7jCXT/T2oKzniM9yku1e0SCxt5hbVtKMv2ew7NkqsSzN8Br1C2ZpZ4jQnNWeWlDNSPf5/20m1KtiYvXupa8vRA1rqt05Z029zh0W7/LWrO2wFv/ptpylbw5QpPui7AKLIcz/Z7Du6w87N0d+Pswl7rvJDQ1+elXfx/aWUlWnOLWt32FU9+BtVd9AwAAAO2JRAdCEKuFJ46r0nfZmKRwzz6Hxjw+V85X96jCs+3SwV9na2jCfQrzbDc0dlXR1ecoWq6xVrnXdG33fQ1jKV4Vb+3zZyZG6jqj7a1aeakj6jus9VxOOc8NUri3IhrzdHxb1omtM3Jew3qoPJGt5AHefY57p2uhM1dvVXq3XYfytfYrCRrbz7vdQPxyFdc/R5FW+1Vn2jbf1zCWRt/JVWZHvWMSSFJVfqqiGyW4XEZ9X9Dgfv2tbT+n8zWjlb8T1Hcr6rtDk4oAAABA6Eh0oBnezkzjs9A+Hco7xmvZD8drsLl+rlBb9z6qJxP6eHa1G5fT6IYFFxne9Ou7PizXztxMPZOapLhY72eKnZihlQWVAZ43XLfd4VJFlV+H7lS1ShStSKtD3FIVuSmavKq40et5ztg3qm/fDmWEJv5osSZ6Rsxc0O68Ik17PCFgYqntGJ3ei9ZqIBHhTb6+q6ZSB/M3a8nsJI2P836e6PgUPbOxWDW11kE+bgsfJFdltd+ohVOqek+K+Qe/kRQhchatUFx6vqr8Xo/6bp/6NipcS+KN/ydOWdsAAABAByHRgWb0V/JGv7PQnsU8412XBInX5EfjvR3EuHnafWqLpg43y411p/U0be1cjaqs1UActzistatqjhUoZ2mGp+MXNzNbhzVUTy7doqLD3s9UvD5JrrWJmpxZ6pd8cGjQ0Dgd/LBazsoiz3NMjh+hqIkrVKZ8LUmbp40HWn5We/CkFEVsXq6N5VaBJTwp26+uvcumpP71nfK4h1MUF23WcZyeebNaGx813o9R/sybF6xnaWsXdKapKSl6hxm11JCzslh5WfM01air2KRFeq06TBPnrNeud7yfpzR/sUa9m6742Y2TD45B0Rpz6KSqnJXal7tCsx6MV/SQRC05JuUtTQ3aYW9K2L1JevwPK7RmT8M6or7bp74VFq/kRyq1ZE2h2uu/AQAAACAQEh24RvFaXdS4k1h5Ildp6q/wFp323qKpZrLEZ4lbUGTtM/nM4xG/WPtUpPnxDY83ky7zjYdsfLRuu27kyQWV/FuuDkck6RcFR1T6VpaWpSQq5o4+cvT0PLkcd8Rr2SvLFbExU3l+E6lGGh1B1zqjs/u9ArniM7Sp8IheTZViFm/TrhVJOr/2AU3O8k+QNKNfop7KuKy12xuP6mhKg8t/fJbtadJtt7VsJM3VerIWT71edXVeCW+97ltgJbR8Fs93tDGlfrtuJETV3iy95YrTwpxDKi/K1UsZSRoT1f9qfYdHa9oL2Zr2hxXaeMivBgYOUszF9Uanfa7euBivORsLVb51ujRskbbvWK5HPslSwsNZKmlq1IO/nsbrzYnXzs27mkyS+aO+W1nfhpiUpzW2YLN2MDExAAAAOhCJDoSgVGusyzv8O1ct1aDj5tfJa36ODp+5QjxzGyTq5XcbHl83L8LVuRDq5lroowkrjM5fWrwGhzce7VFv4Hg9kliqvCJrQgZTbbXyNmwzVhL03JZMpY2LUrijXCV7HBozNEqOgXGa88rzGrl5ntYcblGqQzGTpmtwTq52n7MKLCVZ3hED9UtrJ58sWqy4+ufxdp59NTdnxNW5K7z1OiWruOHxxuL5jtJy67fNkRCmGKNs07wkjbyjifruHacHvxWunMKGyZ6q/GzlGD8nrNhS/52V/efv5Bg9VIMdERqTsVkvjdii761tWXIpLCFJ00q3aOcxq8BCfbdPfatfgh5JKdXGAr9hSwAAAEA7ItGBEMRqTmnDzlZd56qlmp6MtKUCjRipUc1Ja7VV+ih8gFR2srq+Q1eza4WWfJauOZMKdfioVXr6uA6fStI9w7yb6h2v5CeljbtaNjpDUaOVPKxQbx5oeAnEyIwjDer76uSvLdTM5JgtFWgEw5mzPkmhVritf5T0XvXVURanC7RkufRURoJ2v3vEqs+zKvt/1UoeHe3ZkhwaOzXdqPACHWxJhTvidH9KtfL2N+x4U9/tVN/G48aMS1HV9iKVtfTSFwAAAKCVSHQgBE2N6Ah0+Yi5pGij0VmqCfXi/NMnVdG7iTPRIXPp/Kk4DW7lBKGm8DvjpOoaa16BcuVlVeqpZ2ZqWkKCcvZ6Exk1Bwq1LzFOI33ecsyob0hGB9p795lQRWnkhAjt3nuowTwGTY0wCHQ5g7lM3Wh0gs+EOmfEWVWccNRf1nAtXOerNebO1iW+TOEDjY73ser6z1+242c6+WSGZqckaEJukbdjfXq/3ipK1D2xPhUeHasJxu9fWYv6/Q6NjEv0drytEhP13V71bdR4bJymnMrXvhNWAQAAANDOSHQgBMFGdNRNVFqgZcOsuTq2TfcZVp+pCaHO0XHRpRpzjgC/zmTDOTqCKVVOVrGqzA7aqZOqMKdpvIYOZc0HxdKgCO8Z/VPH9c65BzRmmDmZpdkRzNfucxd0sKhIUxJGN7zzxU3Gcur81REdAwZpjC7LWV8Q2ODoeGnvEVX4nPEONsKgbuLMPYujrdEx5lwoVy/5eWlSqHNGOOX62KV1yQ3ru/HlRIGV5Gbp4Cnjg9VWGx14ozPbs5e1p+VqThk959GDrBEU1So7UKMp90ZL/e7TpEm5eq3wgpzvFmlfYoLG+FZ4T7MTXq3zdfNGhEdosGrkamYeibB/jFXMqSMq87kNLfXdivo2/v4jBxnPd7GZbGbYII0aVq3Dx1t3uRsAAADQUiQ6EIJSrZuYpMkPX13Gryu19pmcqjoWpUhvz6lJwebocP6hVBWzr847ULc0nKMjGKM3duBp3Wfe6eX+xTo4LlH3t3ZER225Dr4pjR1i9OBMp0/q4N0RijTX+yXo8WlFWrNgrrbuT9Ej45rp5N7skMPoGJ7xmX+jbPNi5ZxomPnw3PHiYrkqfDreJesSG9T35InrVWLtMzk/KtfggSGc1Q82Z4TzpA5Xzmw0J0qolxOF1RZr1v0jFBU9XvPfjddD97Z2hIE3aeQYNshbx+bIh0Nx1i17+2hCcor2rZmrZ7YWaVpSfNO3dDU64o7e5aryqW9nYaZWFvl1sO8wE1BFqvjA2jZQ3+Z6C+vb4OjtUNlHPokOZ6FWriryu0NLlAZ/zfjbP3FN15QBAAAAISPRgZCcr4zTstfztctcfhinik+sHaaaalUMi1B4CKMoAs/R4VLZu4VKHlE3H0BLRWlaXrEqjxartNhYjE5rCDmXgKrys7TmXKIeGReoI+nQmMfnKnyv0ZF7MkljfEb1m5wfnZKMeqjvHIZHKKa30aE2ir3OquxAvg6fvGxtWwYYx6lYFb63AvmkUmN+aNX364s1pvK8tcN0VtWV0Yq8zdpsSpA5I1xGXe1+aITxuq0zeFquSsuPeOu7OFtTWplYch16WWvejNJTk2OtkoYc907XwvAi7atJV/Jovwo/Z84zYdRDP2tbEfrSaKnig6uJjYoj27S73G9a0Z4DNdg4ruy/fe7fSn17tKy+pcg74qQTJ69O3PrHI8rZU64zfv8XRAwyjiv3mRcEAAAAaEckOnDNnMWFOvnPIzTY2m7A58xu+IiZuv9On85TeKJeKs7QyNMF2pCfpIlxfh2rZlU2GAUhRx+F9bt6u9gWqT2rg1kpGr+oWmmvLNeEus5c776KPHlWZ6xNXbwgZ+9ELUzxS8rUVmrH1kKNnBrvUw/RGvWQdPC4NanBuUN6uyhB40b7jQTpOUjD0lIUeVOI8z0Yz/PmH8Zr5B3Wti+zvuvqvP8IzR43yLyQx9JfD75QrDmxZ7Vjc76SE+J89oXGN4lgjqAw6zuspU9iqr2gsvzFmvz4Ng1ala3Z9dXpUN+BlaqpG5VhHOd0OjRlXopi/L7XioJc7Y5N0tgoq8D4fEPvjda+o8e9lw95RueEK9m8LKOBCA2+P1ExPh32JlHfHo3r2/gT/kq8YorKVWYNUio79DvdZvwN+Cd0IofEa0p0c+NDAAAAgLZBogPX5mKp1q6tUdqkwKMxKnJTtMa6yiUyIUPTRvl08s2OW1iN8pZmSounNxoh0aQBI3RPVLHeKixXTTNzMgTjOndWFYcLlLM0XXGj4jWrNFbPFeRr4SifNzIkThPO5WtH0VnVHMvVrOnZilg672oixFR7VvtWPq0lzula+FCEVWhyaExCiio2GR3ED6u1b2229k1LafhYj/5Gx3JRw7oJyqWSDdmqmZHQqCPq8WGupq61KvyOBM1JiW1w+YEjrI/OvLFIK29cpDT/M/ZN6q+Ro6N0sHCPyk43vPQmVC7nBVUdK1Je1jxNvSdOU7e6lLy1UJuSfOssWmMmGb8TbxSp5nS5cp6drrV3LtcP/ebCqClaoe8sdyrtB0nWJRheg+OTNDI3VznHqlWWm6W14dM1pe7OOD5GpmZqYYLv6wZDfZuC1bei4pUcm6utueXGa+VqzYb+SksM8H9BbKpeWpDQ8LEAAABAOyHRgRDla37d/AU/zPcWOUu17omZqngyU9PqzvKaIyBOVXuv0a89q5J3z6pXsP6d+fh/nayNUev1coPOl8EcOXHO6Kid87vsoF6U0nKydc97mZox0e+OGXVLpu88Ig2VrRuvuEdn6nubSuUanqpXC4+odPM8TRni92Z7xmrOK0kqmRuvuCcKFPm80VF8yLqsxXVWFXs365mHEzTr3Xhtypn3/2/vfkLbLOM4gP96qgztLk4EJ8IYA7WHUAYehE4crQMLHjo8xNWuIhR12DHZLHMHB2JqJNaWyZSNdT3sUuZhUtA58NCbB9uAZYJIQaYg9PbulMOoebOWpf9oN23JXj6fw5vnTQgkP0Lg933f53mibcfdl5Y0v3gyrhy+GR92dMbxue64+sHmr+pPfLS0ZsSZmEifuHM7pr/pi7fm+mI4v1Tw9Ir83+kmMTXzMz/H/HoFr70/H50X9sSlL6oNa33jfqdSq3fyT3JvGsIKe/sux6X95fi0vyOeXave+4rL1rWol0wORK7raLxbmow/drXH2YmZ+O1asdr8r54i1HZsLF6fORkvtB+Na099HlNLU5Gqn3F+biounuiO9vdn4qWLl5eHUqln8jFcbIkLRzrj8NVd8eVwftPNtXo/QL1jd/QMF6NlLB8HjnwbTxSq/wVr3fkCAADbqKl2HJxdWCg86Oxxsq/abO37MQ79Xm3k09M/b0Tp1+Z4+qevY/rlYgx11YUUlXJ81dMfpXI6DeOxaMt/Euc/7lhjzYxKTJf6ovToqTj/di5aVlwtT74/FbmByWh+MhfHRsfivfptLhvC7bh+4tUoVTqjpzsfrx3Ys+o7/BfTxefih4M3q41levZXXB8pR/PuqTg30x7DZ7vqmuZqHdNmvFSubRfaksvHZ6Nn4pU11nCo/DISb5x7JE6P9EfbylkEyY04vn8gvtvxeLS9MxpX+nObDmS2S/qb6BipxKE3u6Onqz32/o8zIdR7ta2sNwAApJJkgx387tPOwq2IodYmQQcAAACw7bYq6DB1BQAAAMgMQQcAAACQGYIOAAAAIDMEHQAAAEBmCDoAAACAzBB0AAAAAJkh6AAAAAAyo6l2HJxdWCg8XxsCAAAAbLUkSRZHy/X29i6O1jc+Pr44umdn4VbEUGuTOzoAAACAhrFWiFFvo9cFHQAAAEBDWS/M2CjkSAk6AAAAgIazMtTYTMiREnQAAAAADWkp3NhsyJESdAAAAAAN635CjpSgAwAAAMgMQQcAAACQGYIOAAAAIDMEHQAAAEBmCDoAAACAzBB0AAAAAJkh6AAAAAAyo6l2HJxdqD0CAAAAPKyGWu/mHAAAAAAPv4h/AXCNoIQF67TTAAAAAElFTkSuQmCC;" vertex="1" parent="1">
          <mxGeometry x="440" y="480" width="1082" height="1154" as="geometry" />
        </mxCell>
        <mxCell id="gjO3GS4DM45FSOQ93VVw-2" value="&lt;font style=&quot;vertical-align: inherit;&quot;&gt;&lt;font style=&quot;vertical-align: inherit;&quot;&gt;1&lt;/font&gt;&lt;/font&gt;" style="whiteSpace=wrap;html=1;aspect=fixed;fillColor=#e1d5e7;strokeColor=#9673a6;" vertex="1" parent="1">
          <mxGeometry x="540" y="740" width="20" height="20" as="geometry" />
        </mxCell>
        <mxCell id="gjO3GS4DM45FSOQ93VVw-3" value="&lt;font style=&quot;vertical-align: inherit;&quot;&gt;&lt;font style=&quot;vertical-align: inherit;&quot;&gt;2&lt;/font&gt;&lt;/font&gt;" style="whiteSpace=wrap;html=1;aspect=fixed;fillColor=#e1d5e7;strokeColor=#9673a6;" vertex="1" parent="1">
          <mxGeometry x="1250" y="810" width="20" height="20" as="geometry" />
        </mxCell>
        <mxCell id="gjO3GS4DM45FSOQ93VVw-4" value="&lt;font style=&quot;vertical-align: inherit;&quot;&gt;&lt;font style=&quot;vertical-align: inherit;&quot;&gt;3&lt;/font&gt;&lt;/font&gt;" style="whiteSpace=wrap;html=1;aspect=fixed;fillColor=#e1d5e7;strokeColor=#9673a6;" vertex="1" parent="1">
          <mxGeometry x="540" y="920" width="20" height="20" as="geometry" />
        </mxCell>
        <mxCell id="gjO3GS4DM45FSOQ93VVw-5" value="&lt;font style=&quot;vertical-align: inherit;&quot;&gt;&lt;font style=&quot;vertical-align: inherit;&quot;&gt;4&lt;/font&gt;&lt;/font&gt;" style="whiteSpace=wrap;html=1;aspect=fixed;fillColor=#e1d5e7;strokeColor=#9673a6;" vertex="1" parent="1">
          <mxGeometry x="971" y="920" width="20" height="20" as="geometry" />
        </mxCell>
        <mxCell id="gjO3GS4DM45FSOQ93VVw-6" value="&lt;font style=&quot;vertical-align: inherit;&quot;&gt;&lt;font style=&quot;vertical-align: inherit;&quot;&gt;5&lt;/font&gt;&lt;/font&gt;" style="whiteSpace=wrap;html=1;aspect=fixed;fillColor=#e1d5e7;strokeColor=#9673a6;" vertex="1" parent="1">
          <mxGeometry x="540" y="1110" width="20" height="20" as="geometry" />
        </mxCell>
        <mxCell id="gjO3GS4DM45FSOQ93VVw-7" value="&lt;font style=&quot;vertical-align: inherit;&quot;&gt;&lt;font style=&quot;vertical-align: inherit;&quot;&gt;6&lt;/font&gt;&lt;/font&gt;" style="whiteSpace=wrap;html=1;aspect=fixed;fillColor=#e1d5e7;strokeColor=#9673a6;" vertex="1" parent="1">
          <mxGeometry x="971" y="1110" width="20" height="20" as="geometry" />
        </mxCell>
        <mxCell id="gjO3GS4DM45FSOQ93VVw-8" value="&lt;font style=&quot;vertical-align: inherit;&quot;&gt;&lt;font style=&quot;vertical-align: inherit;&quot;&gt;7&lt;/font&gt;&lt;/font&gt;" style="whiteSpace=wrap;html=1;aspect=fixed;fillColor=#e1d5e7;strokeColor=#9673a6;" vertex="1" parent="1">
          <mxGeometry x="540" y="1210" width="20" height="20" as="geometry" />
        </mxCell>
        <mxCell id="gjO3GS4DM45FSOQ93VVw-9" value="&lt;font style=&quot;vertical-align: inherit;&quot;&gt;&lt;font style=&quot;vertical-align: inherit;&quot;&gt;8&lt;/font&gt;&lt;/font&gt;" style="whiteSpace=wrap;html=1;aspect=fixed;fillColor=#e1d5e7;strokeColor=#9673a6;" vertex="1" parent="1">
          <mxGeometry x="971" y="1210" width="20" height="20" as="geometry" />
        </mxCell>
        <mxCell id="gjO3GS4DM45FSOQ93VVw-10" value="&lt;font style=&quot;vertical-align: inherit;&quot;&gt;&lt;font style=&quot;vertical-align: inherit;&quot;&gt;9&lt;/font&gt;&lt;/font&gt;" style="whiteSpace=wrap;html=1;aspect=fixed;fillColor=#e1d5e7;strokeColor=#9673a6;" vertex="1" parent="1">
          <mxGeometry x="850" y="1300" width="20" height="20" as="geometry" />
        </mxCell>
        <mxCell id="gjO3GS4DM45FSOQ93VVw-11" value="&lt;font style=&quot;vertical-align: inherit;&quot;&gt;&lt;font style=&quot;vertical-align: inherit;&quot;&gt;10&lt;/font&gt;&lt;/font&gt;" style="whiteSpace=wrap;html=1;aspect=fixed;fillColor=#e1d5e7;strokeColor=#9673a6;" vertex="1" parent="1">
          <mxGeometry x="1300" y="1410" width="20" height="20" as="geometry" />
        </mxCell>
      </root>
    </mxGraphModel>
  </diagram>
</mxfile>
